G04 #@! TF.GenerationSoftware,KiCad,Pcbnew,(5.0.0)*
G04 #@! TF.CreationDate,2019-03-14T19:36:46-04:00*
G04 #@! TF.ProjectId,Power Sense 3.0,506F7765722053656E736520332E302E,rev?*
G04 #@! TF.SameCoordinates,Original*
G04 #@! TF.FileFunction,Legend,Bot*
G04 #@! TF.FilePolarity,Positive*
%FSLAX46Y46*%
G04 Gerber Fmt 4.6, Leading zero omitted, Abs format (unit mm)*
G04 Created by KiCad (PCBNEW (5.0.0)) date 03/14/19 19:36:46*
%MOMM*%
%LPD*%
G01*
G04 APERTURE LIST*
%ADD10C,0.152400*%
%ADD11C,0.150000*%
G04 APERTURE END LIST*
D10*
G04 #@! TO.C,IC1*
X136398000Y-73723500D02*
X142240000Y-73723500D01*
X142240000Y-73723500D02*
X142240000Y-73981361D01*
X142240000Y-82486500D02*
X136398000Y-82486500D01*
X136398000Y-82486500D02*
X136398000Y-82228639D01*
X136398000Y-73981361D02*
X136398000Y-73723500D01*
X142240000Y-82228639D02*
X142240000Y-82486500D01*
D11*
X140295190Y-78557380D02*
X140295190Y-77557380D01*
X139247571Y-78462142D02*
X139295190Y-78509761D01*
X139438047Y-78557380D01*
X139533285Y-78557380D01*
X139676142Y-78509761D01*
X139771380Y-78414523D01*
X139819000Y-78319285D01*
X139866619Y-78128809D01*
X139866619Y-77985952D01*
X139819000Y-77795476D01*
X139771380Y-77700238D01*
X139676142Y-77605000D01*
X139533285Y-77557380D01*
X139438047Y-77557380D01*
X139295190Y-77605000D01*
X139247571Y-77652619D01*
X138295190Y-78557380D02*
X138866619Y-78557380D01*
X138580904Y-78557380D02*
X138580904Y-77557380D01*
X138676142Y-77700238D01*
X138771380Y-77795476D01*
X138866619Y-77843095D01*
X142557095Y-83827880D02*
X142557095Y-82827880D01*
X142223761Y-83542166D01*
X141890428Y-82827880D01*
X141890428Y-83827880D01*
X140842809Y-83732642D02*
X140890428Y-83780261D01*
X141033285Y-83827880D01*
X141128523Y-83827880D01*
X141271380Y-83780261D01*
X141366619Y-83685023D01*
X141414238Y-83589785D01*
X141461857Y-83399309D01*
X141461857Y-83256452D01*
X141414238Y-83065976D01*
X141366619Y-82970738D01*
X141271380Y-82875500D01*
X141128523Y-82827880D01*
X141033285Y-82827880D01*
X140890428Y-82875500D01*
X140842809Y-82923119D01*
X140414238Y-83827880D02*
X140414238Y-82827880D01*
X140033285Y-82827880D01*
X139938047Y-82875500D01*
X139890428Y-82923119D01*
X139842809Y-83018357D01*
X139842809Y-83161214D01*
X139890428Y-83256452D01*
X139938047Y-83304071D01*
X140033285Y-83351690D01*
X140414238Y-83351690D01*
X139509476Y-82827880D02*
X138890428Y-82827880D01*
X139223761Y-83208833D01*
X139080904Y-83208833D01*
X138985666Y-83256452D01*
X138938047Y-83304071D01*
X138890428Y-83399309D01*
X138890428Y-83637404D01*
X138938047Y-83732642D01*
X138985666Y-83780261D01*
X139080904Y-83827880D01*
X139366619Y-83827880D01*
X139461857Y-83780261D01*
X139509476Y-83732642D01*
X138414238Y-83827880D02*
X138223761Y-83827880D01*
X138128523Y-83780261D01*
X138080904Y-83732642D01*
X137985666Y-83589785D01*
X137938047Y-83399309D01*
X137938047Y-83018357D01*
X137985666Y-82923119D01*
X138033285Y-82875500D01*
X138128523Y-82827880D01*
X138319000Y-82827880D01*
X138414238Y-82875500D01*
X138461857Y-82923119D01*
X138509476Y-83018357D01*
X138509476Y-83256452D01*
X138461857Y-83351690D01*
X138414238Y-83399309D01*
X138319000Y-83446928D01*
X138128523Y-83446928D01*
X138033285Y-83399309D01*
X137985666Y-83351690D01*
X137938047Y-83256452D01*
X137319000Y-82827880D02*
X137223761Y-82827880D01*
X137128523Y-82875500D01*
X137080904Y-82923119D01*
X137033285Y-83018357D01*
X136985666Y-83208833D01*
X136985666Y-83446928D01*
X137033285Y-83637404D01*
X137080904Y-83732642D01*
X137128523Y-83780261D01*
X137223761Y-83827880D01*
X137319000Y-83827880D01*
X137414238Y-83780261D01*
X137461857Y-83732642D01*
X137509476Y-83637404D01*
X137557095Y-83446928D01*
X137557095Y-83208833D01*
X137509476Y-83018357D01*
X137461857Y-82923119D01*
X137414238Y-82875500D01*
X137319000Y-82827880D01*
X136509476Y-83827880D02*
X136319000Y-83827880D01*
X136223761Y-83780261D01*
X136176142Y-83732642D01*
X136080904Y-83589785D01*
X136033285Y-83399309D01*
X136033285Y-83018357D01*
X136080904Y-82923119D01*
X136128523Y-82875500D01*
X136223761Y-82827880D01*
X136414238Y-82827880D01*
X136509476Y-82875500D01*
X136557095Y-82923119D01*
X136604714Y-83018357D01*
X136604714Y-83256452D01*
X136557095Y-83351690D01*
X136509476Y-83399309D01*
X136414238Y-83446928D01*
X136223761Y-83446928D01*
X136128523Y-83399309D01*
X136080904Y-83351690D01*
X136033285Y-83256452D01*
G04 #@! TD*
M02*
