G04 #@! TF.GenerationSoftware,KiCad,Pcbnew,(5.0.0)*
G04 #@! TF.CreationDate,2019-03-14T19:36:46-04:00*
G04 #@! TF.ProjectId,Power Sense 3.0,506F7765722053656E736520332E302E,rev?*
G04 #@! TF.SameCoordinates,Original*
G04 #@! TF.FileFunction,Soldermask,Bot*
G04 #@! TF.FilePolarity,Negative*
%FSLAX46Y46*%
G04 Gerber Fmt 4.6, Leading zero omitted, Abs format (unit mm)*
G04 Created by KiCad (PCBNEW (5.0.0)) date 03/14/19 19:36:46*
%MOMM*%
%LPD*%
G01*
G04 APERTURE LIST*
%ADD10C,4.400000*%
%ADD11C,3.400000*%
%ADD12C,2.000000*%
%ADD13R,2.200000X2.200000*%
%ADD14C,2.200000*%
%ADD15R,2.076400X0.831800*%
%ADD16R,2.100000X2.100000*%
%ADD17O,2.100000X2.100000*%
%ADD18C,1.800000*%
%ADD19O,1.800000X1.800000*%
%ADD20O,3.041600X1.720800*%
%ADD21C,2.076400*%
G04 APERTURE END LIST*
D10*
G04 #@! TO.C,REF\002A\002A*
X68453000Y-97790000D03*
G04 #@! TD*
D11*
G04 #@! TO.C,T2*
X98488500Y-65659000D03*
X91757500Y-65659000D03*
X85026500Y-65659000D03*
X78295500Y-65659000D03*
X98488500Y-96647000D03*
X91757500Y-96647000D03*
X85026500Y-96647000D03*
X78295500Y-96647000D03*
G04 #@! TD*
D12*
G04 #@! TO.C,C1*
X124968000Y-78740000D03*
X124968000Y-76240000D03*
G04 #@! TD*
G04 #@! TO.C,C2*
X124841000Y-71120000D03*
X124841000Y-73620000D03*
G04 #@! TD*
G04 #@! TO.C,C3*
X124841000Y-68794000D03*
X124841000Y-66294000D03*
G04 #@! TD*
G04 #@! TO.C,C4*
X117221000Y-58674000D03*
X114721000Y-58674000D03*
G04 #@! TD*
G04 #@! TO.C,C5*
X131445000Y-66588000D03*
X131445000Y-69088000D03*
G04 #@! TD*
G04 #@! TO.C,C6*
X122301000Y-81661000D03*
X124801000Y-81661000D03*
G04 #@! TD*
G04 #@! TO.C,C7*
X153670000Y-67564000D03*
X153670000Y-70064000D03*
G04 #@! TD*
G04 #@! TO.C,C8*
X153670000Y-77343000D03*
X153670000Y-79843000D03*
G04 #@! TD*
G04 #@! TO.C,C9*
X153670000Y-72390000D03*
X153670000Y-74890000D03*
G04 #@! TD*
G04 #@! TO.C,C10*
X170180000Y-70104000D03*
X170180000Y-67604000D03*
G04 #@! TD*
D13*
G04 #@! TO.C,D1*
X189611000Y-82550000D03*
D14*
X192151000Y-82550000D03*
G04 #@! TD*
D13*
G04 #@! TO.C,D2*
X189611000Y-69088000D03*
D14*
X192151000Y-69088000D03*
G04 #@! TD*
D13*
G04 #@! TO.C,D3*
X189611000Y-75819000D03*
D14*
X192151000Y-75819000D03*
G04 #@! TD*
D15*
G04 #@! TO.C,IC1*
X135699500Y-81679999D03*
X135699500Y-81030000D03*
X135699500Y-80380002D03*
X135699500Y-79730001D03*
X135699500Y-79080002D03*
X135699500Y-78430001D03*
X135699500Y-77780002D03*
X135699500Y-77130001D03*
X135699500Y-76480002D03*
X135699500Y-75830001D03*
X135699500Y-75180002D03*
X135699500Y-74530001D03*
X142938500Y-74530001D03*
X142938500Y-75180000D03*
X142938500Y-75830001D03*
X142938500Y-76479999D03*
X142938500Y-77130001D03*
X142938500Y-77779999D03*
X142938500Y-78429998D03*
X142938500Y-79079999D03*
X142938500Y-79729998D03*
X142938500Y-80379999D03*
X142938500Y-81029998D03*
X142938500Y-81679999D03*
G04 #@! TD*
D16*
G04 #@! TO.C,J1*
X76657200Y-59512200D03*
D17*
X76657200Y-56972200D03*
G04 #@! TD*
D16*
G04 #@! TO.C,J2*
X157353000Y-98679000D03*
D17*
X157353000Y-96139000D03*
X157353000Y-93599000D03*
X157353000Y-91059000D03*
X157353000Y-88519000D03*
G04 #@! TD*
D18*
G04 #@! TO.C,R2*
X114681000Y-78740000D03*
D19*
X122301000Y-78740000D03*
G04 #@! TD*
D18*
G04 #@! TO.C,R3*
X122301000Y-73660000D03*
D19*
X114681000Y-73660000D03*
G04 #@! TD*
D18*
G04 #@! TO.C,R6*
X114681000Y-76200000D03*
D19*
X122301000Y-76200000D03*
G04 #@! TD*
D18*
G04 #@! TO.C,R7*
X114681000Y-71120000D03*
D19*
X122301000Y-71120000D03*
G04 #@! TD*
D18*
G04 #@! TO.C,R8*
X114681000Y-64008000D03*
D19*
X122301000Y-64008000D03*
G04 #@! TD*
D18*
G04 #@! TO.C,R9*
X114681000Y-61468000D03*
D19*
X122301000Y-61468000D03*
G04 #@! TD*
D18*
G04 #@! TO.C,R10*
X189992000Y-87122000D03*
D19*
X189992000Y-94742000D03*
G04 #@! TD*
D18*
G04 #@! TO.C,R11*
X145288000Y-91821000D03*
D19*
X145288000Y-99441000D03*
G04 #@! TD*
D18*
G04 #@! TO.C,R13*
X147828000Y-99441000D03*
D19*
X147828000Y-91821000D03*
G04 #@! TD*
D18*
G04 #@! TO.C,R14*
X146177000Y-63754000D03*
D19*
X153797000Y-63754000D03*
G04 #@! TD*
D18*
G04 #@! TO.C,R17*
X136271000Y-54483000D03*
D19*
X143891000Y-54483000D03*
G04 #@! TD*
D18*
G04 #@! TO.C,R18*
X138303000Y-58293000D03*
D19*
X145923000Y-58293000D03*
G04 #@! TD*
D18*
G04 #@! TO.C,R19*
X163449000Y-59944000D03*
D19*
X171069000Y-59944000D03*
G04 #@! TD*
D18*
G04 #@! TO.C,R21*
X143256000Y-71374000D03*
D19*
X143256000Y-63754000D03*
G04 #@! TD*
D18*
G04 #@! TO.C,R22*
X192151000Y-63627000D03*
D19*
X192151000Y-56007000D03*
G04 #@! TD*
D18*
G04 #@! TO.C,R23*
X188849000Y-63627000D03*
D19*
X188849000Y-56007000D03*
G04 #@! TD*
D10*
G04 #@! TO.C,T1*
X120967500Y-95811500D03*
X110807500Y-85671500D03*
X131127500Y-85671500D03*
G04 #@! TD*
D20*
G04 #@! TO.C,U1*
X182118000Y-90424000D03*
X182118000Y-87884000D03*
X182118000Y-85344000D03*
X182118000Y-82804000D03*
X182118000Y-80264000D03*
X182118000Y-77724000D03*
X182118000Y-75184000D03*
X182118000Y-72644000D03*
X182118000Y-70104000D03*
X182118000Y-67564000D03*
X182118000Y-65024000D03*
X182118000Y-62484000D03*
X182118000Y-59944000D03*
X182118000Y-57404000D03*
X174498000Y-57404000D03*
X174498000Y-59944000D03*
X174498000Y-62484000D03*
X174498000Y-65024000D03*
X174498000Y-67564000D03*
X174498000Y-70104000D03*
X174498000Y-72644000D03*
X174498000Y-75184000D03*
X174498000Y-77724000D03*
X174498000Y-80264000D03*
X174498000Y-82804000D03*
X174498000Y-85344000D03*
X174498000Y-87884000D03*
X174498000Y-90424000D03*
G04 #@! TD*
D21*
G04 #@! TO.C,Y1*
X150114000Y-77430000D03*
X150114000Y-72430000D03*
G04 #@! TD*
D18*
G04 #@! TO.C,R12*
X122301000Y-66421000D03*
D19*
X114681000Y-66421000D03*
G04 #@! TD*
D18*
G04 #@! TO.C,R1*
X101727000Y-59563000D03*
D19*
X94107000Y-59563000D03*
G04 #@! TD*
D18*
G04 #@! TO.C,R4*
X94107000Y-57023000D03*
D19*
X101727000Y-57023000D03*
G04 #@! TD*
G04 #@! TO.C,R5*
X114681000Y-68707000D03*
D18*
X122301000Y-68707000D03*
G04 #@! TD*
D17*
G04 #@! TO.C,J4*
X126492000Y-100584000D03*
X129032000Y-100584000D03*
X131572000Y-100584000D03*
X134112000Y-100584000D03*
X136652000Y-100584000D03*
D16*
X139192000Y-100584000D03*
G04 #@! TD*
D18*
G04 #@! TO.C,R20*
X90805000Y-59563000D03*
D19*
X83185000Y-59563000D03*
G04 #@! TD*
G04 #@! TO.C,R24*
X83185000Y-57023000D03*
D18*
X90805000Y-57023000D03*
G04 #@! TD*
D16*
G04 #@! TO.C,J3*
X163449000Y-80264000D03*
D17*
X163449000Y-77724000D03*
X163449000Y-75184000D03*
X163449000Y-72644000D03*
X163449000Y-70104000D03*
X163449000Y-67564000D03*
X163449000Y-65024000D03*
G04 #@! TD*
D10*
G04 #@! TO.C,REF\002A\002A*
X193675000Y-99187000D03*
G04 #@! TD*
G04 #@! TO.C,REF\002A\002A*
X129667000Y-59055000D03*
G04 #@! TD*
M02*
