G04 #@! TF.GenerationSoftware,KiCad,Pcbnew,(5.0.0)*
G04 #@! TF.CreationDate,2019-03-14T19:36:46-04:00*
G04 #@! TF.ProjectId,Power Sense 3.0,506F7765722053656E736520332E302E,rev?*
G04 #@! TF.SameCoordinates,Original*
G04 #@! TF.FileFunction,Legend,Top*
G04 #@! TF.FilePolarity,Positive*
%FSLAX46Y46*%
G04 Gerber Fmt 4.6, Leading zero omitted, Abs format (unit mm)*
G04 Created by KiCad (PCBNEW (5.0.0)) date 03/14/19 19:36:46*
%MOMM*%
%LPD*%
G01*
G04 APERTURE LIST*
%ADD10C,0.120000*%
%ADD11C,0.300000*%
%ADD12C,0.150000*%
%ADD13C,0.200000*%
%ADD14C,0.125000*%
%ADD15C,0.350000*%
G04 APERTURE END LIST*
D10*
X167163761Y-60305904D02*
X166706619Y-60305904D01*
X166935190Y-60305904D02*
X166935190Y-59505904D01*
X166859000Y-59620190D01*
X166782809Y-59696380D01*
X166706619Y-59734476D01*
X167506619Y-60305904D02*
X167506619Y-59505904D01*
X167582809Y-60001142D02*
X167811380Y-60305904D01*
X167811380Y-59772571D02*
X167506619Y-60077333D01*
X172274666Y-68647333D02*
X172274666Y-69047333D01*
X172274666Y-68847333D02*
X171574666Y-68847333D01*
X171674666Y-68914000D01*
X171741333Y-68980666D01*
X171774666Y-69047333D01*
X171574666Y-68214000D02*
X171574666Y-68147333D01*
X171608000Y-68080666D01*
X171641333Y-68047333D01*
X171708000Y-68014000D01*
X171841333Y-67980666D01*
X172008000Y-67980666D01*
X172141333Y-68014000D01*
X172208000Y-68047333D01*
X172241333Y-68080666D01*
X172274666Y-68147333D01*
X172274666Y-68214000D01*
X172241333Y-68280666D01*
X172208000Y-68314000D01*
X172141333Y-68347333D01*
X172008000Y-68380666D01*
X171841333Y-68380666D01*
X171708000Y-68347333D01*
X171641333Y-68314000D01*
X171608000Y-68280666D01*
X171574666Y-68214000D01*
X171574666Y-67547333D02*
X171574666Y-67480666D01*
X171608000Y-67414000D01*
X171641333Y-67380666D01*
X171708000Y-67347333D01*
X171841333Y-67314000D01*
X172008000Y-67314000D01*
X172141333Y-67347333D01*
X172208000Y-67380666D01*
X172241333Y-67414000D01*
X172274666Y-67480666D01*
X172274666Y-67547333D01*
X172241333Y-67614000D01*
X172208000Y-67647333D01*
X172141333Y-67680666D01*
X172008000Y-67714000D01*
X171841333Y-67714000D01*
X171708000Y-67680666D01*
X171641333Y-67647333D01*
X171608000Y-67614000D01*
X171574666Y-67547333D01*
X171808000Y-67014000D02*
X172274666Y-67014000D01*
X171874666Y-67014000D02*
X171841333Y-66980666D01*
X171808000Y-66914000D01*
X171808000Y-66814000D01*
X171841333Y-66747333D01*
X171908000Y-66714000D01*
X172274666Y-66714000D01*
X171908000Y-66147333D02*
X171908000Y-66380666D01*
X172274666Y-66380666D02*
X171574666Y-66380666D01*
X171574666Y-66047333D01*
X148189904Y-95980190D02*
X148189904Y-96437333D01*
X148189904Y-96208761D02*
X147389904Y-96208761D01*
X147504190Y-96284952D01*
X147580380Y-96361142D01*
X147618476Y-96437333D01*
X147389904Y-95484952D02*
X147389904Y-95408761D01*
X147428000Y-95332571D01*
X147466095Y-95294476D01*
X147542285Y-95256380D01*
X147694666Y-95218285D01*
X147885142Y-95218285D01*
X148037523Y-95256380D01*
X148113714Y-95294476D01*
X148151809Y-95332571D01*
X148189904Y-95408761D01*
X148189904Y-95484952D01*
X148151809Y-95561142D01*
X148113714Y-95599238D01*
X148037523Y-95637333D01*
X147885142Y-95675428D01*
X147694666Y-95675428D01*
X147542285Y-95637333D01*
X147466095Y-95599238D01*
X147428000Y-95561142D01*
X147389904Y-95484952D01*
X148189904Y-94875428D02*
X147389904Y-94875428D01*
X147885142Y-94799238D02*
X148189904Y-94570666D01*
X147656571Y-94570666D02*
X147961333Y-94875428D01*
X145649904Y-95656380D02*
X145649904Y-96113523D01*
X145649904Y-95884952D02*
X144849904Y-95884952D01*
X144964190Y-95961142D01*
X145040380Y-96037333D01*
X145078476Y-96113523D01*
X144849904Y-95161142D02*
X144849904Y-95084952D01*
X144888000Y-95008761D01*
X144926095Y-94970666D01*
X145002285Y-94932571D01*
X145154666Y-94894476D01*
X145345142Y-94894476D01*
X145497523Y-94932571D01*
X145573714Y-94970666D01*
X145611809Y-95008761D01*
X145649904Y-95084952D01*
X145649904Y-95161142D01*
X145611809Y-95237333D01*
X145573714Y-95275428D01*
X145497523Y-95313523D01*
X145345142Y-95351619D01*
X145154666Y-95351619D01*
X145002285Y-95313523D01*
X144926095Y-95275428D01*
X144888000Y-95237333D01*
X144849904Y-95161142D01*
X188410904Y-60845571D02*
X188410904Y-60350333D01*
X188715666Y-60617000D01*
X188715666Y-60502714D01*
X188753761Y-60426523D01*
X188791857Y-60388428D01*
X188868047Y-60350333D01*
X189058523Y-60350333D01*
X189134714Y-60388428D01*
X189172809Y-60426523D01*
X189210904Y-60502714D01*
X189210904Y-60731285D01*
X189172809Y-60807476D01*
X189134714Y-60845571D01*
X188410904Y-60083666D02*
X188410904Y-59588428D01*
X188715666Y-59855095D01*
X188715666Y-59740809D01*
X188753761Y-59664619D01*
X188791857Y-59626523D01*
X188868047Y-59588428D01*
X189058523Y-59588428D01*
X189134714Y-59626523D01*
X189172809Y-59664619D01*
X189210904Y-59740809D01*
X189210904Y-59969380D01*
X189172809Y-60045571D01*
X189134714Y-60083666D01*
X188410904Y-59093190D02*
X188410904Y-59017000D01*
X188449000Y-58940809D01*
X188487095Y-58902714D01*
X188563285Y-58864619D01*
X188715666Y-58826523D01*
X188906142Y-58826523D01*
X189058523Y-58864619D01*
X189134714Y-58902714D01*
X189172809Y-58940809D01*
X189210904Y-59017000D01*
X189210904Y-59093190D01*
X189172809Y-59169380D01*
X189134714Y-59207476D01*
X189058523Y-59245571D01*
X188906142Y-59283666D01*
X188715666Y-59283666D01*
X188563285Y-59245571D01*
X188487095Y-59207476D01*
X188449000Y-59169380D01*
X188410904Y-59093190D01*
X191712904Y-60972571D02*
X191712904Y-60477333D01*
X192017666Y-60744000D01*
X192017666Y-60629714D01*
X192055761Y-60553523D01*
X192093857Y-60515428D01*
X192170047Y-60477333D01*
X192360523Y-60477333D01*
X192436714Y-60515428D01*
X192474809Y-60553523D01*
X192512904Y-60629714D01*
X192512904Y-60858285D01*
X192474809Y-60934476D01*
X192436714Y-60972571D01*
X191712904Y-60210666D02*
X191712904Y-59715428D01*
X192017666Y-59982095D01*
X192017666Y-59867809D01*
X192055761Y-59791619D01*
X192093857Y-59753523D01*
X192170047Y-59715428D01*
X192360523Y-59715428D01*
X192436714Y-59753523D01*
X192474809Y-59791619D01*
X192512904Y-59867809D01*
X192512904Y-60096380D01*
X192474809Y-60172571D01*
X192436714Y-60210666D01*
X191712904Y-59220190D02*
X191712904Y-59144000D01*
X191751000Y-59067809D01*
X191789095Y-59029714D01*
X191865285Y-58991619D01*
X192017666Y-58953523D01*
X192208142Y-58953523D01*
X192360523Y-58991619D01*
X192436714Y-59029714D01*
X192474809Y-59067809D01*
X192512904Y-59144000D01*
X192512904Y-59220190D01*
X192474809Y-59296380D01*
X192436714Y-59334476D01*
X192360523Y-59372571D01*
X192208142Y-59410666D01*
X192017666Y-59410666D01*
X191865285Y-59372571D01*
X191789095Y-59334476D01*
X191751000Y-59296380D01*
X191712904Y-59220190D01*
X189553904Y-91960571D02*
X189553904Y-91465333D01*
X189858666Y-91732000D01*
X189858666Y-91617714D01*
X189896761Y-91541523D01*
X189934857Y-91503428D01*
X190011047Y-91465333D01*
X190201523Y-91465333D01*
X190277714Y-91503428D01*
X190315809Y-91541523D01*
X190353904Y-91617714D01*
X190353904Y-91846285D01*
X190315809Y-91922476D01*
X190277714Y-91960571D01*
X189553904Y-91198666D02*
X189553904Y-90703428D01*
X189858666Y-90970095D01*
X189858666Y-90855809D01*
X189896761Y-90779619D01*
X189934857Y-90741523D01*
X190011047Y-90703428D01*
X190201523Y-90703428D01*
X190277714Y-90741523D01*
X190315809Y-90779619D01*
X190353904Y-90855809D01*
X190353904Y-91084380D01*
X190315809Y-91160571D01*
X190277714Y-91198666D01*
X189553904Y-90208190D02*
X189553904Y-90132000D01*
X189592000Y-90055809D01*
X189630095Y-90017714D01*
X189706285Y-89979619D01*
X189858666Y-89941523D01*
X190049142Y-89941523D01*
X190201523Y-89979619D01*
X190277714Y-90017714D01*
X190315809Y-90055809D01*
X190353904Y-90132000D01*
X190353904Y-90208190D01*
X190315809Y-90284380D01*
X190277714Y-90322476D01*
X190201523Y-90360571D01*
X190049142Y-90398666D01*
X189858666Y-90398666D01*
X189706285Y-90360571D01*
X189630095Y-90322476D01*
X189592000Y-90284380D01*
X189553904Y-90208190D01*
X155298000Y-68928333D02*
X155764666Y-68928333D01*
X155031333Y-69095000D02*
X155531333Y-69261666D01*
X155531333Y-68828333D01*
X155698000Y-68561666D02*
X155731333Y-68528333D01*
X155764666Y-68561666D01*
X155731333Y-68595000D01*
X155698000Y-68561666D01*
X155764666Y-68561666D01*
X155064666Y-68295000D02*
X155064666Y-67828333D01*
X155764666Y-68128333D01*
X155298000Y-67261666D02*
X155764666Y-67261666D01*
X155298000Y-67561666D02*
X155664666Y-67561666D01*
X155731333Y-67528333D01*
X155764666Y-67461666D01*
X155764666Y-67361666D01*
X155731333Y-67295000D01*
X155698000Y-67261666D01*
X155398000Y-66695000D02*
X155398000Y-66928333D01*
X155764666Y-66928333D02*
X155064666Y-66928333D01*
X155064666Y-66595000D01*
X155131333Y-73794000D02*
X155098000Y-73760666D01*
X155064666Y-73694000D01*
X155064666Y-73527333D01*
X155098000Y-73460666D01*
X155131333Y-73427333D01*
X155198000Y-73394000D01*
X155264666Y-73394000D01*
X155364666Y-73427333D01*
X155764666Y-73827333D01*
X155764666Y-73394000D01*
X155064666Y-73160666D02*
X155064666Y-72694000D01*
X155764666Y-72994000D01*
X155298000Y-72427333D02*
X155998000Y-72427333D01*
X155331333Y-72427333D02*
X155298000Y-72360666D01*
X155298000Y-72227333D01*
X155331333Y-72160666D01*
X155364666Y-72127333D01*
X155431333Y-72094000D01*
X155631333Y-72094000D01*
X155698000Y-72127333D01*
X155731333Y-72160666D01*
X155764666Y-72227333D01*
X155764666Y-72360666D01*
X155731333Y-72427333D01*
X155398000Y-71560666D02*
X155398000Y-71794000D01*
X155764666Y-71794000D02*
X155064666Y-71794000D01*
X155064666Y-71460666D01*
X155131333Y-78747000D02*
X155098000Y-78713666D01*
X155064666Y-78647000D01*
X155064666Y-78480333D01*
X155098000Y-78413666D01*
X155131333Y-78380333D01*
X155198000Y-78347000D01*
X155264666Y-78347000D01*
X155364666Y-78380333D01*
X155764666Y-78780333D01*
X155764666Y-78347000D01*
X155064666Y-78113666D02*
X155064666Y-77647000D01*
X155764666Y-77947000D01*
X155298000Y-77380333D02*
X155998000Y-77380333D01*
X155331333Y-77380333D02*
X155298000Y-77313666D01*
X155298000Y-77180333D01*
X155331333Y-77113666D01*
X155364666Y-77080333D01*
X155431333Y-77047000D01*
X155631333Y-77047000D01*
X155698000Y-77080333D01*
X155731333Y-77113666D01*
X155764666Y-77180333D01*
X155764666Y-77313666D01*
X155731333Y-77380333D01*
X155398000Y-76513666D02*
X155398000Y-76747000D01*
X155764666Y-76747000D02*
X155064666Y-76747000D01*
X155064666Y-76413666D01*
X149834619Y-64242904D02*
X149377476Y-64242904D01*
X149606047Y-64242904D02*
X149606047Y-63442904D01*
X149529857Y-63557190D01*
X149453666Y-63633380D01*
X149377476Y-63671476D01*
X150329857Y-63442904D02*
X150406047Y-63442904D01*
X150482238Y-63481000D01*
X150520333Y-63519095D01*
X150558428Y-63595285D01*
X150596523Y-63747666D01*
X150596523Y-63938142D01*
X150558428Y-64090523D01*
X150520333Y-64166714D01*
X150482238Y-64204809D01*
X150406047Y-64242904D01*
X150329857Y-64242904D01*
X150253666Y-64204809D01*
X150215571Y-64166714D01*
X150177476Y-64090523D01*
X150139380Y-63938142D01*
X150139380Y-63747666D01*
X150177476Y-63595285D01*
X150215571Y-63519095D01*
X150253666Y-63481000D01*
X150329857Y-63442904D01*
X143617904Y-67532238D02*
X143617904Y-67989380D01*
X143617904Y-67760809D02*
X142817904Y-67760809D01*
X142932190Y-67837000D01*
X143008380Y-67913190D01*
X143046476Y-67989380D01*
X143617904Y-67189380D02*
X142817904Y-67189380D01*
X143313142Y-67113190D02*
X143617904Y-66884619D01*
X143084571Y-66884619D02*
X143389333Y-67189380D01*
X142398761Y-58654904D02*
X141941619Y-58654904D01*
X142170190Y-58654904D02*
X142170190Y-57854904D01*
X142094000Y-57969190D01*
X142017809Y-58045380D01*
X141941619Y-58083476D01*
X142741619Y-58654904D02*
X142741619Y-57854904D01*
X142817809Y-58350142D02*
X143046380Y-58654904D01*
X143046380Y-58121571D02*
X142741619Y-58426333D01*
X140112761Y-54844904D02*
X139655619Y-54844904D01*
X139884190Y-54844904D02*
X139884190Y-54044904D01*
X139808000Y-54159190D01*
X139731809Y-54235380D01*
X139655619Y-54273476D01*
X140455619Y-54844904D02*
X140455619Y-54044904D01*
X140531809Y-54540142D02*
X140760380Y-54844904D01*
X140760380Y-54311571D02*
X140455619Y-54616333D01*
X132861095Y-66579904D02*
X132861095Y-66122761D01*
X132861095Y-66351333D02*
X133661095Y-66351333D01*
X133546809Y-66275142D01*
X133470619Y-66198952D01*
X133432523Y-66122761D01*
X133661095Y-67075142D02*
X133661095Y-67151333D01*
X133623000Y-67227523D01*
X133584904Y-67265619D01*
X133508714Y-67303714D01*
X133356333Y-67341809D01*
X133165857Y-67341809D01*
X133013476Y-67303714D01*
X132937285Y-67265619D01*
X132899190Y-67227523D01*
X132861095Y-67151333D01*
X132861095Y-67075142D01*
X132899190Y-66998952D01*
X132937285Y-66960857D01*
X133013476Y-66922761D01*
X133165857Y-66884666D01*
X133356333Y-66884666D01*
X133508714Y-66922761D01*
X133584904Y-66960857D01*
X133623000Y-66998952D01*
X133661095Y-67075142D01*
X133661095Y-67837047D02*
X133661095Y-67913238D01*
X133623000Y-67989428D01*
X133584904Y-68027523D01*
X133508714Y-68065619D01*
X133356333Y-68103714D01*
X133165857Y-68103714D01*
X133013476Y-68065619D01*
X132937285Y-68027523D01*
X132899190Y-67989428D01*
X132861095Y-67913238D01*
X132861095Y-67837047D01*
X132899190Y-67760857D01*
X132937285Y-67722761D01*
X133013476Y-67684666D01*
X133165857Y-67646571D01*
X133356333Y-67646571D01*
X133508714Y-67684666D01*
X133584904Y-67722761D01*
X133623000Y-67760857D01*
X133661095Y-67837047D01*
X133394428Y-68446571D02*
X132861095Y-68446571D01*
X133318238Y-68446571D02*
X133356333Y-68484666D01*
X133394428Y-68560857D01*
X133394428Y-68675142D01*
X133356333Y-68751333D01*
X133280142Y-68789428D01*
X132861095Y-68789428D01*
X133280142Y-69437047D02*
X133280142Y-69170380D01*
X132861095Y-69170380D02*
X133661095Y-69170380D01*
X133661095Y-69551333D01*
X105835714Y-82429333D02*
X106216666Y-82429333D01*
X105759523Y-82657904D02*
X106026190Y-81857904D01*
X106292857Y-82657904D01*
X107016666Y-82581714D02*
X106978571Y-82619809D01*
X106864285Y-82657904D01*
X106788095Y-82657904D01*
X106673809Y-82619809D01*
X106597619Y-82543619D01*
X106559523Y-82467428D01*
X106521428Y-82315047D01*
X106521428Y-82200761D01*
X106559523Y-82048380D01*
X106597619Y-81972190D01*
X106673809Y-81896000D01*
X106788095Y-81857904D01*
X106864285Y-81857904D01*
X106978571Y-81896000D01*
X107016666Y-81934095D01*
X107778571Y-82657904D02*
X107321428Y-82657904D01*
X107550000Y-82657904D02*
X107550000Y-81857904D01*
X107473809Y-81972190D01*
X107397619Y-82048380D01*
X107321428Y-82086476D01*
X108273809Y-81857904D02*
X108350000Y-81857904D01*
X108426190Y-81896000D01*
X108464285Y-81934095D01*
X108502380Y-82010285D01*
X108540476Y-82162666D01*
X108540476Y-82353142D01*
X108502380Y-82505523D01*
X108464285Y-82581714D01*
X108426190Y-82619809D01*
X108350000Y-82657904D01*
X108273809Y-82657904D01*
X108197619Y-82619809D01*
X108159523Y-82581714D01*
X108121428Y-82505523D01*
X108083333Y-82353142D01*
X108083333Y-82162666D01*
X108121428Y-82010285D01*
X108159523Y-81934095D01*
X108197619Y-81896000D01*
X108273809Y-81857904D01*
X108807142Y-81857904D02*
X109302380Y-81857904D01*
X109035714Y-82162666D01*
X109150000Y-82162666D01*
X109226190Y-82200761D01*
X109264285Y-82238857D01*
X109302380Y-82315047D01*
X109302380Y-82505523D01*
X109264285Y-82581714D01*
X109226190Y-82619809D01*
X109150000Y-82657904D01*
X108921428Y-82657904D01*
X108845238Y-82619809D01*
X108807142Y-82581714D01*
X109797619Y-81857904D02*
X109873809Y-81857904D01*
X109950000Y-81896000D01*
X109988095Y-81934095D01*
X110026190Y-82010285D01*
X110064285Y-82162666D01*
X110064285Y-82353142D01*
X110026190Y-82505523D01*
X109988095Y-82581714D01*
X109950000Y-82619809D01*
X109873809Y-82657904D01*
X109797619Y-82657904D01*
X109721428Y-82619809D01*
X109683333Y-82581714D01*
X109645238Y-82505523D01*
X109607142Y-82353142D01*
X109607142Y-82162666D01*
X109645238Y-82010285D01*
X109683333Y-81934095D01*
X109721428Y-81896000D01*
X109797619Y-81857904D01*
X126650904Y-82149904D02*
X126193761Y-82149904D01*
X126422333Y-82149904D02*
X126422333Y-81349904D01*
X126346142Y-81464190D01*
X126269952Y-81540380D01*
X126193761Y-81578476D01*
X127146142Y-81349904D02*
X127222333Y-81349904D01*
X127298523Y-81388000D01*
X127336619Y-81426095D01*
X127374714Y-81502285D01*
X127412809Y-81654666D01*
X127412809Y-81845142D01*
X127374714Y-81997523D01*
X127336619Y-82073714D01*
X127298523Y-82111809D01*
X127222333Y-82149904D01*
X127146142Y-82149904D01*
X127069952Y-82111809D01*
X127031857Y-82073714D01*
X126993761Y-81997523D01*
X126955666Y-81845142D01*
X126955666Y-81654666D01*
X126993761Y-81502285D01*
X127031857Y-81426095D01*
X127069952Y-81388000D01*
X127146142Y-81349904D01*
X127908047Y-81349904D02*
X127984238Y-81349904D01*
X128060428Y-81388000D01*
X128098523Y-81426095D01*
X128136619Y-81502285D01*
X128174714Y-81654666D01*
X128174714Y-81845142D01*
X128136619Y-81997523D01*
X128098523Y-82073714D01*
X128060428Y-82111809D01*
X127984238Y-82149904D01*
X127908047Y-82149904D01*
X127831857Y-82111809D01*
X127793761Y-82073714D01*
X127755666Y-81997523D01*
X127717571Y-81845142D01*
X127717571Y-81654666D01*
X127755666Y-81502285D01*
X127793761Y-81426095D01*
X127831857Y-81388000D01*
X127908047Y-81349904D01*
X128517571Y-81616571D02*
X128517571Y-82149904D01*
X128517571Y-81692761D02*
X128555666Y-81654666D01*
X128631857Y-81616571D01*
X128746142Y-81616571D01*
X128822333Y-81654666D01*
X128860428Y-81730857D01*
X128860428Y-82149904D01*
X129508047Y-81730857D02*
X129241380Y-81730857D01*
X129241380Y-82149904D02*
X129241380Y-81349904D01*
X129622333Y-81349904D01*
X127062666Y-77791333D02*
X127062666Y-78191333D01*
X127062666Y-77991333D02*
X126362666Y-77991333D01*
X126462666Y-78058000D01*
X126529333Y-78124666D01*
X126562666Y-78191333D01*
X126362666Y-77358000D02*
X126362666Y-77291333D01*
X126396000Y-77224666D01*
X126429333Y-77191333D01*
X126496000Y-77158000D01*
X126629333Y-77124666D01*
X126796000Y-77124666D01*
X126929333Y-77158000D01*
X126996000Y-77191333D01*
X127029333Y-77224666D01*
X127062666Y-77291333D01*
X127062666Y-77358000D01*
X127029333Y-77424666D01*
X126996000Y-77458000D01*
X126929333Y-77491333D01*
X126796000Y-77524666D01*
X126629333Y-77524666D01*
X126496000Y-77491333D01*
X126429333Y-77458000D01*
X126396000Y-77424666D01*
X126362666Y-77358000D01*
X126362666Y-76691333D02*
X126362666Y-76624666D01*
X126396000Y-76558000D01*
X126429333Y-76524666D01*
X126496000Y-76491333D01*
X126629333Y-76458000D01*
X126796000Y-76458000D01*
X126929333Y-76491333D01*
X126996000Y-76524666D01*
X127029333Y-76558000D01*
X127062666Y-76624666D01*
X127062666Y-76691333D01*
X127029333Y-76758000D01*
X126996000Y-76791333D01*
X126929333Y-76824666D01*
X126796000Y-76858000D01*
X126629333Y-76858000D01*
X126496000Y-76824666D01*
X126429333Y-76791333D01*
X126396000Y-76758000D01*
X126362666Y-76691333D01*
X126596000Y-76158000D02*
X127062666Y-76158000D01*
X126662666Y-76158000D02*
X126629333Y-76124666D01*
X126596000Y-76058000D01*
X126596000Y-75958000D01*
X126629333Y-75891333D01*
X126696000Y-75858000D01*
X127062666Y-75858000D01*
X126696000Y-75291333D02*
X126696000Y-75524666D01*
X127062666Y-75524666D02*
X126362666Y-75524666D01*
X126362666Y-75191333D01*
X127062666Y-72584333D02*
X127062666Y-72984333D01*
X127062666Y-72784333D02*
X126362666Y-72784333D01*
X126462666Y-72851000D01*
X126529333Y-72917666D01*
X126562666Y-72984333D01*
X126362666Y-72151000D02*
X126362666Y-72084333D01*
X126396000Y-72017666D01*
X126429333Y-71984333D01*
X126496000Y-71951000D01*
X126629333Y-71917666D01*
X126796000Y-71917666D01*
X126929333Y-71951000D01*
X126996000Y-71984333D01*
X127029333Y-72017666D01*
X127062666Y-72084333D01*
X127062666Y-72151000D01*
X127029333Y-72217666D01*
X126996000Y-72251000D01*
X126929333Y-72284333D01*
X126796000Y-72317666D01*
X126629333Y-72317666D01*
X126496000Y-72284333D01*
X126429333Y-72251000D01*
X126396000Y-72217666D01*
X126362666Y-72151000D01*
X126362666Y-71484333D02*
X126362666Y-71417666D01*
X126396000Y-71351000D01*
X126429333Y-71317666D01*
X126496000Y-71284333D01*
X126629333Y-71251000D01*
X126796000Y-71251000D01*
X126929333Y-71284333D01*
X126996000Y-71317666D01*
X127029333Y-71351000D01*
X127062666Y-71417666D01*
X127062666Y-71484333D01*
X127029333Y-71551000D01*
X126996000Y-71584333D01*
X126929333Y-71617666D01*
X126796000Y-71651000D01*
X126629333Y-71651000D01*
X126496000Y-71617666D01*
X126429333Y-71584333D01*
X126396000Y-71551000D01*
X126362666Y-71484333D01*
X126596000Y-70951000D02*
X127062666Y-70951000D01*
X126662666Y-70951000D02*
X126629333Y-70917666D01*
X126596000Y-70851000D01*
X126596000Y-70751000D01*
X126629333Y-70684333D01*
X126696000Y-70651000D01*
X127062666Y-70651000D01*
X126696000Y-70084333D02*
X126696000Y-70317666D01*
X127062666Y-70317666D02*
X126362666Y-70317666D01*
X126362666Y-69984333D01*
X127062666Y-67377333D02*
X127062666Y-67777333D01*
X127062666Y-67577333D02*
X126362666Y-67577333D01*
X126462666Y-67644000D01*
X126529333Y-67710666D01*
X126562666Y-67777333D01*
X126362666Y-66944000D02*
X126362666Y-66877333D01*
X126396000Y-66810666D01*
X126429333Y-66777333D01*
X126496000Y-66744000D01*
X126629333Y-66710666D01*
X126796000Y-66710666D01*
X126929333Y-66744000D01*
X126996000Y-66777333D01*
X127029333Y-66810666D01*
X127062666Y-66877333D01*
X127062666Y-66944000D01*
X127029333Y-67010666D01*
X126996000Y-67044000D01*
X126929333Y-67077333D01*
X126796000Y-67110666D01*
X126629333Y-67110666D01*
X126496000Y-67077333D01*
X126429333Y-67044000D01*
X126396000Y-67010666D01*
X126362666Y-66944000D01*
X126362666Y-66277333D02*
X126362666Y-66210666D01*
X126396000Y-66144000D01*
X126429333Y-66110666D01*
X126496000Y-66077333D01*
X126629333Y-66044000D01*
X126796000Y-66044000D01*
X126929333Y-66077333D01*
X126996000Y-66110666D01*
X127029333Y-66144000D01*
X127062666Y-66210666D01*
X127062666Y-66277333D01*
X127029333Y-66344000D01*
X126996000Y-66377333D01*
X126929333Y-66410666D01*
X126796000Y-66444000D01*
X126629333Y-66444000D01*
X126496000Y-66410666D01*
X126429333Y-66377333D01*
X126396000Y-66344000D01*
X126362666Y-66277333D01*
X126596000Y-65744000D02*
X127062666Y-65744000D01*
X126662666Y-65744000D02*
X126629333Y-65710666D01*
X126596000Y-65644000D01*
X126596000Y-65544000D01*
X126629333Y-65477333D01*
X126696000Y-65444000D01*
X127062666Y-65444000D01*
X126696000Y-64877333D02*
X126696000Y-65110666D01*
X127062666Y-65110666D02*
X126362666Y-65110666D01*
X126362666Y-64777333D01*
X117646571Y-79138428D02*
X117303714Y-79138428D01*
X117475142Y-79138428D02*
X117475142Y-78538428D01*
X117418000Y-78624142D01*
X117360857Y-78681285D01*
X117303714Y-78709857D01*
X118018000Y-78538428D02*
X118075142Y-78538428D01*
X118132285Y-78567000D01*
X118160857Y-78595571D01*
X118189428Y-78652714D01*
X118218000Y-78767000D01*
X118218000Y-78909857D01*
X118189428Y-79024142D01*
X118160857Y-79081285D01*
X118132285Y-79109857D01*
X118075142Y-79138428D01*
X118018000Y-79138428D01*
X117960857Y-79109857D01*
X117932285Y-79081285D01*
X117903714Y-79024142D01*
X117875142Y-78909857D01*
X117875142Y-78767000D01*
X117903714Y-78652714D01*
X117932285Y-78595571D01*
X117960857Y-78567000D01*
X118018000Y-78538428D01*
X119246571Y-79138428D02*
X118903714Y-79138428D01*
X119075142Y-79138428D02*
X119075142Y-78538428D01*
X119018000Y-78624142D01*
X118960857Y-78681285D01*
X118903714Y-78709857D01*
X119475142Y-79138428D02*
X119932285Y-78538428D01*
X119560857Y-78538428D02*
X119618000Y-78567000D01*
X119646571Y-78624142D01*
X119618000Y-78681285D01*
X119560857Y-78709857D01*
X119503714Y-78681285D01*
X119475142Y-78624142D01*
X119503714Y-78567000D01*
X119560857Y-78538428D01*
X119903714Y-79109857D02*
X119932285Y-79052714D01*
X119903714Y-78995571D01*
X119846571Y-78967000D01*
X119789428Y-78995571D01*
X119760857Y-79052714D01*
X119789428Y-79109857D01*
X119846571Y-79138428D01*
X119903714Y-79109857D01*
X118522761Y-76561904D02*
X118065619Y-76561904D01*
X118294190Y-76561904D02*
X118294190Y-75761904D01*
X118218000Y-75876190D01*
X118141809Y-75952380D01*
X118065619Y-75990476D01*
X118865619Y-76561904D02*
X118865619Y-75761904D01*
X118941809Y-76257142D02*
X119170380Y-76561904D01*
X119170380Y-76028571D02*
X118865619Y-76333333D01*
X117519571Y-73931428D02*
X117176714Y-73931428D01*
X117348142Y-73931428D02*
X117348142Y-73331428D01*
X117291000Y-73417142D01*
X117233857Y-73474285D01*
X117176714Y-73502857D01*
X117891000Y-73331428D02*
X117948142Y-73331428D01*
X118005285Y-73360000D01*
X118033857Y-73388571D01*
X118062428Y-73445714D01*
X118091000Y-73560000D01*
X118091000Y-73702857D01*
X118062428Y-73817142D01*
X118033857Y-73874285D01*
X118005285Y-73902857D01*
X117948142Y-73931428D01*
X117891000Y-73931428D01*
X117833857Y-73902857D01*
X117805285Y-73874285D01*
X117776714Y-73817142D01*
X117748142Y-73702857D01*
X117748142Y-73560000D01*
X117776714Y-73445714D01*
X117805285Y-73388571D01*
X117833857Y-73360000D01*
X117891000Y-73331428D01*
X119119571Y-73931428D02*
X118776714Y-73931428D01*
X118948142Y-73931428D02*
X118948142Y-73331428D01*
X118891000Y-73417142D01*
X118833857Y-73474285D01*
X118776714Y-73502857D01*
X119348142Y-73931428D02*
X119805285Y-73331428D01*
X119433857Y-73331428D02*
X119491000Y-73360000D01*
X119519571Y-73417142D01*
X119491000Y-73474285D01*
X119433857Y-73502857D01*
X119376714Y-73474285D01*
X119348142Y-73417142D01*
X119376714Y-73360000D01*
X119433857Y-73331428D01*
X119776714Y-73902857D02*
X119805285Y-73845714D01*
X119776714Y-73788571D01*
X119719571Y-73760000D01*
X119662428Y-73788571D01*
X119633857Y-73845714D01*
X119662428Y-73902857D01*
X119719571Y-73931428D01*
X119776714Y-73902857D01*
X118395761Y-71481904D02*
X117938619Y-71481904D01*
X118167190Y-71481904D02*
X118167190Y-70681904D01*
X118091000Y-70796190D01*
X118014809Y-70872380D01*
X117938619Y-70910476D01*
X118738619Y-71481904D02*
X118738619Y-70681904D01*
X118814809Y-71177142D02*
X119043380Y-71481904D01*
X119043380Y-70948571D02*
X118738619Y-71253333D01*
X117684666Y-68345095D02*
X117722761Y-68307000D01*
X117798952Y-68268904D01*
X117989428Y-68268904D01*
X118065619Y-68307000D01*
X118103714Y-68345095D01*
X118141809Y-68421285D01*
X118141809Y-68497476D01*
X118103714Y-68611761D01*
X117646571Y-69068904D01*
X118141809Y-69068904D01*
X118637047Y-68268904D02*
X118713238Y-68268904D01*
X118789428Y-68307000D01*
X118827523Y-68345095D01*
X118865619Y-68421285D01*
X118903714Y-68573666D01*
X118903714Y-68764142D01*
X118865619Y-68916523D01*
X118827523Y-68992714D01*
X118789428Y-69030809D01*
X118713238Y-69068904D01*
X118637047Y-69068904D01*
X118560857Y-69030809D01*
X118522761Y-68992714D01*
X118484666Y-68916523D01*
X118446571Y-68764142D01*
X118446571Y-68573666D01*
X118484666Y-68421285D01*
X118522761Y-68345095D01*
X118560857Y-68307000D01*
X118637047Y-68268904D01*
X119246571Y-69068904D02*
X119246571Y-68268904D01*
X119322761Y-68764142D02*
X119551333Y-69068904D01*
X119551333Y-68535571D02*
X119246571Y-68840333D01*
X118395761Y-66909904D02*
X117938619Y-66909904D01*
X118167190Y-66909904D02*
X118167190Y-66109904D01*
X118091000Y-66224190D01*
X118014809Y-66300380D01*
X117938619Y-66338476D01*
X118738619Y-66909904D02*
X118738619Y-66109904D01*
X118814809Y-66605142D02*
X119043380Y-66909904D01*
X119043380Y-66376571D02*
X118738619Y-66681333D01*
X118395761Y-64369904D02*
X117938619Y-64369904D01*
X118167190Y-64369904D02*
X118167190Y-63569904D01*
X118091000Y-63684190D01*
X118014809Y-63760380D01*
X117938619Y-63798476D01*
X118738619Y-64369904D02*
X118738619Y-63569904D01*
X118814809Y-64065142D02*
X119043380Y-64369904D01*
X119043380Y-63836571D02*
X118738619Y-64141333D01*
X118395761Y-61829904D02*
X117938619Y-61829904D01*
X118167190Y-61829904D02*
X118167190Y-61029904D01*
X118091000Y-61144190D01*
X118014809Y-61220380D01*
X117938619Y-61258476D01*
X118738619Y-61829904D02*
X118738619Y-61029904D01*
X118814809Y-61525142D02*
X119043380Y-61829904D01*
X119043380Y-61296571D02*
X118738619Y-61601333D01*
X114966904Y-57257904D02*
X114509761Y-57257904D01*
X114738333Y-57257904D02*
X114738333Y-56457904D01*
X114662142Y-56572190D01*
X114585952Y-56648380D01*
X114509761Y-56686476D01*
X115462142Y-56457904D02*
X115538333Y-56457904D01*
X115614523Y-56496000D01*
X115652619Y-56534095D01*
X115690714Y-56610285D01*
X115728809Y-56762666D01*
X115728809Y-56953142D01*
X115690714Y-57105523D01*
X115652619Y-57181714D01*
X115614523Y-57219809D01*
X115538333Y-57257904D01*
X115462142Y-57257904D01*
X115385952Y-57219809D01*
X115347857Y-57181714D01*
X115309761Y-57105523D01*
X115271666Y-56953142D01*
X115271666Y-56762666D01*
X115309761Y-56610285D01*
X115347857Y-56534095D01*
X115385952Y-56496000D01*
X115462142Y-56457904D01*
X116224047Y-56457904D02*
X116300238Y-56457904D01*
X116376428Y-56496000D01*
X116414523Y-56534095D01*
X116452619Y-56610285D01*
X116490714Y-56762666D01*
X116490714Y-56953142D01*
X116452619Y-57105523D01*
X116414523Y-57181714D01*
X116376428Y-57219809D01*
X116300238Y-57257904D01*
X116224047Y-57257904D01*
X116147857Y-57219809D01*
X116109761Y-57181714D01*
X116071666Y-57105523D01*
X116033571Y-56953142D01*
X116033571Y-56762666D01*
X116071666Y-56610285D01*
X116109761Y-56534095D01*
X116147857Y-56496000D01*
X116224047Y-56457904D01*
X116833571Y-56724571D02*
X116833571Y-57257904D01*
X116833571Y-56800761D02*
X116871666Y-56762666D01*
X116947857Y-56724571D01*
X117062142Y-56724571D01*
X117138333Y-56762666D01*
X117176428Y-56838857D01*
X117176428Y-57257904D01*
X117824047Y-56838857D02*
X117557380Y-56838857D01*
X117557380Y-57257904D02*
X117557380Y-56457904D01*
X117938333Y-56457904D01*
X97021761Y-59124904D02*
X96640809Y-59124904D01*
X96602714Y-59505857D01*
X96640809Y-59467761D01*
X96717000Y-59429666D01*
X96907476Y-59429666D01*
X96983666Y-59467761D01*
X97021761Y-59505857D01*
X97059857Y-59582047D01*
X97059857Y-59772523D01*
X97021761Y-59848714D01*
X96983666Y-59886809D01*
X96907476Y-59924904D01*
X96717000Y-59924904D01*
X96640809Y-59886809D01*
X96602714Y-59848714D01*
X97326523Y-59124904D02*
X97821761Y-59124904D01*
X97555095Y-59429666D01*
X97669380Y-59429666D01*
X97745571Y-59467761D01*
X97783666Y-59505857D01*
X97821761Y-59582047D01*
X97821761Y-59772523D01*
X97783666Y-59848714D01*
X97745571Y-59886809D01*
X97669380Y-59924904D01*
X97440809Y-59924904D01*
X97364619Y-59886809D01*
X97326523Y-59848714D01*
X98507476Y-59124904D02*
X98355095Y-59124904D01*
X98278904Y-59163000D01*
X98240809Y-59201095D01*
X98164619Y-59315380D01*
X98126523Y-59467761D01*
X98126523Y-59772523D01*
X98164619Y-59848714D01*
X98202714Y-59886809D01*
X98278904Y-59924904D01*
X98431285Y-59924904D01*
X98507476Y-59886809D01*
X98545571Y-59848714D01*
X98583666Y-59772523D01*
X98583666Y-59582047D01*
X98545571Y-59505857D01*
X98507476Y-59467761D01*
X98431285Y-59429666D01*
X98278904Y-59429666D01*
X98202714Y-59467761D01*
X98164619Y-59505857D01*
X98126523Y-59582047D01*
X98926523Y-59924904D02*
X98926523Y-59124904D01*
X99002714Y-59620142D02*
X99231285Y-59924904D01*
X99231285Y-59391571D02*
X98926523Y-59696333D01*
X97821761Y-57511904D02*
X97364619Y-57511904D01*
X97593190Y-57511904D02*
X97593190Y-56711904D01*
X97517000Y-56826190D01*
X97440809Y-56902380D01*
X97364619Y-56940476D01*
X98164619Y-57511904D02*
X98164619Y-56711904D01*
X98240809Y-57207142D02*
X98469380Y-57511904D01*
X98469380Y-56978571D02*
X98164619Y-57283333D01*
X86947380Y-59142380D02*
X87042619Y-59142380D01*
X87137857Y-59190000D01*
X87185476Y-59237619D01*
X87233095Y-59332857D01*
X87280714Y-59523333D01*
X87280714Y-59761428D01*
X87233095Y-59951904D01*
X87185476Y-60047142D01*
X87137857Y-60094761D01*
X87042619Y-60142380D01*
X86947380Y-60142380D01*
X86852142Y-60094761D01*
X86804523Y-60047142D01*
X86756904Y-59951904D01*
X86709285Y-59761428D01*
X86709285Y-59523333D01*
X86756904Y-59332857D01*
X86804523Y-59237619D01*
X86852142Y-59190000D01*
X86947380Y-59142380D01*
X86947380Y-56602380D02*
X87042619Y-56602380D01*
X87137857Y-56650000D01*
X87185476Y-56697619D01*
X87233095Y-56792857D01*
X87280714Y-56983333D01*
X87280714Y-57221428D01*
X87233095Y-57411904D01*
X87185476Y-57507142D01*
X87137857Y-57554761D01*
X87042619Y-57602380D01*
X86947380Y-57602380D01*
X86852142Y-57554761D01*
X86804523Y-57507142D01*
X86756904Y-57411904D01*
X86709285Y-57221428D01*
X86709285Y-56983333D01*
X86756904Y-56792857D01*
X86804523Y-56697619D01*
X86852142Y-56650000D01*
X86947380Y-56602380D01*
D11*
X99488571Y-69385571D02*
X98631428Y-69385571D01*
X99060000Y-69385571D02*
X99060000Y-67885571D01*
X98917142Y-68099857D01*
X98774285Y-68242714D01*
X98631428Y-68314142D01*
D12*
G36*
X159575500Y-98679000D02*
X160591500Y-97663000D01*
X160591500Y-98361500D01*
X162115500Y-98361500D01*
X162115500Y-98996500D01*
X160591500Y-98996500D01*
X160591500Y-99695000D01*
X159575500Y-98679000D01*
G37*
X159575500Y-98679000D02*
X160591500Y-97663000D01*
X160591500Y-98361500D01*
X162115500Y-98361500D01*
X162115500Y-98996500D01*
X160591500Y-98996500D01*
X160591500Y-99695000D01*
X159575500Y-98679000D01*
G36*
X168783000Y-80264000D02*
X169799000Y-79248000D01*
X169799000Y-79946500D01*
X171323000Y-79946500D01*
X171323000Y-80581500D01*
X169799000Y-80581500D01*
X169799000Y-81280000D01*
X168783000Y-80264000D01*
G37*
X168783000Y-80264000D02*
X169799000Y-79248000D01*
X169799000Y-79946500D01*
X171323000Y-79946500D01*
X171323000Y-80581500D01*
X169799000Y-80581500D01*
X169799000Y-81280000D01*
X168783000Y-80264000D01*
D13*
X109236738Y-98946976D02*
X109951023Y-98946976D01*
X109593880Y-100196976D02*
X109593880Y-98946976D01*
X110843880Y-100137452D02*
X110724833Y-100196976D01*
X110486738Y-100196976D01*
X110367690Y-100137452D01*
X110308166Y-100018404D01*
X110308166Y-99542214D01*
X110367690Y-99423166D01*
X110486738Y-99363642D01*
X110724833Y-99363642D01*
X110843880Y-99423166D01*
X110903404Y-99542214D01*
X110903404Y-99661261D01*
X110308166Y-99780309D01*
X111379595Y-100137452D02*
X111498642Y-100196976D01*
X111736738Y-100196976D01*
X111855785Y-100137452D01*
X111915309Y-100018404D01*
X111915309Y-99958880D01*
X111855785Y-99839833D01*
X111736738Y-99780309D01*
X111558166Y-99780309D01*
X111439119Y-99720785D01*
X111379595Y-99601738D01*
X111379595Y-99542214D01*
X111439119Y-99423166D01*
X111558166Y-99363642D01*
X111736738Y-99363642D01*
X111855785Y-99423166D01*
X112272452Y-99363642D02*
X112748642Y-99363642D01*
X112451023Y-98946976D02*
X112451023Y-100018404D01*
X112510547Y-100137452D01*
X112629595Y-100196976D01*
X112748642Y-100196976D01*
X113165309Y-100196976D02*
X113165309Y-99363642D01*
X113165309Y-98946976D02*
X113105785Y-99006500D01*
X113165309Y-99066023D01*
X113224833Y-99006500D01*
X113165309Y-98946976D01*
X113165309Y-99066023D01*
X113760547Y-99363642D02*
X113760547Y-100196976D01*
X113760547Y-99482690D02*
X113820071Y-99423166D01*
X113939119Y-99363642D01*
X114117690Y-99363642D01*
X114236738Y-99423166D01*
X114296261Y-99542214D01*
X114296261Y-100196976D01*
X115427214Y-99363642D02*
X115427214Y-100375547D01*
X115367690Y-100494595D01*
X115308166Y-100554119D01*
X115189119Y-100613642D01*
X115010547Y-100613642D01*
X114891500Y-100554119D01*
X115427214Y-100137452D02*
X115308166Y-100196976D01*
X115070071Y-100196976D01*
X114951023Y-100137452D01*
X114891500Y-100077928D01*
X114831976Y-99958880D01*
X114831976Y-99601738D01*
X114891500Y-99482690D01*
X114951023Y-99423166D01*
X115070071Y-99363642D01*
X115308166Y-99363642D01*
X115427214Y-99423166D01*
X116974833Y-100196976D02*
X116974833Y-98946976D01*
X116974833Y-99542214D02*
X117689119Y-99542214D01*
X117689119Y-100196976D02*
X117689119Y-98946976D01*
X118760547Y-100137452D02*
X118641500Y-100196976D01*
X118403404Y-100196976D01*
X118284357Y-100137452D01*
X118224833Y-100018404D01*
X118224833Y-99542214D01*
X118284357Y-99423166D01*
X118403404Y-99363642D01*
X118641500Y-99363642D01*
X118760547Y-99423166D01*
X118820071Y-99542214D01*
X118820071Y-99661261D01*
X118224833Y-99780309D01*
X119891500Y-100196976D02*
X119891500Y-99542214D01*
X119831976Y-99423166D01*
X119712928Y-99363642D01*
X119474833Y-99363642D01*
X119355785Y-99423166D01*
X119891500Y-100137452D02*
X119772452Y-100196976D01*
X119474833Y-100196976D01*
X119355785Y-100137452D01*
X119296261Y-100018404D01*
X119296261Y-99899357D01*
X119355785Y-99780309D01*
X119474833Y-99720785D01*
X119772452Y-99720785D01*
X119891500Y-99661261D01*
X121022452Y-100196976D02*
X121022452Y-98946976D01*
X121022452Y-100137452D02*
X120903404Y-100196976D01*
X120665309Y-100196976D01*
X120546261Y-100137452D01*
X120486738Y-100077928D01*
X120427214Y-99958880D01*
X120427214Y-99601738D01*
X120486738Y-99482690D01*
X120546261Y-99423166D01*
X120665309Y-99363642D01*
X120903404Y-99363642D01*
X121022452Y-99423166D01*
X122093880Y-100137452D02*
X121974833Y-100196976D01*
X121736738Y-100196976D01*
X121617690Y-100137452D01*
X121558166Y-100018404D01*
X121558166Y-99542214D01*
X121617690Y-99423166D01*
X121736738Y-99363642D01*
X121974833Y-99363642D01*
X122093880Y-99423166D01*
X122153404Y-99542214D01*
X122153404Y-99661261D01*
X121558166Y-99780309D01*
X122689119Y-100196976D02*
X122689119Y-99363642D01*
X122689119Y-99601738D02*
X122748642Y-99482690D01*
X122808166Y-99423166D01*
X122927214Y-99363642D01*
X123046261Y-99363642D01*
D14*
X107673238Y-101286500D02*
X107625619Y-101262690D01*
X107554190Y-101262690D01*
X107482761Y-101286500D01*
X107435142Y-101334119D01*
X107411333Y-101381738D01*
X107387523Y-101476976D01*
X107387523Y-101548404D01*
X107411333Y-101643642D01*
X107435142Y-101691261D01*
X107482761Y-101738880D01*
X107554190Y-101762690D01*
X107601809Y-101762690D01*
X107673238Y-101738880D01*
X107697047Y-101715071D01*
X107697047Y-101548404D01*
X107601809Y-101548404D01*
X107911333Y-101762690D02*
X107911333Y-101262690D01*
X108197047Y-101762690D01*
X108197047Y-101262690D01*
X108435142Y-101762690D02*
X108435142Y-101262690D01*
X108554190Y-101262690D01*
X108625619Y-101286500D01*
X108673238Y-101334119D01*
X108697047Y-101381738D01*
X108720857Y-101476976D01*
X108720857Y-101548404D01*
X108697047Y-101643642D01*
X108673238Y-101691261D01*
X108625619Y-101738880D01*
X108554190Y-101762690D01*
X108435142Y-101762690D01*
X109435142Y-101929357D02*
X109435142Y-101215071D01*
X110458952Y-101715071D02*
X110435142Y-101738880D01*
X110363714Y-101762690D01*
X110316095Y-101762690D01*
X110244666Y-101738880D01*
X110197047Y-101691261D01*
X110173238Y-101643642D01*
X110149428Y-101548404D01*
X110149428Y-101476976D01*
X110173238Y-101381738D01*
X110197047Y-101334119D01*
X110244666Y-101286500D01*
X110316095Y-101262690D01*
X110363714Y-101262690D01*
X110435142Y-101286500D01*
X110458952Y-101310309D01*
X110673238Y-101762690D02*
X110673238Y-101262690D01*
X110673238Y-101500785D02*
X110958952Y-101500785D01*
X110958952Y-101762690D02*
X110958952Y-101262690D01*
X111292285Y-101262690D02*
X111339904Y-101262690D01*
X111387523Y-101286500D01*
X111411333Y-101310309D01*
X111435142Y-101357928D01*
X111458952Y-101453166D01*
X111458952Y-101572214D01*
X111435142Y-101667452D01*
X111411333Y-101715071D01*
X111387523Y-101738880D01*
X111339904Y-101762690D01*
X111292285Y-101762690D01*
X111244666Y-101738880D01*
X111220857Y-101715071D01*
X111197047Y-101667452D01*
X111173238Y-101572214D01*
X111173238Y-101453166D01*
X111197047Y-101357928D01*
X111220857Y-101310309D01*
X111244666Y-101286500D01*
X111292285Y-101262690D01*
X111673238Y-101572214D02*
X112054190Y-101572214D01*
X111863714Y-101762690D02*
X111863714Y-101381738D01*
X112792285Y-101929357D02*
X112792285Y-101215071D01*
X113816095Y-101715071D02*
X113792285Y-101738880D01*
X113720857Y-101762690D01*
X113673238Y-101762690D01*
X113601809Y-101738880D01*
X113554190Y-101691261D01*
X113530380Y-101643642D01*
X113506571Y-101548404D01*
X113506571Y-101476976D01*
X113530380Y-101381738D01*
X113554190Y-101334119D01*
X113601809Y-101286500D01*
X113673238Y-101262690D01*
X113720857Y-101262690D01*
X113792285Y-101286500D01*
X113816095Y-101310309D01*
X114030380Y-101762690D02*
X114030380Y-101262690D01*
X114030380Y-101500785D02*
X114316095Y-101500785D01*
X114316095Y-101762690D02*
X114316095Y-101262690D01*
X114816095Y-101762690D02*
X114530380Y-101762690D01*
X114673238Y-101762690D02*
X114673238Y-101262690D01*
X114625619Y-101334119D01*
X114578000Y-101381738D01*
X114530380Y-101405547D01*
X115030380Y-101572214D02*
X115411333Y-101572214D01*
X116149428Y-101929357D02*
X116149428Y-101215071D01*
X116887523Y-101762690D02*
X116887523Y-101262690D01*
X116887523Y-101500785D02*
X117173238Y-101500785D01*
X117173238Y-101762690D02*
X117173238Y-101262690D01*
X117578000Y-101500785D02*
X117411333Y-101500785D01*
X117411333Y-101762690D02*
X117411333Y-101262690D01*
X117649428Y-101262690D01*
X118339904Y-101929357D02*
X118339904Y-101215071D01*
X119244666Y-101500785D02*
X119078000Y-101500785D01*
X119078000Y-101762690D02*
X119078000Y-101262690D01*
X119316095Y-101262690D01*
X119601809Y-101262690D02*
X119697047Y-101262690D01*
X119744666Y-101286500D01*
X119792285Y-101334119D01*
X119816095Y-101429357D01*
X119816095Y-101596023D01*
X119792285Y-101691261D01*
X119744666Y-101738880D01*
X119697047Y-101762690D01*
X119601809Y-101762690D01*
X119554190Y-101738880D01*
X119506571Y-101691261D01*
X119482761Y-101596023D01*
X119482761Y-101429357D01*
X119506571Y-101334119D01*
X119554190Y-101286500D01*
X119601809Y-101262690D01*
X120030380Y-101262690D02*
X120030380Y-101667452D01*
X120054190Y-101715071D01*
X120078000Y-101738880D01*
X120125619Y-101762690D01*
X120220857Y-101762690D01*
X120268476Y-101738880D01*
X120292285Y-101715071D01*
X120316095Y-101667452D01*
X120316095Y-101262690D01*
X120482761Y-101262690D02*
X120768476Y-101262690D01*
X120625619Y-101762690D02*
X120625619Y-101262690D01*
X121197047Y-101762690D02*
X120911333Y-101762690D01*
X121054190Y-101762690D02*
X121054190Y-101262690D01*
X121006571Y-101334119D01*
X120958952Y-101381738D01*
X120911333Y-101405547D01*
X121911333Y-101929357D02*
X121911333Y-101215071D01*
X122816095Y-101500785D02*
X122649428Y-101500785D01*
X122649428Y-101762690D02*
X122649428Y-101262690D01*
X122887523Y-101262690D01*
X123173238Y-101262690D02*
X123268476Y-101262690D01*
X123316095Y-101286500D01*
X123363714Y-101334119D01*
X123387523Y-101429357D01*
X123387523Y-101596023D01*
X123363714Y-101691261D01*
X123316095Y-101738880D01*
X123268476Y-101762690D01*
X123173238Y-101762690D01*
X123125619Y-101738880D01*
X123078000Y-101691261D01*
X123054190Y-101596023D01*
X123054190Y-101429357D01*
X123078000Y-101334119D01*
X123125619Y-101286500D01*
X123173238Y-101262690D01*
X123601809Y-101262690D02*
X123601809Y-101667452D01*
X123625619Y-101715071D01*
X123649428Y-101738880D01*
X123697047Y-101762690D01*
X123792285Y-101762690D01*
X123839904Y-101738880D01*
X123863714Y-101715071D01*
X123887523Y-101667452D01*
X123887523Y-101262690D01*
X124054190Y-101262690D02*
X124339904Y-101262690D01*
X124197047Y-101762690D02*
X124197047Y-101262690D01*
X124601809Y-101262690D02*
X124649428Y-101262690D01*
X124697047Y-101286500D01*
X124720857Y-101310309D01*
X124744666Y-101357928D01*
X124768476Y-101453166D01*
X124768476Y-101572214D01*
X124744666Y-101667452D01*
X124720857Y-101715071D01*
X124697047Y-101738880D01*
X124649428Y-101762690D01*
X124601809Y-101762690D01*
X124554190Y-101738880D01*
X124530380Y-101715071D01*
X124506571Y-101667452D01*
X124482761Y-101572214D01*
X124482761Y-101453166D01*
X124506571Y-101357928D01*
X124530380Y-101310309D01*
X124554190Y-101286500D01*
X124601809Y-101262690D01*
D11*
X161143071Y-96591071D02*
X159643071Y-96591071D01*
X159643071Y-96019642D01*
X159714500Y-95876785D01*
X159785928Y-95805357D01*
X159928785Y-95733928D01*
X160143071Y-95733928D01*
X160285928Y-95805357D01*
X160357357Y-95876785D01*
X160428785Y-96019642D01*
X160428785Y-96591071D01*
X161143071Y-95091071D02*
X160143071Y-95091071D01*
X159643071Y-95091071D02*
X159714500Y-95162500D01*
X159785928Y-95091071D01*
X159714500Y-95019642D01*
X159643071Y-95091071D01*
X159785928Y-95091071D01*
X161071642Y-93733928D02*
X161143071Y-93876785D01*
X161143071Y-94162500D01*
X161071642Y-94305357D01*
X161000214Y-94376785D01*
X160857357Y-94448214D01*
X160428785Y-94448214D01*
X160285928Y-94376785D01*
X160214500Y-94305357D01*
X160143071Y-94162500D01*
X160143071Y-93876785D01*
X160214500Y-93733928D01*
X161143071Y-93091071D02*
X159643071Y-93091071D01*
X161143071Y-92233928D02*
X160285928Y-92876785D01*
X159643071Y-92233928D02*
X160500214Y-93091071D01*
X161143071Y-91591071D02*
X160143071Y-91591071D01*
X159643071Y-91591071D02*
X159714500Y-91662500D01*
X159785928Y-91591071D01*
X159714500Y-91519642D01*
X159643071Y-91591071D01*
X159785928Y-91591071D01*
X160143071Y-91091071D02*
X160143071Y-90519642D01*
X159643071Y-90876785D02*
X160928785Y-90876785D01*
X161071642Y-90805357D01*
X161143071Y-90662500D01*
X161143071Y-90519642D01*
X159484142Y-74179714D02*
X159555571Y-73965428D01*
X159555571Y-73608285D01*
X159484142Y-73465428D01*
X159412714Y-73394000D01*
X159269857Y-73322571D01*
X159127000Y-73322571D01*
X158984142Y-73394000D01*
X158912714Y-73465428D01*
X158841285Y-73608285D01*
X158769857Y-73894000D01*
X158698428Y-74036857D01*
X158627000Y-74108285D01*
X158484142Y-74179714D01*
X158341285Y-74179714D01*
X158198428Y-74108285D01*
X158127000Y-74036857D01*
X158055571Y-73894000D01*
X158055571Y-73536857D01*
X158127000Y-73322571D01*
X159555571Y-72679714D02*
X158055571Y-72679714D01*
X158055571Y-72108285D01*
X158127000Y-71965428D01*
X158198428Y-71894000D01*
X158341285Y-71822571D01*
X158555571Y-71822571D01*
X158698428Y-71894000D01*
X158769857Y-71965428D01*
X158841285Y-72108285D01*
X158841285Y-72679714D01*
X159555571Y-71179714D02*
X158055571Y-71179714D01*
D13*
X107532500Y-75229000D02*
X106008500Y-75229000D01*
X104532500Y-75229000D02*
X103008500Y-75229000D01*
X101532500Y-75229000D02*
X100008500Y-75229000D01*
X98532500Y-75229000D02*
X97008500Y-75229000D01*
X95532500Y-75229000D02*
X94008500Y-75229000D01*
X92532500Y-75229000D02*
X91008500Y-75229000D01*
X89532500Y-75229000D02*
X88008500Y-75229000D01*
X86532500Y-75229000D02*
X85008500Y-75229000D01*
X83532500Y-75229000D02*
X82008500Y-75229000D01*
X80532500Y-75229000D02*
X79008500Y-75229000D01*
X77532500Y-75229000D02*
X76008500Y-75229000D01*
X74532500Y-75229000D02*
X73008500Y-75229000D01*
X71532500Y-75229000D02*
X70008500Y-75229000D01*
X68532500Y-75229000D02*
X67008500Y-75229000D01*
X65532500Y-75229000D02*
X64008500Y-75229000D01*
X107569000Y-75229000D02*
X107569000Y-73705000D01*
X107569000Y-72229000D02*
X107569000Y-70705000D01*
X107569000Y-69229000D02*
X107569000Y-67705000D01*
X107569000Y-66229000D02*
X107569000Y-64705000D01*
X107569000Y-63229000D02*
X107569000Y-61705000D01*
X107569000Y-60229000D02*
X107569000Y-58705000D01*
X107569000Y-57229000D02*
X107569000Y-55705000D01*
D11*
X69639571Y-73480214D02*
X68139571Y-73480214D01*
X68853857Y-73480214D02*
X68853857Y-72623071D01*
X69639571Y-72623071D02*
X68139571Y-72623071D01*
X69639571Y-71908785D02*
X68139571Y-71908785D01*
X68211000Y-70408785D02*
X68139571Y-70551642D01*
X68139571Y-70765928D01*
X68211000Y-70980214D01*
X68353857Y-71123071D01*
X68496714Y-71194500D01*
X68782428Y-71265928D01*
X68996714Y-71265928D01*
X69282428Y-71194500D01*
X69425285Y-71123071D01*
X69568142Y-70980214D01*
X69639571Y-70765928D01*
X69639571Y-70623071D01*
X69568142Y-70408785D01*
X69496714Y-70337357D01*
X68996714Y-70337357D01*
X68996714Y-70623071D01*
X69639571Y-69694500D02*
X68139571Y-69694500D01*
X68853857Y-69694500D02*
X68853857Y-68837357D01*
X69639571Y-68837357D02*
X68139571Y-68837357D01*
X69211000Y-67051642D02*
X69211000Y-66337357D01*
X69639571Y-67194500D02*
X68139571Y-66694500D01*
X69639571Y-66194500D01*
X69496714Y-64837357D02*
X69568142Y-64908785D01*
X69639571Y-65123071D01*
X69639571Y-65265928D01*
X69568142Y-65480214D01*
X69425285Y-65623071D01*
X69282428Y-65694500D01*
X68996714Y-65765928D01*
X68782428Y-65765928D01*
X68496714Y-65694500D01*
X68353857Y-65623071D01*
X68211000Y-65480214D01*
X68139571Y-65265928D01*
X68139571Y-65123071D01*
X68211000Y-64908785D01*
X68282428Y-64837357D01*
X68139571Y-63265928D02*
X69639571Y-62765928D01*
X68139571Y-62265928D01*
X68139571Y-61480214D02*
X68139571Y-61194500D01*
X68211000Y-61051642D01*
X68353857Y-60908785D01*
X68639571Y-60837357D01*
X69139571Y-60837357D01*
X69425285Y-60908785D01*
X69568142Y-61051642D01*
X69639571Y-61194500D01*
X69639571Y-61480214D01*
X69568142Y-61623071D01*
X69425285Y-61765928D01*
X69139571Y-61837357D01*
X68639571Y-61837357D01*
X68353857Y-61765928D01*
X68211000Y-61623071D01*
X68139571Y-61480214D01*
X69639571Y-59480214D02*
X69639571Y-60194500D01*
X68139571Y-60194500D01*
X68139571Y-59194500D02*
X68139571Y-58337357D01*
X69639571Y-58765928D02*
X68139571Y-58765928D01*
X69211000Y-57908785D02*
X69211000Y-57194500D01*
X69639571Y-58051642D02*
X68139571Y-57551642D01*
X69639571Y-57051642D01*
X68211000Y-55765928D02*
X68139571Y-55908785D01*
X68139571Y-56123071D01*
X68211000Y-56337357D01*
X68353857Y-56480214D01*
X68496714Y-56551642D01*
X68782428Y-56623071D01*
X68996714Y-56623071D01*
X69282428Y-56551642D01*
X69425285Y-56480214D01*
X69568142Y-56337357D01*
X69639571Y-56123071D01*
X69639571Y-55980214D01*
X69568142Y-55765928D01*
X69496714Y-55694500D01*
X68996714Y-55694500D01*
X68996714Y-55980214D01*
X68853857Y-55051642D02*
X68853857Y-54551642D01*
X69639571Y-54337357D02*
X69639571Y-55051642D01*
X68139571Y-55051642D01*
X68139571Y-54337357D01*
X64964571Y-68761928D02*
X66464571Y-68404785D01*
X65393142Y-68119071D01*
X66464571Y-67833357D01*
X64964571Y-67476214D01*
X66036000Y-66976214D02*
X66036000Y-66261928D01*
X66464571Y-67119071D02*
X64964571Y-66619071D01*
X66464571Y-66119071D01*
X66464571Y-64761928D02*
X65750285Y-65261928D01*
X66464571Y-65619071D02*
X64964571Y-65619071D01*
X64964571Y-65047642D01*
X65036000Y-64904785D01*
X65107428Y-64833357D01*
X65250285Y-64761928D01*
X65464571Y-64761928D01*
X65607428Y-64833357D01*
X65678857Y-64904785D01*
X65750285Y-65047642D01*
X65750285Y-65619071D01*
X66464571Y-64119071D02*
X64964571Y-64119071D01*
X66464571Y-63261928D01*
X64964571Y-63261928D01*
X66464571Y-62547642D02*
X64964571Y-62547642D01*
X66464571Y-61833357D02*
X64964571Y-61833357D01*
X66464571Y-60976214D01*
X64964571Y-60976214D01*
X65036000Y-59476214D02*
X64964571Y-59619071D01*
X64964571Y-59833357D01*
X65036000Y-60047642D01*
X65178857Y-60190500D01*
X65321714Y-60261928D01*
X65607428Y-60333357D01*
X65821714Y-60333357D01*
X66107428Y-60261928D01*
X66250285Y-60190500D01*
X66393142Y-60047642D01*
X66464571Y-59833357D01*
X66464571Y-59690500D01*
X66393142Y-59476214D01*
X66321714Y-59404785D01*
X65821714Y-59404785D01*
X65821714Y-59690500D01*
X66321714Y-58761928D02*
X66393142Y-58690500D01*
X66464571Y-58761928D01*
X66393142Y-58833357D01*
X66321714Y-58761928D01*
X66464571Y-58761928D01*
X65536000Y-58761928D02*
X65607428Y-58690500D01*
X65678857Y-58761928D01*
X65607428Y-58833357D01*
X65536000Y-58761928D01*
X65678857Y-58761928D01*
D13*
X107569000Y-54229000D02*
X107569000Y-52705000D01*
D15*
X147172666Y-57116166D02*
X147172666Y-55366166D01*
X147839333Y-55366166D01*
X148006000Y-55449500D01*
X148089333Y-55532833D01*
X148172666Y-55699500D01*
X148172666Y-55949500D01*
X148089333Y-56116166D01*
X148006000Y-56199500D01*
X147839333Y-56282833D01*
X147172666Y-56282833D01*
X149172666Y-57116166D02*
X149006000Y-57032833D01*
X148922666Y-56949500D01*
X148839333Y-56782833D01*
X148839333Y-56282833D01*
X148922666Y-56116166D01*
X149006000Y-56032833D01*
X149172666Y-55949500D01*
X149422666Y-55949500D01*
X149589333Y-56032833D01*
X149672666Y-56116166D01*
X149756000Y-56282833D01*
X149756000Y-56782833D01*
X149672666Y-56949500D01*
X149589333Y-57032833D01*
X149422666Y-57116166D01*
X149172666Y-57116166D01*
X150339333Y-55949500D02*
X150672666Y-57116166D01*
X151006000Y-56282833D01*
X151339333Y-57116166D01*
X151672666Y-55949500D01*
X153006000Y-57032833D02*
X152839333Y-57116166D01*
X152506000Y-57116166D01*
X152339333Y-57032833D01*
X152256000Y-56866166D01*
X152256000Y-56199500D01*
X152339333Y-56032833D01*
X152506000Y-55949500D01*
X152839333Y-55949500D01*
X153006000Y-56032833D01*
X153089333Y-56199500D01*
X153089333Y-56366166D01*
X152256000Y-56532833D01*
X153839333Y-57116166D02*
X153839333Y-55949500D01*
X153839333Y-56282833D02*
X153922666Y-56116166D01*
X154006000Y-56032833D01*
X154172666Y-55949500D01*
X154339333Y-55949500D01*
X156172666Y-57032833D02*
X156422666Y-57116166D01*
X156839333Y-57116166D01*
X157006000Y-57032833D01*
X157089333Y-56949500D01*
X157172666Y-56782833D01*
X157172666Y-56616166D01*
X157089333Y-56449500D01*
X157006000Y-56366166D01*
X156839333Y-56282833D01*
X156506000Y-56199500D01*
X156339333Y-56116166D01*
X156256000Y-56032833D01*
X156172666Y-55866166D01*
X156172666Y-55699500D01*
X156256000Y-55532833D01*
X156339333Y-55449500D01*
X156506000Y-55366166D01*
X156922666Y-55366166D01*
X157172666Y-55449500D01*
X158589333Y-57032833D02*
X158422666Y-57116166D01*
X158089333Y-57116166D01*
X157922666Y-57032833D01*
X157839333Y-56866166D01*
X157839333Y-56199500D01*
X157922666Y-56032833D01*
X158089333Y-55949500D01*
X158422666Y-55949500D01*
X158589333Y-56032833D01*
X158672666Y-56199500D01*
X158672666Y-56366166D01*
X157839333Y-56532833D01*
X159422666Y-55949500D02*
X159422666Y-57116166D01*
X159422666Y-56116166D02*
X159506000Y-56032833D01*
X159672666Y-55949500D01*
X159922666Y-55949500D01*
X160089333Y-56032833D01*
X160172666Y-56199500D01*
X160172666Y-57116166D01*
X160922666Y-57032833D02*
X161089333Y-57116166D01*
X161422666Y-57116166D01*
X161589333Y-57032833D01*
X161672666Y-56866166D01*
X161672666Y-56782833D01*
X161589333Y-56616166D01*
X161422666Y-56532833D01*
X161172666Y-56532833D01*
X161006000Y-56449500D01*
X160922666Y-56282833D01*
X160922666Y-56199500D01*
X161006000Y-56032833D01*
X161172666Y-55949500D01*
X161422666Y-55949500D01*
X161589333Y-56032833D01*
X163089333Y-57032833D02*
X162922666Y-57116166D01*
X162589333Y-57116166D01*
X162422666Y-57032833D01*
X162339333Y-56866166D01*
X162339333Y-56199500D01*
X162422666Y-56032833D01*
X162589333Y-55949500D01*
X162922666Y-55949500D01*
X163089333Y-56032833D01*
X163172666Y-56199500D01*
X163172666Y-56366166D01*
X162339333Y-56532833D01*
X165089333Y-55366166D02*
X166172666Y-55366166D01*
X165589333Y-56032833D01*
X165839333Y-56032833D01*
X166006000Y-56116166D01*
X166089333Y-56199500D01*
X166172666Y-56366166D01*
X166172666Y-56782833D01*
X166089333Y-56949500D01*
X166006000Y-57032833D01*
X165839333Y-57116166D01*
X165339333Y-57116166D01*
X165172666Y-57032833D01*
X165089333Y-56949500D01*
X166922666Y-56949500D02*
X167006000Y-57032833D01*
X166922666Y-57116166D01*
X166839333Y-57032833D01*
X166922666Y-56949500D01*
X166922666Y-57116166D01*
X168672666Y-57116166D02*
X167672666Y-57116166D01*
X168172666Y-57116166D02*
X168172666Y-55366166D01*
X168006000Y-55616166D01*
X167839333Y-55782833D01*
X167672666Y-55866166D01*
X169422666Y-56949500D02*
X169506000Y-57032833D01*
X169422666Y-57116166D01*
X169339333Y-57032833D01*
X169422666Y-56949500D01*
X169422666Y-57116166D01*
X170172666Y-55532833D02*
X170256000Y-55449500D01*
X170422666Y-55366166D01*
X170839333Y-55366166D01*
X171006000Y-55449500D01*
X171089333Y-55532833D01*
X171172666Y-55699500D01*
X171172666Y-55866166D01*
X171089333Y-56116166D01*
X170089333Y-57116166D01*
X171172666Y-57116166D01*
D13*
X72159880Y-57594380D02*
X73159880Y-57261047D01*
X72159880Y-56927714D01*
X72778928Y-56594380D02*
X72778928Y-55832476D01*
X72032880Y-60515380D02*
X73032880Y-60182047D01*
X72032880Y-59848714D01*
X72651928Y-59515380D02*
X72651928Y-58753476D01*
X73032880Y-59134428D02*
X72270976Y-59134428D01*
X150114000Y-75438000D02*
X150114000Y-75946000D01*
X149352000Y-75438000D02*
X150876000Y-75438000D01*
X150749000Y-74803000D02*
X149479000Y-74803000D01*
X150749000Y-75184000D02*
X150749000Y-74803000D01*
X149479000Y-75184000D02*
X150749000Y-75184000D01*
X149479000Y-74803000D02*
X149479000Y-75184000D01*
X149352000Y-74549000D02*
X150876000Y-74549000D01*
X150114000Y-73914000D02*
X150114000Y-74549000D01*
X167030452Y-80752904D02*
X167030452Y-79952904D01*
X167411404Y-80752904D02*
X167411404Y-79952904D01*
X167868547Y-80752904D01*
X167868547Y-79952904D01*
X167221000Y-77412904D02*
X167373380Y-77412904D01*
X167449571Y-77451000D01*
X167525761Y-77527190D01*
X167563857Y-77679571D01*
X167563857Y-77946238D01*
X167525761Y-78098619D01*
X167449571Y-78174809D01*
X167373380Y-78212904D01*
X167221000Y-78212904D01*
X167144809Y-78174809D01*
X167068619Y-78098619D01*
X167030523Y-77946238D01*
X167030523Y-77679571D01*
X167068619Y-77527190D01*
X167144809Y-77451000D01*
X167221000Y-77412904D01*
X167906714Y-77412904D02*
X167906714Y-78060523D01*
X167944809Y-78136714D01*
X167982904Y-78174809D01*
X168059095Y-78212904D01*
X168211476Y-78212904D01*
X168287666Y-78174809D01*
X168325761Y-78136714D01*
X168363857Y-78060523D01*
X168363857Y-77412904D01*
X168630523Y-77412904D02*
X169087666Y-77412904D01*
X168859095Y-78212904D02*
X168859095Y-77412904D01*
X167544809Y-75469714D02*
X167506714Y-75507809D01*
X167392428Y-75545904D01*
X167316238Y-75545904D01*
X167201952Y-75507809D01*
X167125761Y-75431619D01*
X167087666Y-75355428D01*
X167049571Y-75203047D01*
X167049571Y-75088761D01*
X167087666Y-74936380D01*
X167125761Y-74860190D01*
X167201952Y-74784000D01*
X167316238Y-74745904D01*
X167392428Y-74745904D01*
X167506714Y-74784000D01*
X167544809Y-74822095D01*
X168268619Y-75545904D02*
X167887666Y-75545904D01*
X167887666Y-74745904D01*
X168535285Y-75545904D02*
X168535285Y-74745904D01*
X168992428Y-75545904D02*
X168649571Y-75088761D01*
X168992428Y-74745904D02*
X168535285Y-75203047D01*
X167506714Y-73056714D02*
X167468619Y-73094809D01*
X167354333Y-73132904D01*
X167278142Y-73132904D01*
X167163857Y-73094809D01*
X167087666Y-73018619D01*
X167049571Y-72942428D01*
X167011476Y-72790047D01*
X167011476Y-72675761D01*
X167049571Y-72523380D01*
X167087666Y-72447190D01*
X167163857Y-72371000D01*
X167278142Y-72332904D01*
X167354333Y-72332904D01*
X167468619Y-72371000D01*
X167506714Y-72409095D01*
X167849571Y-73056714D02*
X167887666Y-73094809D01*
X167849571Y-73132904D01*
X167811476Y-73094809D01*
X167849571Y-73056714D01*
X167849571Y-73132904D01*
X168192428Y-73094809D02*
X168306714Y-73132904D01*
X168497190Y-73132904D01*
X168573380Y-73094809D01*
X168611476Y-73056714D01*
X168649571Y-72980523D01*
X168649571Y-72904333D01*
X168611476Y-72828142D01*
X168573380Y-72790047D01*
X168497190Y-72751952D01*
X168344809Y-72713857D01*
X168268619Y-72675761D01*
X168230523Y-72637666D01*
X168192428Y-72561476D01*
X168192428Y-72485285D01*
X168230523Y-72409095D01*
X168268619Y-72371000D01*
X168344809Y-72332904D01*
X168535285Y-72332904D01*
X168649571Y-72371000D01*
X168992428Y-73056714D02*
X169030523Y-73094809D01*
X168992428Y-73132904D01*
X168954333Y-73094809D01*
X168992428Y-73056714D01*
X168992428Y-73132904D01*
X166611428Y-68891142D02*
X167220952Y-68891142D01*
X166916190Y-69195904D02*
X166916190Y-68586380D01*
X167982857Y-68395904D02*
X167601904Y-68395904D01*
X167563809Y-68776857D01*
X167601904Y-68738761D01*
X167678095Y-68700666D01*
X167868571Y-68700666D01*
X167944761Y-68738761D01*
X167982857Y-68776857D01*
X168020952Y-68853047D01*
X168020952Y-69043523D01*
X167982857Y-69119714D01*
X167944761Y-69157809D01*
X167868571Y-69195904D01*
X167678095Y-69195904D01*
X167601904Y-69157809D01*
X167563809Y-69119714D01*
X168249523Y-68395904D02*
X168516190Y-69195904D01*
X168782857Y-68395904D01*
X167157476Y-67164000D02*
X167081285Y-67125904D01*
X166967000Y-67125904D01*
X166852714Y-67164000D01*
X166776523Y-67240190D01*
X166738428Y-67316380D01*
X166700333Y-67468761D01*
X166700333Y-67583047D01*
X166738428Y-67735428D01*
X166776523Y-67811619D01*
X166852714Y-67887809D01*
X166967000Y-67925904D01*
X167043190Y-67925904D01*
X167157476Y-67887809D01*
X167195571Y-67849714D01*
X167195571Y-67583047D01*
X167043190Y-67583047D01*
X167538428Y-67925904D02*
X167538428Y-67125904D01*
X167995571Y-67925904D01*
X167995571Y-67125904D01*
X168376523Y-67925904D02*
X168376523Y-67125904D01*
X168567000Y-67125904D01*
X168681285Y-67164000D01*
X168757476Y-67240190D01*
X168795571Y-67316380D01*
X168833666Y-67468761D01*
X168833666Y-67583047D01*
X168795571Y-67735428D01*
X168757476Y-67811619D01*
X168681285Y-67887809D01*
X168567000Y-67925904D01*
X168376523Y-67925904D01*
X166738476Y-65081142D02*
X167348000Y-65081142D01*
X167043238Y-65385904D02*
X167043238Y-64776380D01*
X168148000Y-65385904D02*
X167690857Y-65385904D01*
X167919428Y-65385904D02*
X167919428Y-64585904D01*
X167843238Y-64700190D01*
X167767047Y-64776380D01*
X167690857Y-64814476D01*
X168452761Y-64662095D02*
X168490857Y-64624000D01*
X168567047Y-64585904D01*
X168757523Y-64585904D01*
X168833714Y-64624000D01*
X168871809Y-64662095D01*
X168909904Y-64738285D01*
X168909904Y-64814476D01*
X168871809Y-64928761D01*
X168414666Y-65385904D01*
X168909904Y-65385904D01*
X169138476Y-64585904D02*
X169405142Y-65385904D01*
X169671809Y-64585904D01*
X79832200Y-55638700D02*
X73736200Y-55638700D01*
X79006700Y-60020200D02*
X79006700Y-56400700D01*
X79832200Y-60782200D02*
X79832200Y-55638700D01*
X73736200Y-60782200D02*
X79832200Y-60782200D01*
X73736200Y-55638700D02*
X73736200Y-60782200D01*
X160845500Y-64960500D02*
X160845500Y-80264000D01*
X166370000Y-63754000D02*
X166370000Y-81534000D01*
X160274000Y-63754000D02*
X166370000Y-63754000D01*
X160274000Y-81534000D02*
X160274000Y-63754000D01*
X166370000Y-81534000D02*
X160274000Y-81534000D01*
D12*
G04 #@! TO.C,T2*
X73152000Y-100203000D02*
X103632000Y-100203000D01*
X103632000Y-100203000D02*
X103632000Y-62103000D01*
X103632000Y-62103000D02*
X73152000Y-62103000D01*
X73152000Y-62103000D02*
X73152000Y-100203000D01*
D10*
G04 #@! TO.C,C1*
X124107000Y-78077000D02*
X124107000Y-76903000D01*
X125829000Y-78077000D02*
X125829000Y-76903000D01*
G04 #@! TO.C,C2*
X125702000Y-71783000D02*
X125702000Y-72957000D01*
X123980000Y-71783000D02*
X123980000Y-72957000D01*
G04 #@! TO.C,C3*
X123980000Y-68131000D02*
X123980000Y-66957000D01*
X125702000Y-68131000D02*
X125702000Y-66957000D01*
G04 #@! TO.C,C4*
X116558000Y-59535000D02*
X115384000Y-59535000D01*
X116558000Y-57813000D02*
X115384000Y-57813000D01*
G04 #@! TO.C,C5*
X132306000Y-67251000D02*
X132306000Y-68425000D01*
X130584000Y-67251000D02*
X130584000Y-68425000D01*
G04 #@! TO.C,C6*
X122964000Y-80800000D02*
X124138000Y-80800000D01*
X122964000Y-82522000D02*
X124138000Y-82522000D01*
G04 #@! TO.C,C7*
X154531000Y-68227000D02*
X154531000Y-69401000D01*
X152809000Y-68227000D02*
X152809000Y-69401000D01*
G04 #@! TO.C,C8*
X154531000Y-78006000D02*
X154531000Y-79180000D01*
X152809000Y-78006000D02*
X152809000Y-79180000D01*
G04 #@! TO.C,C9*
X154531000Y-73053000D02*
X154531000Y-74227000D01*
X152809000Y-73053000D02*
X152809000Y-74227000D01*
G04 #@! TO.C,C10*
X169319000Y-69441000D02*
X169319000Y-68267000D01*
X171041000Y-69441000D02*
X171041000Y-68267000D01*
G04 #@! TO.C,D1*
X193871000Y-82550462D02*
G75*
G03X188321000Y-81005170I-2990000J462D01*
G01*
X193871000Y-82549538D02*
G75*
G02X188321000Y-84094830I-2990000J-462D01*
G01*
X193381000Y-82550000D02*
G75*
G03X193381000Y-82550000I-2500000J0D01*
G01*
X188321000Y-81005000D02*
X188321000Y-84095000D01*
G04 #@! TO.C,D2*
X193871000Y-69088462D02*
G75*
G03X188321000Y-67543170I-2990000J462D01*
G01*
X193871000Y-69087538D02*
G75*
G02X188321000Y-70632830I-2990000J-462D01*
G01*
X193381000Y-69088000D02*
G75*
G03X193381000Y-69088000I-2500000J0D01*
G01*
X188321000Y-67543000D02*
X188321000Y-70633000D01*
G04 #@! TO.C,D3*
X193871000Y-75819462D02*
G75*
G03X188321000Y-74274170I-2990000J462D01*
G01*
X193871000Y-75818538D02*
G75*
G02X188321000Y-77363830I-2990000J-462D01*
G01*
X193381000Y-75819000D02*
G75*
G03X193381000Y-75819000I-2500000J0D01*
G01*
X188321000Y-74274000D02*
X188321000Y-77364000D01*
G04 #@! TO.C,J1*
X77987200Y-55642200D02*
X75327200Y-55642200D01*
X77987200Y-58242200D02*
X77987200Y-55642200D01*
X75327200Y-58242200D02*
X75327200Y-55642200D01*
X77987200Y-58242200D02*
X75327200Y-58242200D01*
X77987200Y-59512200D02*
X77987200Y-60842200D01*
X77987200Y-60842200D02*
X76657200Y-60842200D01*
G04 #@! TO.C,J2*
X158683000Y-87189000D02*
X156023000Y-87189000D01*
X158683000Y-97409000D02*
X158683000Y-87189000D01*
X156023000Y-97409000D02*
X156023000Y-87189000D01*
X158683000Y-97409000D02*
X156023000Y-97409000D01*
X158683000Y-98679000D02*
X158683000Y-100009000D01*
X158683000Y-100009000D02*
X157353000Y-100009000D01*
G04 #@! TO.C,R2*
X116631000Y-77880000D02*
X116631000Y-79600000D01*
X116631000Y-79600000D02*
X120351000Y-79600000D01*
X120351000Y-79600000D02*
X120351000Y-77880000D01*
X120351000Y-77880000D02*
X116631000Y-77880000D01*
X115561000Y-78740000D02*
X116631000Y-78740000D01*
X121421000Y-78740000D02*
X120351000Y-78740000D01*
G04 #@! TO.C,R3*
X120351000Y-74520000D02*
X120351000Y-72800000D01*
X120351000Y-72800000D02*
X116631000Y-72800000D01*
X116631000Y-72800000D02*
X116631000Y-74520000D01*
X116631000Y-74520000D02*
X120351000Y-74520000D01*
X121421000Y-73660000D02*
X120351000Y-73660000D01*
X115561000Y-73660000D02*
X116631000Y-73660000D01*
G04 #@! TO.C,R6*
X116631000Y-75340000D02*
X116631000Y-77060000D01*
X116631000Y-77060000D02*
X120351000Y-77060000D01*
X120351000Y-77060000D02*
X120351000Y-75340000D01*
X120351000Y-75340000D02*
X116631000Y-75340000D01*
X115561000Y-76200000D02*
X116631000Y-76200000D01*
X121421000Y-76200000D02*
X120351000Y-76200000D01*
G04 #@! TO.C,R7*
X116631000Y-70260000D02*
X116631000Y-71980000D01*
X116631000Y-71980000D02*
X120351000Y-71980000D01*
X120351000Y-71980000D02*
X120351000Y-70260000D01*
X120351000Y-70260000D02*
X116631000Y-70260000D01*
X115561000Y-71120000D02*
X116631000Y-71120000D01*
X121421000Y-71120000D02*
X120351000Y-71120000D01*
G04 #@! TO.C,R8*
X116631000Y-63148000D02*
X116631000Y-64868000D01*
X116631000Y-64868000D02*
X120351000Y-64868000D01*
X120351000Y-64868000D02*
X120351000Y-63148000D01*
X120351000Y-63148000D02*
X116631000Y-63148000D01*
X115561000Y-64008000D02*
X116631000Y-64008000D01*
X121421000Y-64008000D02*
X120351000Y-64008000D01*
G04 #@! TO.C,R9*
X116631000Y-60608000D02*
X116631000Y-62328000D01*
X116631000Y-62328000D02*
X120351000Y-62328000D01*
X120351000Y-62328000D02*
X120351000Y-60608000D01*
X120351000Y-60608000D02*
X116631000Y-60608000D01*
X115561000Y-61468000D02*
X116631000Y-61468000D01*
X121421000Y-61468000D02*
X120351000Y-61468000D01*
G04 #@! TO.C,R10*
X190852000Y-89072000D02*
X189132000Y-89072000D01*
X189132000Y-89072000D02*
X189132000Y-92792000D01*
X189132000Y-92792000D02*
X190852000Y-92792000D01*
X190852000Y-92792000D02*
X190852000Y-89072000D01*
X189992000Y-88002000D02*
X189992000Y-89072000D01*
X189992000Y-93862000D02*
X189992000Y-92792000D01*
G04 #@! TO.C,R11*
X146148000Y-93771000D02*
X144428000Y-93771000D01*
X144428000Y-93771000D02*
X144428000Y-97491000D01*
X144428000Y-97491000D02*
X146148000Y-97491000D01*
X146148000Y-97491000D02*
X146148000Y-93771000D01*
X145288000Y-92701000D02*
X145288000Y-93771000D01*
X145288000Y-98561000D02*
X145288000Y-97491000D01*
G04 #@! TO.C,R13*
X146968000Y-97491000D02*
X148688000Y-97491000D01*
X148688000Y-97491000D02*
X148688000Y-93771000D01*
X148688000Y-93771000D02*
X146968000Y-93771000D01*
X146968000Y-93771000D02*
X146968000Y-97491000D01*
X147828000Y-98561000D02*
X147828000Y-97491000D01*
X147828000Y-92701000D02*
X147828000Y-93771000D01*
G04 #@! TO.C,R14*
X148127000Y-62894000D02*
X148127000Y-64614000D01*
X148127000Y-64614000D02*
X151847000Y-64614000D01*
X151847000Y-64614000D02*
X151847000Y-62894000D01*
X151847000Y-62894000D02*
X148127000Y-62894000D01*
X147057000Y-63754000D02*
X148127000Y-63754000D01*
X152917000Y-63754000D02*
X151847000Y-63754000D01*
G04 #@! TO.C,R17*
X138221000Y-53623000D02*
X138221000Y-55343000D01*
X138221000Y-55343000D02*
X141941000Y-55343000D01*
X141941000Y-55343000D02*
X141941000Y-53623000D01*
X141941000Y-53623000D02*
X138221000Y-53623000D01*
X137151000Y-54483000D02*
X138221000Y-54483000D01*
X143011000Y-54483000D02*
X141941000Y-54483000D01*
G04 #@! TO.C,R18*
X140253000Y-57433000D02*
X140253000Y-59153000D01*
X140253000Y-59153000D02*
X143973000Y-59153000D01*
X143973000Y-59153000D02*
X143973000Y-57433000D01*
X143973000Y-57433000D02*
X140253000Y-57433000D01*
X139183000Y-58293000D02*
X140253000Y-58293000D01*
X145043000Y-58293000D02*
X143973000Y-58293000D01*
G04 #@! TO.C,R19*
X165399000Y-59084000D02*
X165399000Y-60804000D01*
X165399000Y-60804000D02*
X169119000Y-60804000D01*
X169119000Y-60804000D02*
X169119000Y-59084000D01*
X169119000Y-59084000D02*
X165399000Y-59084000D01*
X164329000Y-59944000D02*
X165399000Y-59944000D01*
X170189000Y-59944000D02*
X169119000Y-59944000D01*
G04 #@! TO.C,R21*
X142396000Y-69424000D02*
X144116000Y-69424000D01*
X144116000Y-69424000D02*
X144116000Y-65704000D01*
X144116000Y-65704000D02*
X142396000Y-65704000D01*
X142396000Y-65704000D02*
X142396000Y-69424000D01*
X143256000Y-70494000D02*
X143256000Y-69424000D01*
X143256000Y-64634000D02*
X143256000Y-65704000D01*
G04 #@! TO.C,R22*
X191291000Y-61677000D02*
X193011000Y-61677000D01*
X193011000Y-61677000D02*
X193011000Y-57957000D01*
X193011000Y-57957000D02*
X191291000Y-57957000D01*
X191291000Y-57957000D02*
X191291000Y-61677000D01*
X192151000Y-62747000D02*
X192151000Y-61677000D01*
X192151000Y-56887000D02*
X192151000Y-57957000D01*
G04 #@! TO.C,R23*
X187989000Y-61677000D02*
X189709000Y-61677000D01*
X189709000Y-61677000D02*
X189709000Y-57957000D01*
X189709000Y-57957000D02*
X187989000Y-57957000D01*
X187989000Y-57957000D02*
X187989000Y-61677000D01*
X188849000Y-62747000D02*
X188849000Y-61677000D01*
X188849000Y-56887000D02*
X188849000Y-57957000D01*
D12*
G04 #@! TO.C,T1*
X105727500Y-90741500D02*
X105727500Y-83121500D01*
X105727500Y-83121500D02*
X136207500Y-83121500D01*
X136207500Y-83121500D02*
X136207500Y-98361500D01*
X136207500Y-98361500D02*
X105727500Y-98361500D01*
X105727500Y-98361500D02*
X105727500Y-90741500D01*
G04 #@! TO.C,U1*
X179578000Y-91694000D02*
X180848000Y-91694000D01*
X180848000Y-91694000D02*
X180848000Y-56134000D01*
X180848000Y-56134000D02*
X175768000Y-56134000D01*
X175768000Y-56134000D02*
X175768000Y-91694000D01*
X175768000Y-91694000D02*
X177038000Y-91694000D01*
X178308000Y-90424000D02*
G75*
G03X177038000Y-91694000I0J-1270000D01*
G01*
X179578000Y-91694000D02*
G75*
G03X178308000Y-90424000I-1270000J0D01*
G01*
G04 #@! TO.C,Y1*
X148082000Y-71882000D02*
X148082000Y-77978000D01*
X152146000Y-77978000D02*
X152146000Y-71882000D01*
X152146000Y-71882000D02*
G75*
G03X150114000Y-69850000I-2032000J0D01*
G01*
X150114000Y-69850000D02*
G75*
G03X148082000Y-71882000I0J-2032000D01*
G01*
X150114000Y-80010000D02*
G75*
G03X152146000Y-77978000I0J2032000D01*
G01*
X148082000Y-77978000D02*
G75*
G03X150114000Y-80010000I2032000J0D01*
G01*
D10*
G04 #@! TO.C,R12*
X120411000Y-67341000D02*
X120411000Y-65501000D01*
X120411000Y-65501000D02*
X116571000Y-65501000D01*
X116571000Y-65501000D02*
X116571000Y-67341000D01*
X116571000Y-67341000D02*
X120411000Y-67341000D01*
X121361000Y-66421000D02*
X120411000Y-66421000D01*
X115621000Y-66421000D02*
X116571000Y-66421000D01*
G04 #@! TO.C,R1*
X99837000Y-60483000D02*
X99837000Y-58643000D01*
X99837000Y-58643000D02*
X95997000Y-58643000D01*
X95997000Y-58643000D02*
X95997000Y-60483000D01*
X95997000Y-60483000D02*
X99837000Y-60483000D01*
X100787000Y-59563000D02*
X99837000Y-59563000D01*
X95047000Y-59563000D02*
X95997000Y-59563000D01*
G04 #@! TO.C,R4*
X95997000Y-56103000D02*
X95997000Y-57943000D01*
X95997000Y-57943000D02*
X99837000Y-57943000D01*
X99837000Y-57943000D02*
X99837000Y-56103000D01*
X99837000Y-56103000D02*
X95997000Y-56103000D01*
X95047000Y-57023000D02*
X95997000Y-57023000D01*
X100787000Y-57023000D02*
X99837000Y-57023000D01*
G04 #@! TO.C,R5*
X115621000Y-68707000D02*
X116571000Y-68707000D01*
X121361000Y-68707000D02*
X120411000Y-68707000D01*
X116571000Y-69627000D02*
X120411000Y-69627000D01*
X116571000Y-67787000D02*
X116571000Y-69627000D01*
X120411000Y-67787000D02*
X116571000Y-67787000D01*
X120411000Y-69627000D02*
X120411000Y-67787000D01*
G04 #@! TO.C,J4*
X140522000Y-99254000D02*
X140522000Y-100584000D01*
X139192000Y-99254000D02*
X140522000Y-99254000D01*
X137922000Y-99254000D02*
X137922000Y-101914000D01*
X137922000Y-101914000D02*
X125162000Y-101914000D01*
X137922000Y-99254000D02*
X125162000Y-99254000D01*
X125162000Y-99254000D02*
X125162000Y-101914000D01*
G04 #@! TO.C,R20*
X88915000Y-60483000D02*
X88915000Y-58643000D01*
X88915000Y-58643000D02*
X85075000Y-58643000D01*
X85075000Y-58643000D02*
X85075000Y-60483000D01*
X85075000Y-60483000D02*
X88915000Y-60483000D01*
X89865000Y-59563000D02*
X88915000Y-59563000D01*
X84125000Y-59563000D02*
X85075000Y-59563000D01*
G04 #@! TO.C,R24*
X84125000Y-57023000D02*
X85075000Y-57023000D01*
X89865000Y-57023000D02*
X88915000Y-57023000D01*
X85075000Y-57943000D02*
X88915000Y-57943000D01*
X85075000Y-56103000D02*
X85075000Y-57943000D01*
X88915000Y-56103000D02*
X85075000Y-56103000D01*
X88915000Y-57943000D02*
X88915000Y-56103000D01*
G04 #@! TO.C,J3*
X164779000Y-63694000D02*
X162119000Y-63694000D01*
X164779000Y-78994000D02*
X164779000Y-63694000D01*
X162119000Y-78994000D02*
X162119000Y-63694000D01*
X164779000Y-78994000D02*
X162119000Y-78994000D01*
X164779000Y-80264000D02*
X164779000Y-81594000D01*
X164779000Y-81594000D02*
X163449000Y-81594000D01*
G04 #@! TO.C,REF\002A\002A*
D12*
X67119666Y-93242380D02*
X66786333Y-92766190D01*
X66548238Y-93242380D02*
X66548238Y-92242380D01*
X66929190Y-92242380D01*
X67024428Y-92290000D01*
X67072047Y-92337619D01*
X67119666Y-92432857D01*
X67119666Y-92575714D01*
X67072047Y-92670952D01*
X67024428Y-92718571D01*
X66929190Y-92766190D01*
X66548238Y-92766190D01*
X67548238Y-92718571D02*
X67881571Y-92718571D01*
X68024428Y-93242380D02*
X67548238Y-93242380D01*
X67548238Y-92242380D01*
X68024428Y-92242380D01*
X68786333Y-92718571D02*
X68453000Y-92718571D01*
X68453000Y-93242380D02*
X68453000Y-92242380D01*
X68929190Y-92242380D01*
X69453000Y-92242380D02*
X69453000Y-92480476D01*
X69214904Y-92385238D02*
X69453000Y-92480476D01*
X69691095Y-92385238D01*
X69310142Y-92670952D02*
X69453000Y-92480476D01*
X69595857Y-92670952D01*
X70214904Y-92242380D02*
X70214904Y-92480476D01*
X69976809Y-92385238D02*
X70214904Y-92480476D01*
X70453000Y-92385238D01*
X70072047Y-92670952D02*
X70214904Y-92480476D01*
X70357761Y-92670952D01*
G04 #@! TO.C,T2*
X71501095Y-80668880D02*
X72072523Y-80668880D01*
X71786809Y-81668880D02*
X71786809Y-80668880D01*
X72358238Y-80764119D02*
X72405857Y-80716500D01*
X72501095Y-80668880D01*
X72739190Y-80668880D01*
X72834428Y-80716500D01*
X72882047Y-80764119D01*
X72929666Y-80859357D01*
X72929666Y-80954595D01*
X72882047Y-81097452D01*
X72310619Y-81668880D01*
X72929666Y-81668880D01*
G04 #@! TO.C,C1*
D10*
X126996000Y-79491666D02*
X127029333Y-79525000D01*
X127062666Y-79625000D01*
X127062666Y-79691666D01*
X127029333Y-79791666D01*
X126962666Y-79858333D01*
X126896000Y-79891666D01*
X126762666Y-79925000D01*
X126662666Y-79925000D01*
X126529333Y-79891666D01*
X126462666Y-79858333D01*
X126396000Y-79791666D01*
X126362666Y-79691666D01*
X126362666Y-79625000D01*
X126396000Y-79525000D01*
X126429333Y-79491666D01*
X127062666Y-78825000D02*
X127062666Y-79225000D01*
X127062666Y-79025000D02*
X126362666Y-79025000D01*
X126462666Y-79091666D01*
X126529333Y-79158333D01*
X126562666Y-79225000D01*
G04 #@! TO.C,C2*
X126996000Y-74284666D02*
X127029333Y-74318000D01*
X127062666Y-74418000D01*
X127062666Y-74484666D01*
X127029333Y-74584666D01*
X126962666Y-74651333D01*
X126896000Y-74684666D01*
X126762666Y-74718000D01*
X126662666Y-74718000D01*
X126529333Y-74684666D01*
X126462666Y-74651333D01*
X126396000Y-74584666D01*
X126362666Y-74484666D01*
X126362666Y-74418000D01*
X126396000Y-74318000D01*
X126429333Y-74284666D01*
X126429333Y-74018000D02*
X126396000Y-73984666D01*
X126362666Y-73918000D01*
X126362666Y-73751333D01*
X126396000Y-73684666D01*
X126429333Y-73651333D01*
X126496000Y-73618000D01*
X126562666Y-73618000D01*
X126662666Y-73651333D01*
X127062666Y-74051333D01*
X127062666Y-73618000D01*
G04 #@! TO.C,C3*
X126996000Y-69077666D02*
X127029333Y-69111000D01*
X127062666Y-69211000D01*
X127062666Y-69277666D01*
X127029333Y-69377666D01*
X126962666Y-69444333D01*
X126896000Y-69477666D01*
X126762666Y-69511000D01*
X126662666Y-69511000D01*
X126529333Y-69477666D01*
X126462666Y-69444333D01*
X126396000Y-69377666D01*
X126362666Y-69277666D01*
X126362666Y-69211000D01*
X126396000Y-69111000D01*
X126429333Y-69077666D01*
X126362666Y-68844333D02*
X126362666Y-68411000D01*
X126629333Y-68644333D01*
X126629333Y-68544333D01*
X126662666Y-68477666D01*
X126696000Y-68444333D01*
X126762666Y-68411000D01*
X126929333Y-68411000D01*
X126996000Y-68444333D01*
X127029333Y-68477666D01*
X127062666Y-68544333D01*
X127062666Y-68744333D01*
X127029333Y-68811000D01*
X126996000Y-68844333D01*
G04 #@! TO.C,C4*
D12*
X119284714Y-58807333D02*
X119322809Y-58845428D01*
X119360904Y-58959714D01*
X119360904Y-59035904D01*
X119322809Y-59150190D01*
X119246619Y-59226380D01*
X119170428Y-59264476D01*
X119018047Y-59302571D01*
X118903761Y-59302571D01*
X118751380Y-59264476D01*
X118675190Y-59226380D01*
X118599000Y-59150190D01*
X118560904Y-59035904D01*
X118560904Y-58959714D01*
X118599000Y-58845428D01*
X118637095Y-58807333D01*
X118827571Y-58121619D02*
X119360904Y-58121619D01*
X118522809Y-58312095D02*
X119094238Y-58502571D01*
X119094238Y-58007333D01*
G04 #@! TO.C,C5*
D10*
X131311666Y-65182714D02*
X131273571Y-65220809D01*
X131159285Y-65258904D01*
X131083095Y-65258904D01*
X130968809Y-65220809D01*
X130892619Y-65144619D01*
X130854523Y-65068428D01*
X130816428Y-64916047D01*
X130816428Y-64801761D01*
X130854523Y-64649380D01*
X130892619Y-64573190D01*
X130968809Y-64497000D01*
X131083095Y-64458904D01*
X131159285Y-64458904D01*
X131273571Y-64497000D01*
X131311666Y-64535095D01*
X132035476Y-64458904D02*
X131654523Y-64458904D01*
X131616428Y-64839857D01*
X131654523Y-64801761D01*
X131730714Y-64763666D01*
X131921190Y-64763666D01*
X131997380Y-64801761D01*
X132035476Y-64839857D01*
X132073571Y-64916047D01*
X132073571Y-65106523D01*
X132035476Y-65182714D01*
X131997380Y-65220809D01*
X131921190Y-65258904D01*
X131730714Y-65258904D01*
X131654523Y-65220809D01*
X131616428Y-65182714D01*
G04 #@! TO.C,C6*
X120935714Y-81794333D02*
X120973809Y-81832428D01*
X121011904Y-81946714D01*
X121011904Y-82022904D01*
X120973809Y-82137190D01*
X120897619Y-82213380D01*
X120821428Y-82251476D01*
X120669047Y-82289571D01*
X120554761Y-82289571D01*
X120402380Y-82251476D01*
X120326190Y-82213380D01*
X120250000Y-82137190D01*
X120211904Y-82022904D01*
X120211904Y-81946714D01*
X120250000Y-81832428D01*
X120288095Y-81794333D01*
X120211904Y-81108619D02*
X120211904Y-81261000D01*
X120250000Y-81337190D01*
X120288095Y-81375285D01*
X120402380Y-81451476D01*
X120554761Y-81489571D01*
X120859523Y-81489571D01*
X120935714Y-81451476D01*
X120973809Y-81413380D01*
X121011904Y-81337190D01*
X121011904Y-81184809D01*
X120973809Y-81108619D01*
X120935714Y-81070523D01*
X120859523Y-81032428D01*
X120669047Y-81032428D01*
X120592857Y-81070523D01*
X120554761Y-81108619D01*
X120516666Y-81184809D01*
X120516666Y-81337190D01*
X120554761Y-81413380D01*
X120592857Y-81451476D01*
X120669047Y-81489571D01*
G04 #@! TO.C,C7*
X155698000Y-70601666D02*
X155731333Y-70635000D01*
X155764666Y-70735000D01*
X155764666Y-70801666D01*
X155731333Y-70901666D01*
X155664666Y-70968333D01*
X155598000Y-71001666D01*
X155464666Y-71035000D01*
X155364666Y-71035000D01*
X155231333Y-71001666D01*
X155164666Y-70968333D01*
X155098000Y-70901666D01*
X155064666Y-70801666D01*
X155064666Y-70735000D01*
X155098000Y-70635000D01*
X155131333Y-70601666D01*
X155064666Y-70368333D02*
X155064666Y-69901666D01*
X155764666Y-70201666D01*
G04 #@! TO.C,C8*
X155698000Y-80253666D02*
X155731333Y-80287000D01*
X155764666Y-80387000D01*
X155764666Y-80453666D01*
X155731333Y-80553666D01*
X155664666Y-80620333D01*
X155598000Y-80653666D01*
X155464666Y-80687000D01*
X155364666Y-80687000D01*
X155231333Y-80653666D01*
X155164666Y-80620333D01*
X155098000Y-80553666D01*
X155064666Y-80453666D01*
X155064666Y-80387000D01*
X155098000Y-80287000D01*
X155131333Y-80253666D01*
X155364666Y-79853666D02*
X155331333Y-79920333D01*
X155298000Y-79953666D01*
X155231333Y-79987000D01*
X155198000Y-79987000D01*
X155131333Y-79953666D01*
X155098000Y-79920333D01*
X155064666Y-79853666D01*
X155064666Y-79720333D01*
X155098000Y-79653666D01*
X155131333Y-79620333D01*
X155198000Y-79587000D01*
X155231333Y-79587000D01*
X155298000Y-79620333D01*
X155331333Y-79653666D01*
X155364666Y-79720333D01*
X155364666Y-79853666D01*
X155398000Y-79920333D01*
X155431333Y-79953666D01*
X155498000Y-79987000D01*
X155631333Y-79987000D01*
X155698000Y-79953666D01*
X155731333Y-79920333D01*
X155764666Y-79853666D01*
X155764666Y-79720333D01*
X155731333Y-79653666D01*
X155698000Y-79620333D01*
X155631333Y-79587000D01*
X155498000Y-79587000D01*
X155431333Y-79620333D01*
X155398000Y-79653666D01*
X155364666Y-79720333D01*
G04 #@! TO.C,C9*
X155698000Y-75427666D02*
X155731333Y-75461000D01*
X155764666Y-75561000D01*
X155764666Y-75627666D01*
X155731333Y-75727666D01*
X155664666Y-75794333D01*
X155598000Y-75827666D01*
X155464666Y-75861000D01*
X155364666Y-75861000D01*
X155231333Y-75827666D01*
X155164666Y-75794333D01*
X155098000Y-75727666D01*
X155064666Y-75627666D01*
X155064666Y-75561000D01*
X155098000Y-75461000D01*
X155131333Y-75427666D01*
X155764666Y-75094333D02*
X155764666Y-74961000D01*
X155731333Y-74894333D01*
X155698000Y-74861000D01*
X155598000Y-74794333D01*
X155464666Y-74761000D01*
X155198000Y-74761000D01*
X155131333Y-74794333D01*
X155098000Y-74827666D01*
X155064666Y-74894333D01*
X155064666Y-75027666D01*
X155098000Y-75094333D01*
X155131333Y-75127666D01*
X155198000Y-75161000D01*
X155364666Y-75161000D01*
X155431333Y-75127666D01*
X155464666Y-75094333D01*
X155498000Y-75027666D01*
X155498000Y-74894333D01*
X155464666Y-74827666D01*
X155431333Y-74794333D01*
X155364666Y-74761000D01*
G04 #@! TO.C,C10*
X172208000Y-71443000D02*
X172241333Y-71476333D01*
X172274666Y-71576333D01*
X172274666Y-71643000D01*
X172241333Y-71743000D01*
X172174666Y-71809666D01*
X172108000Y-71843000D01*
X171974666Y-71876333D01*
X171874666Y-71876333D01*
X171741333Y-71843000D01*
X171674666Y-71809666D01*
X171608000Y-71743000D01*
X171574666Y-71643000D01*
X171574666Y-71576333D01*
X171608000Y-71476333D01*
X171641333Y-71443000D01*
X172274666Y-70776333D02*
X172274666Y-71176333D01*
X172274666Y-70976333D02*
X171574666Y-70976333D01*
X171674666Y-71043000D01*
X171741333Y-71109666D01*
X171774666Y-71176333D01*
X171574666Y-70343000D02*
X171574666Y-70276333D01*
X171608000Y-70209666D01*
X171641333Y-70176333D01*
X171708000Y-70143000D01*
X171841333Y-70109666D01*
X172008000Y-70109666D01*
X172141333Y-70143000D01*
X172208000Y-70176333D01*
X172241333Y-70209666D01*
X172274666Y-70276333D01*
X172274666Y-70343000D01*
X172241333Y-70409666D01*
X172208000Y-70443000D01*
X172141333Y-70476333D01*
X172008000Y-70509666D01*
X171841333Y-70509666D01*
X171708000Y-70476333D01*
X171641333Y-70443000D01*
X171608000Y-70409666D01*
X171574666Y-70343000D01*
G04 #@! TO.C,D1*
D12*
X190206404Y-79700380D02*
X190206404Y-78700380D01*
X190444500Y-78700380D01*
X190587357Y-78748000D01*
X190682595Y-78843238D01*
X190730214Y-78938476D01*
X190777833Y-79128952D01*
X190777833Y-79271809D01*
X190730214Y-79462285D01*
X190682595Y-79557523D01*
X190587357Y-79652761D01*
X190444500Y-79700380D01*
X190206404Y-79700380D01*
X191730214Y-79700380D02*
X191158785Y-79700380D01*
X191444500Y-79700380D02*
X191444500Y-78700380D01*
X191349261Y-78843238D01*
X191254023Y-78938476D01*
X191158785Y-78986095D01*
G04 #@! TO.C,D2*
X190142904Y-66301880D02*
X190142904Y-65301880D01*
X190381000Y-65301880D01*
X190523857Y-65349500D01*
X190619095Y-65444738D01*
X190666714Y-65539976D01*
X190714333Y-65730452D01*
X190714333Y-65873309D01*
X190666714Y-66063785D01*
X190619095Y-66159023D01*
X190523857Y-66254261D01*
X190381000Y-66301880D01*
X190142904Y-66301880D01*
X191095285Y-65397119D02*
X191142904Y-65349500D01*
X191238142Y-65301880D01*
X191476238Y-65301880D01*
X191571476Y-65349500D01*
X191619095Y-65397119D01*
X191666714Y-65492357D01*
X191666714Y-65587595D01*
X191619095Y-65730452D01*
X191047666Y-66301880D01*
X191666714Y-66301880D01*
G04 #@! TO.C,D3*
X190206404Y-72969380D02*
X190206404Y-71969380D01*
X190444500Y-71969380D01*
X190587357Y-72017000D01*
X190682595Y-72112238D01*
X190730214Y-72207476D01*
X190777833Y-72397952D01*
X190777833Y-72540809D01*
X190730214Y-72731285D01*
X190682595Y-72826523D01*
X190587357Y-72921761D01*
X190444500Y-72969380D01*
X190206404Y-72969380D01*
X191111166Y-71969380D02*
X191730214Y-71969380D01*
X191396880Y-72350333D01*
X191539738Y-72350333D01*
X191634976Y-72397952D01*
X191682595Y-72445571D01*
X191730214Y-72540809D01*
X191730214Y-72778904D01*
X191682595Y-72874142D01*
X191634976Y-72921761D01*
X191539738Y-72969380D01*
X191254023Y-72969380D01*
X191158785Y-72921761D01*
X191111166Y-72874142D01*
G04 #@! TO.C,J1*
X80033880Y-58562833D02*
X80748166Y-58562833D01*
X80891023Y-58610452D01*
X80986261Y-58705690D01*
X81033880Y-58848547D01*
X81033880Y-58943785D01*
X81033880Y-57562833D02*
X81033880Y-58134261D01*
X81033880Y-57848547D02*
X80033880Y-57848547D01*
X80176738Y-57943785D01*
X80271976Y-58039023D01*
X80319595Y-58134261D01*
G04 #@! TO.C,J2*
X157019666Y-100461380D02*
X157019666Y-101175666D01*
X156972047Y-101318523D01*
X156876809Y-101413761D01*
X156733952Y-101461380D01*
X156638714Y-101461380D01*
X157448238Y-100556619D02*
X157495857Y-100509000D01*
X157591095Y-100461380D01*
X157829190Y-100461380D01*
X157924428Y-100509000D01*
X157972047Y-100556619D01*
X158019666Y-100651857D01*
X158019666Y-100747095D01*
X157972047Y-100889952D01*
X157400619Y-101461380D01*
X158019666Y-101461380D01*
G04 #@! TO.C,R2*
X113137904Y-78873333D02*
X112756952Y-79140000D01*
X113137904Y-79330476D02*
X112337904Y-79330476D01*
X112337904Y-79025714D01*
X112376000Y-78949523D01*
X112414095Y-78911428D01*
X112490285Y-78873333D01*
X112604571Y-78873333D01*
X112680761Y-78911428D01*
X112718857Y-78949523D01*
X112756952Y-79025714D01*
X112756952Y-79330476D01*
X112414095Y-78568571D02*
X112376000Y-78530476D01*
X112337904Y-78454285D01*
X112337904Y-78263809D01*
X112376000Y-78187619D01*
X112414095Y-78149523D01*
X112490285Y-78111428D01*
X112566476Y-78111428D01*
X112680761Y-78149523D01*
X113137904Y-78606666D01*
X113137904Y-78111428D01*
G04 #@! TO.C,R3*
X113137904Y-73793333D02*
X112756952Y-74060000D01*
X113137904Y-74250476D02*
X112337904Y-74250476D01*
X112337904Y-73945714D01*
X112376000Y-73869523D01*
X112414095Y-73831428D01*
X112490285Y-73793333D01*
X112604571Y-73793333D01*
X112680761Y-73831428D01*
X112718857Y-73869523D01*
X112756952Y-73945714D01*
X112756952Y-74250476D01*
X112337904Y-73526666D02*
X112337904Y-73031428D01*
X112642666Y-73298095D01*
X112642666Y-73183809D01*
X112680761Y-73107619D01*
X112718857Y-73069523D01*
X112795047Y-73031428D01*
X112985523Y-73031428D01*
X113061714Y-73069523D01*
X113099809Y-73107619D01*
X113137904Y-73183809D01*
X113137904Y-73412380D01*
X113099809Y-73488571D01*
X113061714Y-73526666D01*
G04 #@! TO.C,R6*
X113137904Y-76333333D02*
X112756952Y-76600000D01*
X113137904Y-76790476D02*
X112337904Y-76790476D01*
X112337904Y-76485714D01*
X112376000Y-76409523D01*
X112414095Y-76371428D01*
X112490285Y-76333333D01*
X112604571Y-76333333D01*
X112680761Y-76371428D01*
X112718857Y-76409523D01*
X112756952Y-76485714D01*
X112756952Y-76790476D01*
X112337904Y-75647619D02*
X112337904Y-75800000D01*
X112376000Y-75876190D01*
X112414095Y-75914285D01*
X112528380Y-75990476D01*
X112680761Y-76028571D01*
X112985523Y-76028571D01*
X113061714Y-75990476D01*
X113099809Y-75952380D01*
X113137904Y-75876190D01*
X113137904Y-75723809D01*
X113099809Y-75647619D01*
X113061714Y-75609523D01*
X112985523Y-75571428D01*
X112795047Y-75571428D01*
X112718857Y-75609523D01*
X112680761Y-75647619D01*
X112642666Y-75723809D01*
X112642666Y-75876190D01*
X112680761Y-75952380D01*
X112718857Y-75990476D01*
X112795047Y-76028571D01*
G04 #@! TO.C,R7*
X113137904Y-71253333D02*
X112756952Y-71520000D01*
X113137904Y-71710476D02*
X112337904Y-71710476D01*
X112337904Y-71405714D01*
X112376000Y-71329523D01*
X112414095Y-71291428D01*
X112490285Y-71253333D01*
X112604571Y-71253333D01*
X112680761Y-71291428D01*
X112718857Y-71329523D01*
X112756952Y-71405714D01*
X112756952Y-71710476D01*
X112337904Y-70986666D02*
X112337904Y-70453333D01*
X113137904Y-70796190D01*
G04 #@! TO.C,R8*
X113137904Y-64014333D02*
X112756952Y-64281000D01*
X113137904Y-64471476D02*
X112337904Y-64471476D01*
X112337904Y-64166714D01*
X112376000Y-64090523D01*
X112414095Y-64052428D01*
X112490285Y-64014333D01*
X112604571Y-64014333D01*
X112680761Y-64052428D01*
X112718857Y-64090523D01*
X112756952Y-64166714D01*
X112756952Y-64471476D01*
X112680761Y-63557190D02*
X112642666Y-63633380D01*
X112604571Y-63671476D01*
X112528380Y-63709571D01*
X112490285Y-63709571D01*
X112414095Y-63671476D01*
X112376000Y-63633380D01*
X112337904Y-63557190D01*
X112337904Y-63404809D01*
X112376000Y-63328619D01*
X112414095Y-63290523D01*
X112490285Y-63252428D01*
X112528380Y-63252428D01*
X112604571Y-63290523D01*
X112642666Y-63328619D01*
X112680761Y-63404809D01*
X112680761Y-63557190D01*
X112718857Y-63633380D01*
X112756952Y-63671476D01*
X112833142Y-63709571D01*
X112985523Y-63709571D01*
X113061714Y-63671476D01*
X113099809Y-63633380D01*
X113137904Y-63557190D01*
X113137904Y-63404809D01*
X113099809Y-63328619D01*
X113061714Y-63290523D01*
X112985523Y-63252428D01*
X112833142Y-63252428D01*
X112756952Y-63290523D01*
X112718857Y-63328619D01*
X112680761Y-63404809D01*
G04 #@! TO.C,R9*
X113137904Y-61601333D02*
X112756952Y-61868000D01*
X113137904Y-62058476D02*
X112337904Y-62058476D01*
X112337904Y-61753714D01*
X112376000Y-61677523D01*
X112414095Y-61639428D01*
X112490285Y-61601333D01*
X112604571Y-61601333D01*
X112680761Y-61639428D01*
X112718857Y-61677523D01*
X112756952Y-61753714D01*
X112756952Y-62058476D01*
X113137904Y-61220380D02*
X113137904Y-61068000D01*
X113099809Y-60991809D01*
X113061714Y-60953714D01*
X112947428Y-60877523D01*
X112795047Y-60839428D01*
X112490285Y-60839428D01*
X112414095Y-60877523D01*
X112376000Y-60915619D01*
X112337904Y-60991809D01*
X112337904Y-61144190D01*
X112376000Y-61220380D01*
X112414095Y-61258476D01*
X112490285Y-61296571D01*
X112680761Y-61296571D01*
X112756952Y-61258476D01*
X112795047Y-61220380D01*
X112833142Y-61144190D01*
X112833142Y-60991809D01*
X112795047Y-60915619D01*
X112756952Y-60877523D01*
X112680761Y-60839428D01*
G04 #@! TO.C,R10*
X192349380Y-91574857D02*
X191873190Y-91908190D01*
X192349380Y-92146285D02*
X191349380Y-92146285D01*
X191349380Y-91765333D01*
X191397000Y-91670095D01*
X191444619Y-91622476D01*
X191539857Y-91574857D01*
X191682714Y-91574857D01*
X191777952Y-91622476D01*
X191825571Y-91670095D01*
X191873190Y-91765333D01*
X191873190Y-92146285D01*
X192349380Y-90622476D02*
X192349380Y-91193904D01*
X192349380Y-90908190D02*
X191349380Y-90908190D01*
X191492238Y-91003428D01*
X191587476Y-91098666D01*
X191635095Y-91193904D01*
X191349380Y-90003428D02*
X191349380Y-89908190D01*
X191397000Y-89812952D01*
X191444619Y-89765333D01*
X191539857Y-89717714D01*
X191730333Y-89670095D01*
X191968428Y-89670095D01*
X192158904Y-89717714D01*
X192254142Y-89765333D01*
X192301761Y-89812952D01*
X192349380Y-89908190D01*
X192349380Y-90003428D01*
X192301761Y-90098666D01*
X192254142Y-90146285D01*
X192158904Y-90193904D01*
X191968428Y-90241523D01*
X191730333Y-90241523D01*
X191539857Y-90193904D01*
X191444619Y-90146285D01*
X191397000Y-90098666D01*
X191349380Y-90003428D01*
G04 #@! TO.C,R11*
X144125904Y-96145285D02*
X143744952Y-96411952D01*
X144125904Y-96602428D02*
X143325904Y-96602428D01*
X143325904Y-96297666D01*
X143364000Y-96221476D01*
X143402095Y-96183380D01*
X143478285Y-96145285D01*
X143592571Y-96145285D01*
X143668761Y-96183380D01*
X143706857Y-96221476D01*
X143744952Y-96297666D01*
X143744952Y-96602428D01*
X144125904Y-95383380D02*
X144125904Y-95840523D01*
X144125904Y-95611952D02*
X143325904Y-95611952D01*
X143440190Y-95688142D01*
X143516380Y-95764333D01*
X143554476Y-95840523D01*
X144125904Y-94621476D02*
X144125904Y-95078619D01*
X144125904Y-94850047D02*
X143325904Y-94850047D01*
X143440190Y-94926238D01*
X143516380Y-95002428D01*
X143554476Y-95078619D01*
G04 #@! TO.C,R13*
X149967904Y-96081785D02*
X149586952Y-96348452D01*
X149967904Y-96538928D02*
X149167904Y-96538928D01*
X149167904Y-96234166D01*
X149206000Y-96157976D01*
X149244095Y-96119880D01*
X149320285Y-96081785D01*
X149434571Y-96081785D01*
X149510761Y-96119880D01*
X149548857Y-96157976D01*
X149586952Y-96234166D01*
X149586952Y-96538928D01*
X149967904Y-95319880D02*
X149967904Y-95777023D01*
X149967904Y-95548452D02*
X149167904Y-95548452D01*
X149282190Y-95624642D01*
X149358380Y-95700833D01*
X149396476Y-95777023D01*
X149167904Y-95053214D02*
X149167904Y-94557976D01*
X149472666Y-94824642D01*
X149472666Y-94710357D01*
X149510761Y-94634166D01*
X149548857Y-94596071D01*
X149625047Y-94557976D01*
X149815523Y-94557976D01*
X149891714Y-94596071D01*
X149929809Y-94634166D01*
X149967904Y-94710357D01*
X149967904Y-94938928D01*
X149929809Y-95015119D01*
X149891714Y-95053214D01*
G04 #@! TO.C,R14*
D10*
X149472714Y-65639904D02*
X149206047Y-65258952D01*
X149015571Y-65639904D02*
X149015571Y-64839904D01*
X149320333Y-64839904D01*
X149396523Y-64878000D01*
X149434619Y-64916095D01*
X149472714Y-64992285D01*
X149472714Y-65106571D01*
X149434619Y-65182761D01*
X149396523Y-65220857D01*
X149320333Y-65258952D01*
X149015571Y-65258952D01*
X150234619Y-65639904D02*
X149777476Y-65639904D01*
X150006047Y-65639904D02*
X150006047Y-64839904D01*
X149929857Y-64954190D01*
X149853666Y-65030380D01*
X149777476Y-65068476D01*
X150920333Y-65106571D02*
X150920333Y-65639904D01*
X150729857Y-64801809D02*
X150539380Y-65373238D01*
X151034619Y-65373238D01*
G04 #@! TO.C,R17*
X134981904Y-55124285D02*
X134600952Y-55390952D01*
X134981904Y-55581428D02*
X134181904Y-55581428D01*
X134181904Y-55276666D01*
X134220000Y-55200476D01*
X134258095Y-55162380D01*
X134334285Y-55124285D01*
X134448571Y-55124285D01*
X134524761Y-55162380D01*
X134562857Y-55200476D01*
X134600952Y-55276666D01*
X134600952Y-55581428D01*
X134981904Y-54362380D02*
X134981904Y-54819523D01*
X134981904Y-54590952D02*
X134181904Y-54590952D01*
X134296190Y-54667142D01*
X134372380Y-54743333D01*
X134410476Y-54819523D01*
X134181904Y-54095714D02*
X134181904Y-53562380D01*
X134981904Y-53905238D01*
G04 #@! TO.C,R18*
X141598714Y-56876904D02*
X141332047Y-56495952D01*
X141141571Y-56876904D02*
X141141571Y-56076904D01*
X141446333Y-56076904D01*
X141522523Y-56115000D01*
X141560619Y-56153095D01*
X141598714Y-56229285D01*
X141598714Y-56343571D01*
X141560619Y-56419761D01*
X141522523Y-56457857D01*
X141446333Y-56495952D01*
X141141571Y-56495952D01*
X142360619Y-56876904D02*
X141903476Y-56876904D01*
X142132047Y-56876904D02*
X142132047Y-56076904D01*
X142055857Y-56191190D01*
X141979666Y-56267380D01*
X141903476Y-56305476D01*
X142817761Y-56419761D02*
X142741571Y-56381666D01*
X142703476Y-56343571D01*
X142665380Y-56267380D01*
X142665380Y-56229285D01*
X142703476Y-56153095D01*
X142741571Y-56115000D01*
X142817761Y-56076904D01*
X142970142Y-56076904D01*
X143046333Y-56115000D01*
X143084428Y-56153095D01*
X143122523Y-56229285D01*
X143122523Y-56267380D01*
X143084428Y-56343571D01*
X143046333Y-56381666D01*
X142970142Y-56419761D01*
X142817761Y-56419761D01*
X142741571Y-56457857D01*
X142703476Y-56495952D01*
X142665380Y-56572142D01*
X142665380Y-56724523D01*
X142703476Y-56800714D01*
X142741571Y-56838809D01*
X142817761Y-56876904D01*
X142970142Y-56876904D01*
X143046333Y-56838809D01*
X143084428Y-56800714D01*
X143122523Y-56724523D01*
X143122523Y-56572142D01*
X143084428Y-56495952D01*
X143046333Y-56457857D01*
X142970142Y-56419761D01*
G04 #@! TO.C,R19*
X166871714Y-58654904D02*
X166605047Y-58273952D01*
X166414571Y-58654904D02*
X166414571Y-57854904D01*
X166719333Y-57854904D01*
X166795523Y-57893000D01*
X166833619Y-57931095D01*
X166871714Y-58007285D01*
X166871714Y-58121571D01*
X166833619Y-58197761D01*
X166795523Y-58235857D01*
X166719333Y-58273952D01*
X166414571Y-58273952D01*
X167633619Y-58654904D02*
X167176476Y-58654904D01*
X167405047Y-58654904D02*
X167405047Y-57854904D01*
X167328857Y-57969190D01*
X167252666Y-58045380D01*
X167176476Y-58083476D01*
X168014571Y-58654904D02*
X168166952Y-58654904D01*
X168243142Y-58616809D01*
X168281238Y-58578714D01*
X168357428Y-58464428D01*
X168395523Y-58312047D01*
X168395523Y-58007285D01*
X168357428Y-57931095D01*
X168319333Y-57893000D01*
X168243142Y-57854904D01*
X168090761Y-57854904D01*
X168014571Y-57893000D01*
X167976476Y-57931095D01*
X167938380Y-58007285D01*
X167938380Y-58197761D01*
X167976476Y-58273952D01*
X168014571Y-58312047D01*
X168090761Y-58350142D01*
X168243142Y-58350142D01*
X168319333Y-58312047D01*
X168357428Y-58273952D01*
X168395523Y-58197761D01*
G04 #@! TO.C,R21*
X141876428Y-67949714D02*
X141590714Y-68149714D01*
X141876428Y-68292571D02*
X141276428Y-68292571D01*
X141276428Y-68064000D01*
X141305000Y-68006857D01*
X141333571Y-67978285D01*
X141390714Y-67949714D01*
X141476428Y-67949714D01*
X141533571Y-67978285D01*
X141562142Y-68006857D01*
X141590714Y-68064000D01*
X141590714Y-68292571D01*
X141333571Y-67721142D02*
X141305000Y-67692571D01*
X141276428Y-67635428D01*
X141276428Y-67492571D01*
X141305000Y-67435428D01*
X141333571Y-67406857D01*
X141390714Y-67378285D01*
X141447857Y-67378285D01*
X141533571Y-67406857D01*
X141876428Y-67749714D01*
X141876428Y-67378285D01*
X141876428Y-66806857D02*
X141876428Y-67149714D01*
X141876428Y-66978285D02*
X141276428Y-66978285D01*
X141362142Y-67035428D01*
X141419285Y-67092571D01*
X141447857Y-67149714D01*
G04 #@! TO.C,R22*
D12*
X194290904Y-60331285D02*
X193909952Y-60597952D01*
X194290904Y-60788428D02*
X193490904Y-60788428D01*
X193490904Y-60483666D01*
X193529000Y-60407476D01*
X193567095Y-60369380D01*
X193643285Y-60331285D01*
X193757571Y-60331285D01*
X193833761Y-60369380D01*
X193871857Y-60407476D01*
X193909952Y-60483666D01*
X193909952Y-60788428D01*
X193567095Y-60026523D02*
X193529000Y-59988428D01*
X193490904Y-59912238D01*
X193490904Y-59721761D01*
X193529000Y-59645571D01*
X193567095Y-59607476D01*
X193643285Y-59569380D01*
X193719476Y-59569380D01*
X193833761Y-59607476D01*
X194290904Y-60064619D01*
X194290904Y-59569380D01*
X193567095Y-59264619D02*
X193529000Y-59226523D01*
X193490904Y-59150333D01*
X193490904Y-58959857D01*
X193529000Y-58883666D01*
X193567095Y-58845571D01*
X193643285Y-58807476D01*
X193719476Y-58807476D01*
X193833761Y-58845571D01*
X194290904Y-59302714D01*
X194290904Y-58807476D01*
G04 #@! TO.C,R23*
X187305904Y-60331285D02*
X186924952Y-60597952D01*
X187305904Y-60788428D02*
X186505904Y-60788428D01*
X186505904Y-60483666D01*
X186544000Y-60407476D01*
X186582095Y-60369380D01*
X186658285Y-60331285D01*
X186772571Y-60331285D01*
X186848761Y-60369380D01*
X186886857Y-60407476D01*
X186924952Y-60483666D01*
X186924952Y-60788428D01*
X186582095Y-60026523D02*
X186544000Y-59988428D01*
X186505904Y-59912238D01*
X186505904Y-59721761D01*
X186544000Y-59645571D01*
X186582095Y-59607476D01*
X186658285Y-59569380D01*
X186734476Y-59569380D01*
X186848761Y-59607476D01*
X187305904Y-60064619D01*
X187305904Y-59569380D01*
X186505904Y-59302714D02*
X186505904Y-58807476D01*
X186810666Y-59074142D01*
X186810666Y-58959857D01*
X186848761Y-58883666D01*
X186886857Y-58845571D01*
X186963047Y-58807476D01*
X187153523Y-58807476D01*
X187229714Y-58845571D01*
X187267809Y-58883666D01*
X187305904Y-58959857D01*
X187305904Y-59188428D01*
X187267809Y-59264619D01*
X187229714Y-59302714D01*
G04 #@! TO.C,T1*
X113855595Y-81684880D02*
X114427023Y-81684880D01*
X114141309Y-82684880D02*
X114141309Y-81684880D01*
X115284166Y-82684880D02*
X114712738Y-82684880D01*
X114998452Y-82684880D02*
X114998452Y-81684880D01*
X114903214Y-81827738D01*
X114807976Y-81922976D01*
X114712738Y-81970595D01*
G04 #@! TO.C,U1*
X177609595Y-90955880D02*
X177609595Y-91765404D01*
X177657214Y-91860642D01*
X177704833Y-91908261D01*
X177800071Y-91955880D01*
X177990547Y-91955880D01*
X178085785Y-91908261D01*
X178133404Y-91860642D01*
X178181023Y-91765404D01*
X178181023Y-90955880D01*
X179181023Y-91955880D02*
X178609595Y-91955880D01*
X178895309Y-91955880D02*
X178895309Y-90955880D01*
X178800071Y-91098738D01*
X178704833Y-91193976D01*
X178609595Y-91241595D01*
G04 #@! TO.C,Y1*
X149637809Y-68556190D02*
X149637809Y-69032380D01*
X149304476Y-68032380D02*
X149637809Y-68556190D01*
X149971142Y-68032380D01*
X150828285Y-69032380D02*
X150256857Y-69032380D01*
X150542571Y-69032380D02*
X150542571Y-68032380D01*
X150447333Y-68175238D01*
X150352095Y-68270476D01*
X150256857Y-68318095D01*
G04 #@! TO.C,R12*
X113137904Y-66935285D02*
X112756952Y-67201952D01*
X113137904Y-67392428D02*
X112337904Y-67392428D01*
X112337904Y-67087666D01*
X112376000Y-67011476D01*
X112414095Y-66973380D01*
X112490285Y-66935285D01*
X112604571Y-66935285D01*
X112680761Y-66973380D01*
X112718857Y-67011476D01*
X112756952Y-67087666D01*
X112756952Y-67392428D01*
X113137904Y-66173380D02*
X113137904Y-66630523D01*
X113137904Y-66401952D02*
X112337904Y-66401952D01*
X112452190Y-66478142D01*
X112528380Y-66554333D01*
X112566476Y-66630523D01*
X112414095Y-65868619D02*
X112376000Y-65830523D01*
X112337904Y-65754333D01*
X112337904Y-65563857D01*
X112376000Y-65487666D01*
X112414095Y-65449571D01*
X112490285Y-65411476D01*
X112566476Y-65411476D01*
X112680761Y-65449571D01*
X113137904Y-65906714D01*
X113137904Y-65411476D01*
G04 #@! TO.C,R1*
X97750333Y-61935380D02*
X97417000Y-61459190D01*
X97178904Y-61935380D02*
X97178904Y-60935380D01*
X97559857Y-60935380D01*
X97655095Y-60983000D01*
X97702714Y-61030619D01*
X97750333Y-61125857D01*
X97750333Y-61268714D01*
X97702714Y-61363952D01*
X97655095Y-61411571D01*
X97559857Y-61459190D01*
X97178904Y-61459190D01*
X98702714Y-61935380D02*
X98131285Y-61935380D01*
X98417000Y-61935380D02*
X98417000Y-60935380D01*
X98321761Y-61078238D01*
X98226523Y-61173476D01*
X98131285Y-61221095D01*
G04 #@! TO.C,R4*
X97750333Y-55824380D02*
X97417000Y-55348190D01*
X97178904Y-55824380D02*
X97178904Y-54824380D01*
X97559857Y-54824380D01*
X97655095Y-54872000D01*
X97702714Y-54919619D01*
X97750333Y-55014857D01*
X97750333Y-55157714D01*
X97702714Y-55252952D01*
X97655095Y-55300571D01*
X97559857Y-55348190D01*
X97178904Y-55348190D01*
X98607476Y-55157714D02*
X98607476Y-55824380D01*
X98369380Y-54776761D02*
X98131285Y-55491047D01*
X98750333Y-55491047D01*
G04 #@! TO.C,R5*
X113137904Y-68967333D02*
X112756952Y-69234000D01*
X113137904Y-69424476D02*
X112337904Y-69424476D01*
X112337904Y-69119714D01*
X112376000Y-69043523D01*
X112414095Y-69005428D01*
X112490285Y-68967333D01*
X112604571Y-68967333D01*
X112680761Y-69005428D01*
X112718857Y-69043523D01*
X112756952Y-69119714D01*
X112756952Y-69424476D01*
X112337904Y-68243523D02*
X112337904Y-68624476D01*
X112718857Y-68662571D01*
X112680761Y-68624476D01*
X112642666Y-68548285D01*
X112642666Y-68357809D01*
X112680761Y-68281619D01*
X112718857Y-68243523D01*
X112795047Y-68205428D01*
X112985523Y-68205428D01*
X113061714Y-68243523D01*
X113099809Y-68281619D01*
X113137904Y-68357809D01*
X113137904Y-68548285D01*
X113099809Y-68624476D01*
X113061714Y-68662571D01*
G04 #@! TO.C,J4*
X140974380Y-100917333D02*
X141688666Y-100917333D01*
X141831523Y-100964952D01*
X141926761Y-101060190D01*
X141974380Y-101203047D01*
X141974380Y-101298285D01*
X141307714Y-100012571D02*
X141974380Y-100012571D01*
X140926761Y-100250666D02*
X141641047Y-100488761D01*
X141641047Y-99869714D01*
G04 #@! TO.C,R20*
X86352142Y-61793380D02*
X86018809Y-61317190D01*
X85780714Y-61793380D02*
X85780714Y-60793380D01*
X86161666Y-60793380D01*
X86256904Y-60841000D01*
X86304523Y-60888619D01*
X86352142Y-60983857D01*
X86352142Y-61126714D01*
X86304523Y-61221952D01*
X86256904Y-61269571D01*
X86161666Y-61317190D01*
X85780714Y-61317190D01*
X86733095Y-60888619D02*
X86780714Y-60841000D01*
X86875952Y-60793380D01*
X87114047Y-60793380D01*
X87209285Y-60841000D01*
X87256904Y-60888619D01*
X87304523Y-60983857D01*
X87304523Y-61079095D01*
X87256904Y-61221952D01*
X86685476Y-61793380D01*
X87304523Y-61793380D01*
X87923571Y-60793380D02*
X88018809Y-60793380D01*
X88114047Y-60841000D01*
X88161666Y-60888619D01*
X88209285Y-60983857D01*
X88256904Y-61174333D01*
X88256904Y-61412428D01*
X88209285Y-61602904D01*
X88161666Y-61698142D01*
X88114047Y-61745761D01*
X88018809Y-61793380D01*
X87923571Y-61793380D01*
X87828333Y-61745761D01*
X87780714Y-61698142D01*
X87733095Y-61602904D01*
X87685476Y-61412428D01*
X87685476Y-61174333D01*
X87733095Y-60983857D01*
X87780714Y-60888619D01*
X87828333Y-60841000D01*
X87923571Y-60793380D01*
G04 #@! TO.C,R24*
X86352142Y-55824380D02*
X86018809Y-55348190D01*
X85780714Y-55824380D02*
X85780714Y-54824380D01*
X86161666Y-54824380D01*
X86256904Y-54872000D01*
X86304523Y-54919619D01*
X86352142Y-55014857D01*
X86352142Y-55157714D01*
X86304523Y-55252952D01*
X86256904Y-55300571D01*
X86161666Y-55348190D01*
X85780714Y-55348190D01*
X86733095Y-54919619D02*
X86780714Y-54872000D01*
X86875952Y-54824380D01*
X87114047Y-54824380D01*
X87209285Y-54872000D01*
X87256904Y-54919619D01*
X87304523Y-55014857D01*
X87304523Y-55110095D01*
X87256904Y-55252952D01*
X86685476Y-55824380D01*
X87304523Y-55824380D01*
X88161666Y-55157714D02*
X88161666Y-55824380D01*
X87923571Y-54776761D02*
X87685476Y-55491047D01*
X88304523Y-55491047D01*
G04 #@! TO.C,J3*
X163115666Y-82046380D02*
X163115666Y-82760666D01*
X163068047Y-82903523D01*
X162972809Y-82998761D01*
X162829952Y-83046380D01*
X162734714Y-83046380D01*
X163496619Y-82046380D02*
X164115666Y-82046380D01*
X163782333Y-82427333D01*
X163925190Y-82427333D01*
X164020428Y-82474952D01*
X164068047Y-82522571D01*
X164115666Y-82617809D01*
X164115666Y-82855904D01*
X164068047Y-82951142D01*
X164020428Y-82998761D01*
X163925190Y-83046380D01*
X163639476Y-83046380D01*
X163544238Y-82998761D01*
X163496619Y-82951142D01*
G04 #@! TO.C,REF\002A\002A*
X192341666Y-94639380D02*
X192008333Y-94163190D01*
X191770238Y-94639380D02*
X191770238Y-93639380D01*
X192151190Y-93639380D01*
X192246428Y-93687000D01*
X192294047Y-93734619D01*
X192341666Y-93829857D01*
X192341666Y-93972714D01*
X192294047Y-94067952D01*
X192246428Y-94115571D01*
X192151190Y-94163190D01*
X191770238Y-94163190D01*
X192770238Y-94115571D02*
X193103571Y-94115571D01*
X193246428Y-94639380D02*
X192770238Y-94639380D01*
X192770238Y-93639380D01*
X193246428Y-93639380D01*
X194008333Y-94115571D02*
X193675000Y-94115571D01*
X193675000Y-94639380D02*
X193675000Y-93639380D01*
X194151190Y-93639380D01*
X194675000Y-93639380D02*
X194675000Y-93877476D01*
X194436904Y-93782238D02*
X194675000Y-93877476D01*
X194913095Y-93782238D01*
X194532142Y-94067952D02*
X194675000Y-93877476D01*
X194817857Y-94067952D01*
X195436904Y-93639380D02*
X195436904Y-93877476D01*
X195198809Y-93782238D02*
X195436904Y-93877476D01*
X195675000Y-93782238D01*
X195294047Y-94067952D02*
X195436904Y-93877476D01*
X195579761Y-94067952D01*
X128333666Y-54507380D02*
X128000333Y-54031190D01*
X127762238Y-54507380D02*
X127762238Y-53507380D01*
X128143190Y-53507380D01*
X128238428Y-53555000D01*
X128286047Y-53602619D01*
X128333666Y-53697857D01*
X128333666Y-53840714D01*
X128286047Y-53935952D01*
X128238428Y-53983571D01*
X128143190Y-54031190D01*
X127762238Y-54031190D01*
X128762238Y-53983571D02*
X129095571Y-53983571D01*
X129238428Y-54507380D02*
X128762238Y-54507380D01*
X128762238Y-53507380D01*
X129238428Y-53507380D01*
X130000333Y-53983571D02*
X129667000Y-53983571D01*
X129667000Y-54507380D02*
X129667000Y-53507380D01*
X130143190Y-53507380D01*
X130667000Y-53507380D02*
X130667000Y-53745476D01*
X130428904Y-53650238D02*
X130667000Y-53745476D01*
X130905095Y-53650238D01*
X130524142Y-53935952D02*
X130667000Y-53745476D01*
X130809857Y-53935952D01*
X131428904Y-53507380D02*
X131428904Y-53745476D01*
X131190809Y-53650238D02*
X131428904Y-53745476D01*
X131667000Y-53650238D01*
X131286047Y-53935952D02*
X131428904Y-53745476D01*
X131571761Y-53935952D01*
G04 #@! TD*
M02*
