M48
;DRILL file {KiCad (5.0.0)} date 03/14/19 19:34:04
;FORMAT={2:4/ absolute / inch / suppress leading zeros}
FMAT,2
INCH,TZ
T1C0.0275
T2C0.0276
T3C0.0315
T4C0.0354
T5C0.0394
T6C0.0600
T7C0.0787
T8C0.1575
%
G90
G05
M72
T1
X59100Y-28516
X59100Y-30484
T2
X41700Y-39600
X43400Y-23100
X46825Y-32150
X52075Y-32150
X54650Y-28200
X54900Y-35075
X55250Y-26300
X55400Y-33525
X56025Y-37325
X56250Y-34250
X57450Y-32950
X57950Y-26400
X58000Y-34650
X58500Y-33550
X58950Y-24450
X61850Y-25800
X66000Y-27600
X66650Y-36650
X66650Y-37700
X66650Y-38850
X67500Y-33750
X70600Y-38750
X72900Y-37350
X73750Y-35800
X68700Y-22600
X68700Y-23600
X68700Y-24600
X68700Y-25600
X68700Y-26600
X68700Y-27600
X68700Y-28600
X68700Y-29600
X68700Y-30600
X68700Y-31600
X68700Y-32600
X68700Y-33600
X68700Y-34600
X68700Y-35600
X71700Y-22600
X71700Y-23600
X71700Y-24600
X71700Y-25600
X71700Y-26600
X71700Y-27600
X71700Y-28600
X71700Y-29600
X71700Y-30600
X71700Y-31600
X71700Y-32600
X71700Y-33600
X71700Y-34600
X71700Y-35600
X58200Y-36150
X58200Y-39150
X64350Y-23600
X67350Y-23600
X75650Y-22050
X75650Y-25050
X45150Y-29000
X48150Y-29000
X45150Y-27050
X48150Y-27050
X32750Y-23450
X35750Y-23450
X57200Y-36150
X57200Y-39150
X57550Y-25100
X60550Y-25100
X45150Y-31000
X48150Y-31000
X45150Y-26150
X48150Y-26150
X74350Y-22050
X74350Y-25050
X45150Y-28000
X48150Y-28000
X74800Y-34300
X74800Y-37300
X37050Y-22450
X40050Y-22450
X45150Y-25200
X48150Y-25200
X45150Y-30000
X48150Y-30000
X37050Y-23450
X40050Y-23450
X53650Y-21450
X56650Y-21450
X32750Y-22450
X35750Y-22450
X54450Y-22950
X57450Y-22950
X56400Y-25100
X56400Y-28100
X45150Y-24200
X48150Y-24200
T3
X49200Y-30016
X49200Y-31000
X49150Y-28000
X49150Y-28984
X67000Y-26616
X67000Y-27600
X60500Y-26600
X60500Y-27584
X60500Y-28500
X60500Y-29484
X51750Y-26216
X51750Y-27200
X45166Y-23100
X46150Y-23100
X49150Y-26100
X49150Y-27084
X60500Y-30450
X60500Y-31434
X48150Y-32150
X49134Y-32150
T4
X74650Y-32500
X75650Y-32500
X74650Y-29850
X75650Y-29850
X74650Y-27200
X75650Y-27200
T5
X49800Y-39600
X50800Y-39600
X51800Y-39600
X52800Y-39600
X53800Y-39600
X54800Y-39600
X61950Y-34850
X61950Y-35850
X61950Y-36850
X61950Y-37850
X61950Y-38850
X30180Y-22430
X30180Y-23430
X64350Y-25600
X64350Y-26600
X64350Y-27600
X64350Y-28600
X64350Y-29600
X64350Y-30600
X64350Y-31600
T6
X30825Y-25850
X30825Y-38050
X33475Y-25850
X33475Y-38050
X36125Y-25850
X36125Y-38050
X38775Y-25850
X38775Y-38050
T7
X43625Y-33729
X47625Y-37721
X51625Y-33729
T8
X51050Y-23250
X76250Y-39050
X26950Y-38500
T0
M30
