G04 #@! TF.GenerationSoftware,KiCad,Pcbnew,(5.0.0)*
G04 #@! TF.CreationDate,2019-03-14T19:33:34-04:00*
G04 #@! TF.ProjectId,Power Sense 3.0,506F7765722053656E736520332E302E,rev?*
G04 #@! TF.SameCoordinates,Original*
G04 #@! TF.FileFunction,Copper,L2,Bot,Signal*
G04 #@! TF.FilePolarity,Positive*
%FSLAX46Y46*%
G04 Gerber Fmt 4.6, Leading zero omitted, Abs format (unit mm)*
G04 Created by KiCad (PCBNEW (5.0.0)) date 03/14/19 19:33:34*
%MOMM*%
%LPD*%
G01*
G04 APERTURE LIST*
G04 #@! TA.AperFunction,ComponentPad*
%ADD10C,3.000000*%
G04 #@! TD*
G04 #@! TA.AperFunction,ComponentPad*
%ADD11C,1.600000*%
G04 #@! TD*
G04 #@! TA.AperFunction,ComponentPad*
%ADD12R,1.800000X1.800000*%
G04 #@! TD*
G04 #@! TA.AperFunction,ComponentPad*
%ADD13C,1.800000*%
G04 #@! TD*
G04 #@! TA.AperFunction,SMDPad,CuDef*
%ADD14R,1.676400X0.431800*%
G04 #@! TD*
G04 #@! TA.AperFunction,ComponentPad*
%ADD15R,1.700000X1.700000*%
G04 #@! TD*
G04 #@! TA.AperFunction,ComponentPad*
%ADD16O,1.700000X1.700000*%
G04 #@! TD*
G04 #@! TA.AperFunction,ComponentPad*
%ADD17C,1.400000*%
G04 #@! TD*
G04 #@! TA.AperFunction,ComponentPad*
%ADD18O,1.400000X1.400000*%
G04 #@! TD*
G04 #@! TA.AperFunction,ComponentPad*
%ADD19C,4.000000*%
G04 #@! TD*
G04 #@! TA.AperFunction,ComponentPad*
%ADD20O,2.641600X1.320800*%
G04 #@! TD*
G04 #@! TA.AperFunction,ComponentPad*
%ADD21C,1.676400*%
G04 #@! TD*
G04 #@! TA.AperFunction,ViaPad*
%ADD22C,1.676400*%
G04 #@! TD*
G04 #@! TA.AperFunction,Conductor*
%ADD23C,0.762000*%
G04 #@! TD*
G04 #@! TA.AperFunction,Conductor*
%ADD24C,0.406400*%
G04 #@! TD*
G04 APERTURE END LIST*
D10*
G04 #@! TO.P,T2,1*
G04 #@! TO.N,/H*
X98488500Y-65659000D03*
G04 #@! TO.P,T2,2*
G04 #@! TO.N,Net-(T2-Pad2)*
X91757500Y-65659000D03*
G04 #@! TO.P,T2,3*
X85026500Y-65659000D03*
G04 #@! TO.P,T2,4*
G04 #@! TO.N,/N*
X78295500Y-65659000D03*
G04 #@! TO.P,T2,5*
G04 #@! TO.N,Net-(R5-Pad2)*
X98488500Y-96647000D03*
G04 #@! TO.P,T2,6*
G04 #@! TO.N,GND*
X91757500Y-96647000D03*
G04 #@! TO.P,T2,7*
G04 #@! TO.N,Net-(T2-Pad7)*
X85026500Y-96647000D03*
G04 #@! TO.P,T2,8*
G04 #@! TO.N,Net-(T2-Pad8)*
X78295500Y-96647000D03*
G04 #@! TD*
D11*
G04 #@! TO.P,C1,1*
G04 #@! TO.N,GND*
X124968000Y-78740000D03*
G04 #@! TO.P,C1,2*
G04 #@! TO.N,/CH0+*
X124968000Y-76240000D03*
G04 #@! TD*
G04 #@! TO.P,C2,1*
G04 #@! TO.N,Net-(C2-Pad1)*
X124841000Y-71120000D03*
G04 #@! TO.P,C2,2*
G04 #@! TO.N,GND*
X124841000Y-73620000D03*
G04 #@! TD*
G04 #@! TO.P,C3,1*
G04 #@! TO.N,GND*
X124841000Y-68794000D03*
G04 #@! TO.P,C3,2*
G04 #@! TO.N,/CH1-*
X124841000Y-66294000D03*
G04 #@! TD*
G04 #@! TO.P,C4,1*
G04 #@! TO.N,/CH1+*
X117221000Y-58674000D03*
G04 #@! TO.P,C4,2*
G04 #@! TO.N,GND*
X114721000Y-58674000D03*
G04 #@! TD*
G04 #@! TO.P,C5,1*
G04 #@! TO.N,Net-(C5-Pad1)*
X131445000Y-66588000D03*
G04 #@! TO.P,C5,2*
G04 #@! TO.N,GND*
X131445000Y-69088000D03*
G04 #@! TD*
G04 #@! TO.P,C6,1*
G04 #@! TO.N,GND*
X122301000Y-81661000D03*
G04 #@! TO.P,C6,2*
G04 #@! TO.N,Net-(C6-Pad2)*
X124801000Y-81661000D03*
G04 #@! TD*
G04 #@! TO.P,C7,1*
G04 #@! TO.N,GND*
X153670000Y-67564000D03*
G04 #@! TO.P,C7,2*
G04 #@! TO.N,/+5V*
X153670000Y-70064000D03*
G04 #@! TD*
G04 #@! TO.P,C8,1*
G04 #@! TO.N,Net-(C8-Pad1)*
X153670000Y-77343000D03*
G04 #@! TO.P,C8,2*
G04 #@! TO.N,GND*
X153670000Y-79843000D03*
G04 #@! TD*
G04 #@! TO.P,C9,1*
G04 #@! TO.N,Net-(C9-Pad1)*
X153670000Y-72390000D03*
G04 #@! TO.P,C9,2*
G04 #@! TO.N,GND*
X153670000Y-74890000D03*
G04 #@! TD*
G04 #@! TO.P,C10,1*
G04 #@! TO.N,Net-(C10-Pad1)*
X170180000Y-70104000D03*
G04 #@! TO.P,C10,2*
G04 #@! TO.N,GND*
X170180000Y-67604000D03*
G04 #@! TD*
D12*
G04 #@! TO.P,D1,1*
G04 #@! TO.N,GND*
X189611000Y-82550000D03*
D13*
G04 #@! TO.P,D1,2*
G04 #@! TO.N,Net-(D1-Pad2)*
X192151000Y-82550000D03*
G04 #@! TD*
D12*
G04 #@! TO.P,D2,1*
G04 #@! TO.N,GND*
X189611000Y-69088000D03*
D13*
G04 #@! TO.P,D2,2*
G04 #@! TO.N,Net-(D2-Pad2)*
X192151000Y-69088000D03*
G04 #@! TD*
D12*
G04 #@! TO.P,D3,1*
G04 #@! TO.N,GND*
X189611000Y-75819000D03*
D13*
G04 #@! TO.P,D3,2*
G04 #@! TO.N,Net-(D3-Pad2)*
X192151000Y-75819000D03*
G04 #@! TD*
D14*
G04 #@! TO.P,IC1,1*
G04 #@! TO.N,Net-(C6-Pad2)*
X135699500Y-81679999D03*
G04 #@! TO.P,IC1,2*
X135699500Y-81030000D03*
G04 #@! TO.P,IC1,3*
X135699500Y-80380002D03*
G04 #@! TO.P,IC1,4*
G04 #@! TO.N,Net-(IC1-Pad4)*
X135699500Y-79730001D03*
G04 #@! TO.P,IC1,5*
G04 #@! TO.N,/CH0+*
X135699500Y-79080002D03*
G04 #@! TO.P,IC1,6*
G04 #@! TO.N,Net-(C2-Pad1)*
X135699500Y-78430001D03*
G04 #@! TO.P,IC1,7*
G04 #@! TO.N,/CH1-*
X135699500Y-77780002D03*
G04 #@! TO.P,IC1,8*
G04 #@! TO.N,/CH1+*
X135699500Y-77130001D03*
G04 #@! TO.P,IC1,9*
G04 #@! TO.N,/MCLR*
X135699500Y-76480002D03*
G04 #@! TO.P,IC1,10*
G04 #@! TO.N,Net-(C5-Pad1)*
X135699500Y-75830001D03*
G04 #@! TO.P,IC1,11*
G04 #@! TO.N,GND*
X135699500Y-75180002D03*
G04 #@! TO.P,IC1,12*
G04 #@! TO.N,/SCK*
X135699500Y-74530001D03*
G04 #@! TO.P,IC1,13*
G04 #@! TO.N,/SDI*
X142938500Y-74530001D03*
G04 #@! TO.P,IC1,14*
G04 #@! TO.N,/MCP_CS_TO_PIC*
X142938500Y-75180000D03*
G04 #@! TO.P,IC1,15*
G04 #@! TO.N,GND*
X142938500Y-75830001D03*
G04 #@! TO.P,IC1,16*
X142938500Y-76479999D03*
G04 #@! TO.P,IC1,17*
G04 #@! TO.N,Net-(C9-Pad1)*
X142938500Y-77130001D03*
G04 #@! TO.P,IC1,18*
G04 #@! TO.N,Net-(C8-Pad1)*
X142938500Y-77779999D03*
G04 #@! TO.P,IC1,19*
G04 #@! TO.N,Net-(IC1-Pad19)*
X142938500Y-78429998D03*
G04 #@! TO.P,IC1,20*
G04 #@! TO.N,/SDO*
X142938500Y-79079999D03*
G04 #@! TO.P,IC1,21*
G04 #@! TO.N,GND*
X142938500Y-79729998D03*
G04 #@! TO.P,IC1,22*
G04 #@! TO.N,/HFtoPIC*
X142938500Y-80379999D03*
G04 #@! TO.P,IC1,23*
G04 #@! TO.N,/Fo1toPIC*
X142938500Y-81029998D03*
G04 #@! TO.P,IC1,24*
G04 #@! TO.N,/Fo0toPIC*
X142938500Y-81679999D03*
G04 #@! TD*
D15*
G04 #@! TO.P,J1,1*
G04 #@! TO.N,/H*
X76657200Y-59512200D03*
D16*
G04 #@! TO.P,J1,2*
G04 #@! TO.N,/N*
X76657200Y-56972200D03*
G04 #@! TD*
D15*
G04 #@! TO.P,J2,1*
G04 #@! TO.N,/5V_PULL_UP*
X157353000Y-98679000D03*
D16*
G04 #@! TO.P,J2,2*
G04 #@! TO.N,/+5V*
X157353000Y-96139000D03*
G04 #@! TO.P,J2,3*
G04 #@! TO.N,GND*
X157353000Y-93599000D03*
G04 #@! TO.P,J2,4*
G04 #@! TO.N,/PROG_CLK*
X157353000Y-91059000D03*
G04 #@! TO.P,J2,5*
G04 #@! TO.N,/PROG_DI*
X157353000Y-88519000D03*
G04 #@! TD*
D17*
G04 #@! TO.P,R2,1*
G04 #@! TO.N,Net-(R2-Pad1)*
X114681000Y-78740000D03*
D18*
G04 #@! TO.P,R2,2*
G04 #@! TO.N,GND*
X122301000Y-78740000D03*
G04 #@! TD*
D17*
G04 #@! TO.P,R3,1*
G04 #@! TO.N,GND*
X122301000Y-73660000D03*
D18*
G04 #@! TO.P,R3,2*
G04 #@! TO.N,Net-(R3-Pad2)*
X114681000Y-73660000D03*
G04 #@! TD*
D17*
G04 #@! TO.P,R6,1*
G04 #@! TO.N,Net-(R2-Pad1)*
X114681000Y-76200000D03*
D18*
G04 #@! TO.P,R6,2*
G04 #@! TO.N,/CH0+*
X122301000Y-76200000D03*
G04 #@! TD*
D17*
G04 #@! TO.P,R7,1*
G04 #@! TO.N,Net-(R3-Pad2)*
X114681000Y-71120000D03*
D18*
G04 #@! TO.P,R7,2*
G04 #@! TO.N,Net-(C2-Pad1)*
X122301000Y-71120000D03*
G04 #@! TD*
D17*
G04 #@! TO.P,R8,1*
G04 #@! TO.N,Net-(R1-Pad1)*
X114681000Y-64008000D03*
D18*
G04 #@! TO.P,R8,2*
G04 #@! TO.N,/CH1-*
X122301000Y-64008000D03*
G04 #@! TD*
D17*
G04 #@! TO.P,R9,1*
G04 #@! TO.N,GND*
X114681000Y-61468000D03*
D18*
G04 #@! TO.P,R9,2*
G04 #@! TO.N,/CH1+*
X122301000Y-61468000D03*
G04 #@! TD*
D17*
G04 #@! TO.P,R10,1*
G04 #@! TO.N,Net-(D1-Pad2)*
X189992000Y-87122000D03*
D18*
G04 #@! TO.P,R10,2*
G04 #@! TO.N,/LED_TO_25*
X189992000Y-94742000D03*
G04 #@! TD*
D17*
G04 #@! TO.P,R11,1*
G04 #@! TO.N,Net-(C6-Pad2)*
X145288000Y-91821000D03*
D18*
G04 #@! TO.P,R11,2*
G04 #@! TO.N,/+5V*
X145288000Y-99441000D03*
G04 #@! TD*
D17*
G04 #@! TO.P,R13,1*
G04 #@! TO.N,/+5V*
X147828000Y-99441000D03*
D18*
G04 #@! TO.P,R13,2*
G04 #@! TO.N,/5V_PULL_UP*
X147828000Y-91821000D03*
G04 #@! TD*
D17*
G04 #@! TO.P,R14,1*
G04 #@! TO.N,Net-(C10-Pad1)*
X146177000Y-63754000D03*
D18*
G04 #@! TO.P,R14,2*
G04 #@! TO.N,/+5V*
X153797000Y-63754000D03*
G04 #@! TD*
D17*
G04 #@! TO.P,R17,1*
G04 #@! TO.N,/SCK*
X136271000Y-54483000D03*
D18*
G04 #@! TO.P,R17,2*
G04 #@! TO.N,Net-(R17-Pad2)*
X143891000Y-54483000D03*
G04 #@! TD*
D17*
G04 #@! TO.P,R18,1*
G04 #@! TO.N,/SDI*
X138303000Y-58293000D03*
D18*
G04 #@! TO.P,R18,2*
G04 #@! TO.N,Net-(R18-Pad2)*
X145923000Y-58293000D03*
G04 #@! TD*
D17*
G04 #@! TO.P,R19,1*
G04 #@! TO.N,/SDO*
X163449000Y-59944000D03*
D18*
G04 #@! TO.P,R19,2*
G04 #@! TO.N,Net-(R19-Pad2)*
X171069000Y-59944000D03*
G04 #@! TD*
D17*
G04 #@! TO.P,R21,1*
G04 #@! TO.N,/MCP_CS_TO_PIC*
X143256000Y-71374000D03*
D18*
G04 #@! TO.P,R21,2*
G04 #@! TO.N,Net-(R21-Pad2)*
X143256000Y-63754000D03*
G04 #@! TD*
D17*
G04 #@! TO.P,R22,1*
G04 #@! TO.N,Net-(D2-Pad2)*
X192151000Y-63627000D03*
D18*
G04 #@! TO.P,R22,2*
G04 #@! TO.N,/LED_TO_11*
X192151000Y-56007000D03*
G04 #@! TD*
D17*
G04 #@! TO.P,R23,1*
G04 #@! TO.N,Net-(D3-Pad2)*
X188849000Y-63627000D03*
D18*
G04 #@! TO.P,R23,2*
G04 #@! TO.N,/LED_TO_12*
X188849000Y-56007000D03*
G04 #@! TD*
D19*
G04 #@! TO.P,T1,3*
G04 #@! TO.N,N/C*
X120967500Y-95811500D03*
G04 #@! TO.P,T1,2*
G04 #@! TO.N,Net-(R3-Pad2)*
X110807500Y-85671500D03*
G04 #@! TO.P,T1,1*
G04 #@! TO.N,Net-(R2-Pad1)*
X131127500Y-85671500D03*
G04 #@! TD*
D20*
G04 #@! TO.P,U1,1*
G04 #@! TO.N,/5V_PULL_UP*
X182118000Y-90424000D03*
G04 #@! TO.P,U1,2*
G04 #@! TO.N,Net-(U1-Pad2)*
X182118000Y-87884000D03*
G04 #@! TO.P,U1,3*
G04 #@! TO.N,Net-(U1-Pad3)*
X182118000Y-85344000D03*
G04 #@! TO.P,U1,4*
G04 #@! TO.N,/Fo0toPIC*
X182118000Y-82804000D03*
G04 #@! TO.P,U1,5*
G04 #@! TO.N,/HFtoPIC*
X182118000Y-80264000D03*
G04 #@! TO.P,U1,6*
G04 #@! TO.N,/Fo1toPIC*
X182118000Y-77724000D03*
G04 #@! TO.P,U1,7*
G04 #@! TO.N,Net-(U1-Pad7)*
X182118000Y-75184000D03*
G04 #@! TO.P,U1,8*
G04 #@! TO.N,GND*
X182118000Y-72644000D03*
G04 #@! TO.P,U1,9*
G04 #@! TO.N,Net-(U1-Pad9)*
X182118000Y-70104000D03*
G04 #@! TO.P,U1,10*
G04 #@! TO.N,Net-(U1-Pad10)*
X182118000Y-67564000D03*
G04 #@! TO.P,U1,11*
G04 #@! TO.N,/LED_TO_11*
X182118000Y-65024000D03*
G04 #@! TO.P,U1,12*
G04 #@! TO.N,/LED_TO_12*
X182118000Y-62484000D03*
G04 #@! TO.P,U1,13*
G04 #@! TO.N,Net-(U1-Pad13)*
X182118000Y-59944000D03*
G04 #@! TO.P,U1,14*
G04 #@! TO.N,Net-(R17-Pad2)*
X182118000Y-57404000D03*
G04 #@! TO.P,U1,15*
G04 #@! TO.N,Net-(R18-Pad2)*
X174498000Y-57404000D03*
G04 #@! TO.P,U1,16*
G04 #@! TO.N,Net-(R19-Pad2)*
X174498000Y-59944000D03*
G04 #@! TO.P,U1,17*
G04 #@! TO.N,/MCLR*
X174498000Y-62484000D03*
G04 #@! TO.P,U1,18*
G04 #@! TO.N,Net-(R21-Pad2)*
X174498000Y-65024000D03*
G04 #@! TO.P,U1,19*
G04 #@! TO.N,GND*
X174498000Y-67564000D03*
G04 #@! TO.P,U1,20*
G04 #@! TO.N,Net-(C10-Pad1)*
X174498000Y-70104000D03*
G04 #@! TO.P,U1,21*
G04 #@! TO.N,/CHIP_SELECT*
X174498000Y-72644000D03*
G04 #@! TO.P,U1,22*
G04 #@! TO.N,/SPI_CLK*
X174498000Y-75184000D03*
G04 #@! TO.P,U1,23*
G04 #@! TO.N,/SPI_MD_OUT*
X174498000Y-77724000D03*
G04 #@! TO.P,U1,24*
G04 #@! TO.N,/SPI_MD_IN*
X174498000Y-80264000D03*
G04 #@! TO.P,U1,25*
G04 #@! TO.N,/LED_TO_25*
X174498000Y-82804000D03*
G04 #@! TO.P,U1,26*
G04 #@! TO.N,Net-(U1-Pad26)*
X174498000Y-85344000D03*
G04 #@! TO.P,U1,27*
G04 #@! TO.N,/PROG_DI*
X174498000Y-87884000D03*
G04 #@! TO.P,U1,28*
G04 #@! TO.N,/PROG_CLK*
X174498000Y-90424000D03*
G04 #@! TD*
D21*
G04 #@! TO.P,Y1,1*
G04 #@! TO.N,Net-(C8-Pad1)*
X150114000Y-77430000D03*
G04 #@! TO.P,Y1,2*
G04 #@! TO.N,Net-(C9-Pad1)*
X150114000Y-72430000D03*
G04 #@! TD*
D17*
G04 #@! TO.P,R12,1*
G04 #@! TO.N,GND*
X122301000Y-66421000D03*
D18*
G04 #@! TO.P,R12,2*
G04 #@! TO.N,Net-(R1-Pad1)*
X114681000Y-66421000D03*
G04 #@! TD*
D17*
G04 #@! TO.P,R1,1*
G04 #@! TO.N,Net-(R1-Pad1)*
X101727000Y-59563000D03*
D18*
G04 #@! TO.P,R1,2*
G04 #@! TO.N,Net-(R1-Pad2)*
X94107000Y-59563000D03*
G04 #@! TD*
D17*
G04 #@! TO.P,R4,1*
G04 #@! TO.N,GND*
X94107000Y-57023000D03*
D18*
G04 #@! TO.P,R4,2*
G04 #@! TO.N,Net-(R1-Pad1)*
X101727000Y-57023000D03*
G04 #@! TD*
G04 #@! TO.P,R5,2*
G04 #@! TO.N,Net-(R5-Pad2)*
X114681000Y-68707000D03*
D17*
G04 #@! TO.P,R5,1*
G04 #@! TO.N,Net-(R1-Pad1)*
X122301000Y-68707000D03*
G04 #@! TD*
D16*
G04 #@! TO.P,J4,6*
G04 #@! TO.N,GND*
X126492000Y-100584000D03*
G04 #@! TO.P,J4,5*
G04 #@! TO.N,/CH0+*
X129032000Y-100584000D03*
G04 #@! TO.P,J4,4*
G04 #@! TO.N,/CH1-*
X131572000Y-100584000D03*
G04 #@! TO.P,J4,3*
G04 #@! TO.N,/HFtoPIC*
X134112000Y-100584000D03*
G04 #@! TO.P,J4,2*
G04 #@! TO.N,/Fo1toPIC*
X136652000Y-100584000D03*
D15*
G04 #@! TO.P,J4,1*
G04 #@! TO.N,/Fo0toPIC*
X139192000Y-100584000D03*
G04 #@! TD*
D17*
G04 #@! TO.P,R20,1*
G04 #@! TO.N,Net-(R1-Pad2)*
X90805000Y-59563000D03*
D18*
G04 #@! TO.P,R20,2*
G04 #@! TO.N,/H*
X83185000Y-59563000D03*
G04 #@! TD*
G04 #@! TO.P,R24,2*
G04 #@! TO.N,/N*
X83185000Y-57023000D03*
D17*
G04 #@! TO.P,R24,1*
G04 #@! TO.N,GND*
X90805000Y-57023000D03*
G04 #@! TD*
D15*
G04 #@! TO.P,J3,1*
G04 #@! TO.N,/SPI_MD_IN*
X163449000Y-80264000D03*
D16*
G04 #@! TO.P,J3,2*
G04 #@! TO.N,/SPI_MD_OUT*
X163449000Y-77724000D03*
G04 #@! TO.P,J3,3*
G04 #@! TO.N,/SPI_CLK*
X163449000Y-75184000D03*
G04 #@! TO.P,J3,4*
G04 #@! TO.N,/CHIP_SELECT*
X163449000Y-72644000D03*
G04 #@! TO.P,J3,5*
G04 #@! TO.N,/+5V*
X163449000Y-70104000D03*
G04 #@! TO.P,J3,6*
G04 #@! TO.N,GND*
X163449000Y-67564000D03*
G04 #@! TO.P,J3,7*
G04 #@! TO.N,/+12V*
X163449000Y-65024000D03*
G04 #@! TD*
D22*
G04 #@! TO.N,GND*
X105918000Y-100584000D03*
X118935500Y-81661000D03*
X110236000Y-58674000D03*
X179324000Y-98425000D03*
X187325000Y-90932000D03*
X157099000Y-65532000D03*
X147193000Y-67056000D03*
X140716000Y-85153500D03*
G04 #@! TO.N,Net-(C6-Pad2)*
X142303500Y-94805500D03*
X132270500Y-81661000D03*
G04 #@! TO.N,Net-(C10-Pad1)*
X167640000Y-70104000D03*
X149733000Y-62103000D03*
G04 #@! TO.N,/SDO*
X138811000Y-71628000D03*
X140335000Y-66802000D03*
G04 #@! TO.N,/HFtoPIC*
X139446000Y-89090500D03*
X169291000Y-95758000D03*
X148590000Y-85217000D03*
G04 #@! TO.N,/Fo1toPIC*
X142875000Y-86995000D03*
X169291000Y-93091000D03*
X145923000Y-83693000D03*
G04 #@! TO.N,/Fo0toPIC*
X169291000Y-98679000D03*
X147320000Y-88011000D03*
G04 #@! TO.N,/LED_TO_25*
X185166000Y-94869000D03*
X171450000Y-85725000D03*
G04 #@! TD*
D23*
G04 #@! TO.N,GND*
X153670000Y-74890000D02*
X154519000Y-74890000D01*
X154519000Y-74890000D02*
X155702000Y-76073000D01*
X187325000Y-90932000D02*
X187325000Y-84836000D01*
X187325000Y-84836000D02*
X189611000Y-82550000D01*
X155067000Y-67564000D02*
X157099000Y-65532000D01*
X155067000Y-67564000D02*
X153670000Y-67564000D01*
X147193000Y-67056000D02*
X147193000Y-74549000D01*
D24*
X145911999Y-75830001D02*
X147193000Y-74549000D01*
X145911999Y-75830001D02*
X142938500Y-75830001D01*
X134616002Y-75180002D02*
X133858000Y-74422000D01*
X133858000Y-74422000D02*
X133858000Y-73787000D01*
X135699500Y-75180002D02*
X134616002Y-75180002D01*
D23*
X153122000Y-80391000D02*
X148590000Y-80391000D01*
D24*
X145441002Y-79729998D02*
X145669000Y-79502000D01*
X145669000Y-79502000D02*
X147701000Y-79502000D01*
X147701000Y-79502000D02*
X148590000Y-80391000D01*
X145441002Y-79729998D02*
X142938500Y-79729998D01*
D23*
X153122000Y-80391000D02*
X153670000Y-79843000D01*
X153670000Y-79843000D02*
X153710000Y-79843000D01*
X162052000Y-67564000D02*
X155067000Y-67564000D01*
D24*
X142938500Y-75830001D02*
X142938500Y-76479999D01*
D23*
X169418000Y-67604000D02*
X162092000Y-67604000D01*
X163489000Y-67604000D02*
X163449000Y-67564000D01*
X174498000Y-67564000D02*
X169458000Y-67564000D01*
X169458000Y-67564000D02*
X169418000Y-67604000D01*
X182118000Y-72644000D02*
X179324000Y-72644000D01*
X176911000Y-67564000D02*
X174498000Y-67564000D01*
X178181000Y-68834000D02*
X176911000Y-67564000D01*
X178181000Y-71501000D02*
X178181000Y-68834000D01*
X179324000Y-72644000D02*
X178181000Y-71501000D01*
X182118000Y-72644000D02*
X188595000Y-72644000D01*
X188595000Y-72644000D02*
X189611000Y-73660000D01*
X189611000Y-82550000D02*
X189611000Y-75819000D01*
X189611000Y-69088000D02*
X189611000Y-73660000D01*
X189611000Y-73660000D02*
X189611000Y-75819000D01*
X177546000Y-100203000D02*
X179324000Y-98425000D01*
X166116000Y-100203000D02*
X177546000Y-100203000D01*
X162941000Y-97028000D02*
X166116000Y-100203000D01*
X162941000Y-94742000D02*
X162941000Y-97028000D01*
X157353000Y-93599000D02*
X161798000Y-93599000D01*
X161798000Y-93599000D02*
X162941000Y-94742000D01*
X94157800Y-56972200D02*
X94234000Y-56896000D01*
X110236000Y-58674000D02*
X114721000Y-58674000D01*
X122468000Y-66421000D02*
X124841000Y-68794000D01*
X122301000Y-66421000D02*
X122468000Y-66421000D01*
X114721000Y-61428000D02*
X114681000Y-61468000D01*
X114721000Y-58674000D02*
X114721000Y-61428000D01*
D24*
X133858000Y-73787000D02*
X133858000Y-73406000D01*
D23*
X133858000Y-73406000D02*
X133604000Y-73152000D01*
X132244999Y-69887999D02*
X133604000Y-71247000D01*
X131445000Y-69088000D02*
X132244999Y-69887999D01*
X133604000Y-73152000D02*
X133604000Y-71247000D01*
X90805000Y-57023000D02*
X94107000Y-57023000D01*
X106553000Y-54991000D02*
X110236000Y-58674000D01*
X94107000Y-57023000D02*
X96139000Y-54991000D01*
X96139000Y-54991000D02*
X106553000Y-54991000D01*
X122341000Y-73620000D02*
X122301000Y-73660000D01*
X124841000Y-73620000D02*
X122341000Y-73620000D01*
X122301000Y-78740000D02*
X124968000Y-78740000D01*
X122301000Y-78740000D02*
X122301000Y-81661000D01*
D24*
X141693900Y-79729998D02*
X140716000Y-80707898D01*
X140716000Y-80707898D02*
X140716000Y-82296000D01*
X142938500Y-79729998D02*
X141693900Y-79729998D01*
D23*
X140716000Y-83968107D02*
X140716000Y-82296000D01*
X140716000Y-85153500D02*
X140716000Y-83968107D01*
X96202500Y-100584000D02*
X110680500Y-100584000D01*
X92265500Y-96647000D02*
X96202500Y-100584000D01*
X118935500Y-81661000D02*
X122301000Y-81661000D01*
X110680500Y-100584000D02*
X126492000Y-100584000D01*
X121221500Y-78740000D02*
X122301000Y-78740000D01*
X119380000Y-76898500D02*
X121221500Y-78740000D01*
X119380000Y-74511551D02*
X119380000Y-76898500D01*
X122301000Y-73660000D02*
X120231551Y-73660000D01*
X120231551Y-73660000D02*
X119380000Y-74511551D01*
X133604000Y-65532000D02*
X133604000Y-71247000D01*
X132588000Y-64516000D02*
X133604000Y-65532000D01*
X127381000Y-64516000D02*
X132588000Y-64516000D01*
X114721000Y-58674000D02*
X114721000Y-55459000D01*
X114721000Y-55459000D02*
X115570000Y-54610000D01*
X115570000Y-54610000D02*
X118999000Y-54610000D01*
X118999000Y-54610000D02*
X124333000Y-59944000D01*
X124333000Y-59944000D02*
X124333000Y-61468000D01*
X124333000Y-61468000D02*
X127381000Y-64516000D01*
X122301000Y-66421000D02*
X121031000Y-66421000D01*
X121031000Y-66421000D02*
X116840000Y-62230000D01*
X114681000Y-61468000D02*
X116078000Y-61468000D01*
X116078000Y-61468000D02*
X116840000Y-62230000D01*
X153670000Y-79843000D02*
X154801370Y-79843000D01*
X155702000Y-76073000D02*
X155702000Y-79248000D01*
X155107000Y-79843000D02*
X154801370Y-79843000D01*
X155702000Y-79248000D02*
X155107000Y-79843000D01*
D24*
G04 #@! TO.N,Net-(C2-Pad1)*
X135699500Y-78430001D02*
X131627999Y-78430001D01*
D23*
X122301000Y-71120000D02*
X124841000Y-71120000D01*
X124841000Y-71120000D02*
X126873000Y-73152000D01*
X131620498Y-78422500D02*
X131627999Y-78430001D01*
X129032000Y-78422500D02*
X131620498Y-78422500D01*
X128193801Y-77584301D02*
X129032000Y-78422500D01*
X128193801Y-76969418D02*
X128193801Y-77584301D01*
X126873000Y-75648617D02*
X128193801Y-76969418D01*
X126873000Y-73152000D02*
X126873000Y-75648617D01*
D24*
G04 #@! TO.N,Net-(C5-Pad1)*
X134250001Y-75830001D02*
X132969000Y-74549000D01*
X134250001Y-75830001D02*
X135699500Y-75830001D01*
D23*
X131953000Y-73533000D02*
X132969000Y-74549000D01*
X131953000Y-72898000D02*
X131953000Y-73533000D01*
X129540000Y-70485000D02*
X131953000Y-72898000D01*
X129540000Y-67136000D02*
X129540000Y-70485000D01*
X131445000Y-66588000D02*
X130088000Y-66588000D01*
X130088000Y-66588000D02*
X129540000Y-67136000D01*
D24*
G04 #@! TO.N,Net-(C6-Pad2)*
X135699500Y-81030000D02*
X135699500Y-80380002D01*
X135699500Y-81679999D02*
X135699500Y-81030000D01*
D23*
X133585001Y-81661000D02*
X133604000Y-81679999D01*
X124801000Y-81661000D02*
X127381000Y-81661000D01*
D24*
X135699500Y-81679999D02*
X133604000Y-81679999D01*
X133604000Y-81679999D02*
X133368999Y-81679999D01*
D23*
X127381000Y-81661000D02*
X132270500Y-81661000D01*
X132270500Y-81661000D02*
X133585001Y-81661000D01*
X145288000Y-91821000D02*
X142303500Y-94805500D01*
G04 #@! TO.N,/+5V*
X153797000Y-63754000D02*
X153416000Y-63754000D01*
X153416000Y-63754000D02*
X150749000Y-66421000D01*
X150749000Y-66421000D02*
X150749000Y-69215000D01*
X150749000Y-69215000D02*
X151598000Y-70064000D01*
X151598000Y-70064000D02*
X153670000Y-70064000D01*
X162052000Y-70104000D02*
X158115000Y-70104000D01*
X158115000Y-70104000D02*
X153710000Y-70104000D01*
X153710000Y-70104000D02*
X153670000Y-70064000D01*
X145542000Y-99441000D02*
X147955000Y-99441000D01*
X157099000Y-71120000D02*
X157099000Y-79883000D01*
X158115000Y-70104000D02*
X157099000Y-71120000D01*
X151130000Y-99441000D02*
X151447500Y-99441000D01*
X147828000Y-99441000D02*
X151130000Y-99441000D01*
X156150919Y-96139000D02*
X152848919Y-99441000D01*
X157353000Y-96139000D02*
X156150919Y-96139000D01*
X152848919Y-99441000D02*
X151130000Y-99441000D01*
X149860000Y-97853500D02*
X151447500Y-99441000D01*
X157099000Y-79883000D02*
X149860000Y-87122000D01*
X149860000Y-87122000D02*
X149860000Y-97853500D01*
X162052000Y-70104000D02*
X163449000Y-70104000D01*
G04 #@! TO.N,Net-(C8-Pad1)*
X145796000Y-78486000D02*
X149058000Y-78486000D01*
D24*
X142938500Y-77779999D02*
X145089999Y-77779999D01*
X145089999Y-77779999D02*
X145796000Y-78486000D01*
D23*
X149058000Y-78486000D02*
X150114000Y-77430000D01*
X153670000Y-77343000D02*
X150201000Y-77343000D01*
X150201000Y-77343000D02*
X150114000Y-77430000D01*
G04 #@! TO.N,Net-(C9-Pad1)*
X146008999Y-77130001D02*
X147278999Y-77130001D01*
D24*
X142938500Y-77130001D02*
X146008999Y-77130001D01*
D23*
X150114000Y-74295000D02*
X150114000Y-72430000D01*
X147278999Y-77130001D02*
X150114000Y-74295000D01*
X153670000Y-72390000D02*
X150154000Y-72390000D01*
X150154000Y-72390000D02*
X150114000Y-72430000D01*
G04 #@! TO.N,Net-(C10-Pad1)*
X167640000Y-70104000D02*
X169418000Y-70104000D01*
X169418000Y-70104000D02*
X174498000Y-70104000D01*
X148082000Y-63754000D02*
X146177000Y-63754000D01*
X149733000Y-62103000D02*
X148082000Y-63754000D01*
G04 #@! TO.N,Net-(D1-Pad2)*
X192151000Y-82550000D02*
X192151000Y-84963000D01*
X192151000Y-84963000D02*
X189992000Y-87122000D01*
G04 #@! TO.N,Net-(D2-Pad2)*
X192151000Y-63627000D02*
X192151000Y-69088000D01*
G04 #@! TO.N,Net-(D3-Pad2)*
X188849000Y-63627000D02*
X188849000Y-63119000D01*
X188849000Y-63119000D02*
X190754000Y-61214000D01*
X190754000Y-61214000D02*
X193421000Y-61214000D01*
X193421000Y-61214000D02*
X194945000Y-62738000D01*
X194945000Y-62738000D02*
X194945000Y-73025000D01*
X194945000Y-73025000D02*
X192151000Y-75819000D01*
D24*
G04 #@! TO.N,/MCLR*
X137414000Y-72898000D02*
X137414000Y-76073000D01*
X135699500Y-76480002D02*
X137006998Y-76480002D01*
X137414000Y-76073000D02*
X137006998Y-76480002D01*
D23*
X136383799Y-71867799D02*
X137414000Y-72898000D01*
X136383799Y-57418201D02*
X136383799Y-71867799D01*
X137668000Y-56134000D02*
X136383799Y-57418201D01*
X140462000Y-56134000D02*
X137668000Y-56134000D01*
X141478000Y-57150000D02*
X140462000Y-56134000D01*
X141478000Y-59309000D02*
X141478000Y-57150000D01*
X146177000Y-60706000D02*
X142875000Y-60706000D01*
X170434000Y-62484000D02*
X168021000Y-60071000D01*
X174498000Y-62484000D02*
X170434000Y-62484000D01*
X168021000Y-60071000D02*
X168021000Y-59182000D01*
X168021000Y-59182000D02*
X166878000Y-58039000D01*
X166878000Y-58039000D02*
X148844000Y-58039000D01*
X142875000Y-60706000D02*
X141478000Y-59309000D01*
X148844000Y-58039000D02*
X146177000Y-60706000D01*
D24*
G04 #@! TO.N,/SCK*
X135699500Y-73469500D02*
X135001000Y-72771000D01*
X135699500Y-73469500D02*
X135699500Y-74530001D01*
X135699500Y-74530001D02*
X135236001Y-74530001D01*
D23*
X135001000Y-55753000D02*
X136271000Y-54483000D01*
X135001000Y-61595000D02*
X135001000Y-55753000D01*
X135001000Y-61595000D02*
X135001000Y-72771000D01*
D24*
G04 #@! TO.N,/SDI*
X142919501Y-74549000D02*
X142938500Y-74530001D01*
X142938500Y-73850500D02*
X141224000Y-72136000D01*
X142938500Y-73850500D02*
X142938500Y-74530001D01*
D23*
X141224000Y-70993000D02*
X141224000Y-72136000D01*
X139446000Y-69215000D02*
X141224000Y-70993000D01*
X138684000Y-69215000D02*
X139446000Y-69215000D01*
X138303000Y-58293000D02*
X138303000Y-68834000D01*
X138303000Y-68834000D02*
X138684000Y-69215000D01*
D24*
G04 #@! TO.N,/MCP_CS_TO_PIC*
X144653000Y-75180000D02*
X144657000Y-75180000D01*
X144657000Y-75180000D02*
X145288000Y-74549000D01*
D23*
X145288000Y-73279000D02*
X143383000Y-71374000D01*
X145288000Y-73279000D02*
X145288000Y-74549000D01*
D24*
X142938500Y-75180000D02*
X144653000Y-75180000D01*
D23*
X143256000Y-71374000D02*
X143383000Y-71374000D01*
D24*
G04 #@! TO.N,/SDO*
X139573000Y-77216000D02*
X139573000Y-77597000D01*
D23*
X138811000Y-71628000D02*
X139573000Y-72390000D01*
X139573000Y-72390000D02*
X139573000Y-77216000D01*
D24*
X141055999Y-79079999D02*
X142938500Y-79079999D01*
X139573000Y-77597000D02*
X141055999Y-79079999D01*
D23*
X149098000Y-59944000D02*
X163449000Y-59944000D01*
X146939000Y-62103000D02*
X149098000Y-59944000D01*
X141097000Y-62103000D02*
X146939000Y-62103000D01*
X140335000Y-66802000D02*
X140335000Y-62865000D01*
X140335000Y-62865000D02*
X141097000Y-62103000D01*
G04 #@! TO.N,/HFtoPIC*
X146292999Y-80379999D02*
X148590000Y-82677000D01*
D24*
X142938500Y-80379999D02*
X146292999Y-80379999D01*
D23*
X178308000Y-93599000D02*
X176149000Y-95758000D01*
X178308000Y-82931000D02*
X180975000Y-80264000D01*
X178308000Y-82931000D02*
X178308000Y-92837000D01*
X178308000Y-92837000D02*
X178308000Y-93599000D01*
X169291000Y-95758000D02*
X176149000Y-95758000D01*
X148590000Y-82677000D02*
X148590000Y-85217000D01*
X182118000Y-80264000D02*
X180975000Y-80264000D01*
X134112000Y-94424500D02*
X139446000Y-89090500D01*
X134112000Y-100584000D02*
X134112000Y-94424500D01*
G04 #@! TO.N,/Fo1toPIC*
X145415000Y-81788000D02*
X145415000Y-83185000D01*
X172847000Y-93091000D02*
X169291000Y-93091000D01*
X180594000Y-77724000D02*
X177038000Y-81280000D01*
X177038000Y-81280000D02*
X177038000Y-92075000D01*
X177038000Y-92075000D02*
X176022000Y-93091000D01*
X176022000Y-93091000D02*
X172847000Y-93091000D01*
X182118000Y-77724000D02*
X180594000Y-77724000D01*
D24*
X144656998Y-81029998D02*
X145415000Y-81788000D01*
X144656998Y-81029998D02*
X142938500Y-81029998D01*
D23*
X145415000Y-83185000D02*
X145923000Y-83693000D01*
X142036801Y-87833199D02*
X142875000Y-86995000D01*
X142036801Y-89306399D02*
X142036801Y-87833199D01*
X136652000Y-100584000D02*
X136652000Y-94691200D01*
X136652000Y-94691200D02*
X142036801Y-89306399D01*
G04 #@! TO.N,/Fo0toPIC*
X179705000Y-93726000D02*
X179705000Y-94996000D01*
X180975000Y-82804000D02*
X179705000Y-84074000D01*
X179705000Y-84074000D02*
X179705000Y-93726000D01*
X169291000Y-98679000D02*
X176022000Y-98679000D01*
X179705000Y-94996000D02*
X176022000Y-98679000D01*
D24*
X142875000Y-83566000D02*
X142875000Y-81743499D01*
X142875000Y-81743499D02*
X142938500Y-81679999D01*
D23*
X182118000Y-82804000D02*
X180975000Y-82804000D01*
X147320000Y-88011000D02*
X142875000Y-83566000D01*
X146481801Y-88849199D02*
X147320000Y-88011000D01*
X145084801Y-88849199D02*
X146481801Y-88849199D01*
X139192000Y-100584000D02*
X139192000Y-94742000D01*
X139192000Y-94742000D02*
X145084801Y-88849199D01*
G04 #@! TO.N,/H*
X76708000Y-59563000D02*
X76657200Y-59512200D01*
X83134200Y-59512200D02*
X83185000Y-59563000D01*
X76657200Y-59512200D02*
X83134200Y-59512200D01*
X83185000Y-59563000D02*
X85852000Y-62230000D01*
X95567500Y-62230000D02*
X98996500Y-65659000D01*
X85852000Y-62230000D02*
X95567500Y-62230000D01*
G04 #@! TO.N,/5V_PULL_UP*
X182118000Y-99060000D02*
X179705000Y-101473000D01*
X179705000Y-101473000D02*
X166624000Y-101473000D01*
X182118000Y-90424000D02*
X182118000Y-99060000D01*
X166624000Y-101473000D02*
X162306000Y-101473000D01*
X162306000Y-101473000D02*
X160655000Y-101473000D01*
X160655000Y-101473000D02*
X157861000Y-101473000D01*
X157861000Y-101385000D02*
X157861000Y-101473000D01*
X158535000Y-101473000D02*
X160655000Y-101473000D01*
X157353000Y-100291000D02*
X158535000Y-101473000D01*
X157353000Y-98679000D02*
X157353000Y-100291000D01*
X147828000Y-93535500D02*
X147828000Y-91821000D01*
X143129000Y-98234500D02*
X147828000Y-93535500D01*
X143129000Y-100584000D02*
X143129000Y-98234500D01*
X157861000Y-101473000D02*
X144018000Y-101473000D01*
X144018000Y-101473000D02*
X143129000Y-100584000D01*
G04 #@! TO.N,/PROG_CLK*
X173863000Y-91059000D02*
X174498000Y-90424000D01*
X157353000Y-91059000D02*
X173863000Y-91059000D01*
G04 #@! TO.N,/PROG_DI*
X173863000Y-88519000D02*
X174498000Y-87884000D01*
X157353000Y-88519000D02*
X173863000Y-88519000D01*
G04 #@! TO.N,/SPI_MD_IN*
X163449000Y-80264000D02*
X174498000Y-80264000D01*
G04 #@! TO.N,/SPI_MD_OUT*
X163449000Y-77724000D02*
X174498000Y-77724000D01*
G04 #@! TO.N,/SPI_CLK*
X172415200Y-75184000D02*
X163449000Y-75184000D01*
X174498000Y-75184000D02*
X172415200Y-75184000D01*
G04 #@! TO.N,/CHIP_SELECT*
X163449000Y-72644000D02*
X174498000Y-72644000D01*
G04 #@! TO.N,Net-(R1-Pad1)*
X101727000Y-57023000D02*
X101727000Y-59563000D01*
X113691051Y-64008000D02*
X114681000Y-64008000D01*
X107161949Y-64008000D02*
X113691051Y-64008000D01*
X102716949Y-59563000D02*
X107161949Y-64008000D01*
X101727000Y-59563000D02*
X102716949Y-59563000D01*
X114681000Y-64008000D02*
X114681000Y-66421000D01*
X114681000Y-66421000D02*
X116459000Y-66421000D01*
X118745000Y-68707000D02*
X122301000Y-68707000D01*
X116459000Y-66421000D02*
X118745000Y-68707000D01*
G04 #@! TO.N,Net-(R2-Pad1)*
X114681000Y-78740000D02*
X114681000Y-76200000D01*
X114681000Y-78740000D02*
X114681000Y-81407000D01*
X118945500Y-85671500D02*
X131127500Y-85671500D01*
X114681000Y-81407000D02*
X118945500Y-85671500D01*
G04 #@! TO.N,Net-(R3-Pad2)*
X114681000Y-71120000D02*
X114681000Y-73660000D01*
X110807500Y-76543551D02*
X110807500Y-85671500D01*
X114681000Y-73660000D02*
X113691051Y-73660000D01*
X113691051Y-73660000D02*
X110807500Y-76543551D01*
G04 #@! TO.N,Net-(R5-Pad2)*
X98996500Y-94525680D02*
X98996500Y-96647000D01*
X98996500Y-83401551D02*
X98996500Y-94525680D01*
X113691051Y-68707000D02*
X98996500Y-83401551D01*
X114681000Y-68707000D02*
X113691051Y-68707000D01*
G04 #@! TO.N,/LED_TO_25*
X189865000Y-94869000D02*
X185166000Y-94869000D01*
X171450000Y-85725000D02*
X171450000Y-83947000D01*
X171450000Y-83947000D02*
X172593000Y-82804000D01*
X172593000Y-82804000D02*
X174498000Y-82804000D01*
X189865000Y-94869000D02*
X189992000Y-94742000D01*
G04 #@! TO.N,Net-(R17-Pad2)*
X182118000Y-57404000D02*
X182118000Y-56515000D01*
X182118000Y-56515000D02*
X180086000Y-54483000D01*
X144880949Y-54483000D02*
X146431000Y-54483000D01*
X143891000Y-54483000D02*
X144880949Y-54483000D01*
X180086000Y-54483000D02*
X146431000Y-54483000D01*
X146431000Y-54483000D02*
X145669000Y-54483000D01*
G04 #@! TO.N,Net-(R18-Pad2)*
X174498000Y-57404000D02*
X173990000Y-57404000D01*
X173990000Y-57404000D02*
X172720000Y-56134000D01*
X148209000Y-56134000D02*
X146431000Y-57912000D01*
X172720000Y-56134000D02*
X148209000Y-56134000D01*
G04 #@! TO.N,Net-(R19-Pad2)*
X174498000Y-59944000D02*
X171069000Y-59944000D01*
G04 #@! TO.N,Net-(R21-Pad2)*
X153543000Y-61849000D02*
X152273000Y-61849000D01*
X143256000Y-63754000D02*
X144780000Y-65278000D01*
X157353000Y-61849000D02*
X153797000Y-61849000D01*
X170561000Y-65024000D02*
X167386000Y-61849000D01*
X167386000Y-61849000D02*
X157353000Y-61849000D01*
X170561000Y-65024000D02*
X174498000Y-65024000D01*
X153797000Y-61849000D02*
X153543000Y-61849000D01*
X148844000Y-65278000D02*
X144780000Y-65278000D01*
X152273000Y-61849000D02*
X148844000Y-65278000D01*
G04 #@! TO.N,/LED_TO_11*
X182118000Y-65024000D02*
X183134000Y-65024000D01*
X183134000Y-65024000D02*
X192151000Y-56007000D01*
G04 #@! TO.N,/LED_TO_12*
X184912000Y-60325000D02*
X184912000Y-58293000D01*
X184912000Y-58293000D02*
X187198000Y-56007000D01*
X187198000Y-56007000D02*
X188849000Y-56007000D01*
X182753000Y-62484000D02*
X184912000Y-60325000D01*
X182118000Y-62484000D02*
X182753000Y-62484000D01*
G04 #@! TO.N,/CH0+*
X131318000Y-80137000D02*
X131318000Y-80137000D01*
D24*
X135699500Y-79080002D02*
X133517998Y-79080002D01*
X133517998Y-79080002D02*
X132461000Y-80137000D01*
D23*
X131318000Y-80137000D02*
X132461000Y-80137000D01*
X128397000Y-80137000D02*
X131318000Y-80137000D01*
X126746000Y-78486000D02*
X128397000Y-80137000D01*
X125767999Y-77039999D02*
X126061999Y-77039999D01*
X124968000Y-76240000D02*
X125767999Y-77039999D01*
X126746000Y-77724000D02*
X126746000Y-78486000D01*
X126061999Y-77039999D02*
X126746000Y-77724000D01*
D24*
X136944100Y-79080002D02*
X137541000Y-79676902D01*
X135699500Y-79080002D02*
X136944100Y-79080002D01*
X137541000Y-79676902D02*
X137541000Y-83312000D01*
D23*
X137541000Y-84899500D02*
X137541000Y-83312000D01*
X129032000Y-100584000D02*
X129032000Y-93408500D01*
X129032000Y-93408500D02*
X137541000Y-84899500D01*
X124928000Y-76200000D02*
X124968000Y-76240000D01*
X122301000Y-76200000D02*
X124928000Y-76200000D01*
D24*
G04 #@! TO.N,/CH1+*
X133899001Y-77130001D02*
X132588000Y-75819000D01*
X134280001Y-77130001D02*
X133899001Y-77130001D01*
X134280001Y-77130001D02*
X135699500Y-77130001D01*
D23*
X126365000Y-65532000D02*
X122301000Y-61468000D01*
X127127000Y-65532000D02*
X126365000Y-65532000D01*
X128397000Y-66802000D02*
X127127000Y-65532000D01*
X128397000Y-66802000D02*
X128397000Y-71120000D01*
X128397000Y-71120000D02*
X130048000Y-72771000D01*
X130048000Y-72771000D02*
X130048000Y-74549000D01*
X131318000Y-75819000D02*
X132588000Y-75819000D01*
X130048000Y-74549000D02*
X131318000Y-75819000D01*
X119507000Y-58674000D02*
X122301000Y-61468000D01*
X117221000Y-58674000D02*
X119507000Y-58674000D01*
G04 #@! TO.N,Net-(T2-Pad2)*
X85534500Y-65659000D02*
X92265500Y-65659000D01*
G04 #@! TO.N,/N*
X83134200Y-56972200D02*
X83185000Y-57023000D01*
X76657200Y-56972200D02*
X83134200Y-56972200D01*
X73279000Y-65659000D02*
X78803500Y-65659000D01*
X71945500Y-64325500D02*
X73279000Y-65659000D01*
X71945500Y-58674000D02*
X71945500Y-64325500D01*
X76657200Y-56972200D02*
X73647300Y-56972200D01*
X73647300Y-56972200D02*
X71945500Y-58674000D01*
G04 #@! TO.N,Net-(R1-Pad2)*
X90805000Y-59563000D02*
X94107000Y-59563000D01*
D24*
G04 #@! TO.N,/CH1-*
X133025002Y-77780002D02*
X132334000Y-77089000D01*
X133533002Y-77780002D02*
X135699500Y-77780002D01*
X133533002Y-77780002D02*
X133025002Y-77780002D01*
D23*
X122555000Y-64008000D02*
X124841000Y-66294000D01*
X122301000Y-64008000D02*
X122555000Y-64008000D01*
X139001500Y-83312000D02*
X139001500Y-86042500D01*
X131572000Y-93472000D02*
X131572000Y-100584000D01*
X139001500Y-86042500D02*
X131572000Y-93472000D01*
D24*
X137215993Y-77786411D02*
X136912952Y-77786411D01*
X139001500Y-79571918D02*
X137215993Y-77786411D01*
X139001500Y-83312000D02*
X139001500Y-79571918D01*
X136900261Y-77799102D02*
X136912952Y-77786411D01*
X133639799Y-77799102D02*
X136900261Y-77799102D01*
X133620699Y-77780002D02*
X133639799Y-77799102D01*
X133533002Y-77780002D02*
X133620699Y-77780002D01*
D23*
X128397000Y-75311000D02*
X130175000Y-77089000D01*
X130175000Y-77089000D02*
X132334000Y-77089000D01*
X125730000Y-67183000D02*
X126873000Y-67183000D01*
X124841000Y-66294000D02*
X125730000Y-67183000D01*
X126873000Y-67183000D02*
X127000000Y-67310000D01*
X127000000Y-67310000D02*
X127000000Y-71596013D01*
X127000000Y-71596013D02*
X128397000Y-72993013D01*
X128397000Y-72993013D02*
X128397000Y-75311000D01*
G04 #@! TD*
M02*
